{"asset":{"version":"2.0","generator":"THREE.GLTFExporter"},"scenes":[{"name":"AuxScene","nodes":[4]}],"scene":0,"nodes":[{"name":"Cube014","mesh":0},{"name":"Cube014_1","mesh":1},{"name":"Cube014_2","mesh":2},{"matrix":[1,0,0,0,0,-1.3435885648505064e-7,0.9999999657714511,0,0,-0.9999999657714511,-1.3435885648505064e-7,0,0,0,0,1],"name":"axeDouble_uncommon","extras":{"name":"axeDouble_uncommon"},"children":[0,1,2]},{"name":"Scene","children":[3]}],"bufferViews":[{"buffer":0,"byteOffset":0,"byteLength":3996,"target":34962,"byteStride":12},{"buffer":0,"byteOffset":3996,"byteLength":3996,"target":34962,"byteStride":12},{"buffer":0,"byteOffset":7992,"byteLength":2664,"target":34962,"byteStride":8},{"buffer":0,"byteOffset":10656,"byteLength":3600,"target":34963},{"buffer":0,"byteOffset":14256,"byteLength":1344,"target":34962,"byteStride":12},{"buffer":0,"byteOffset":15600,"byteLength":1344,"target":34962,"byteStride":12},{"buffer":0,"byteOffset":16944,"byteLength":896,"target":34962,"byteStride":8},{"buffer":0,"byteOffset":17840,"byteLength":1296,"target":34963},{"buffer":0,"byteOffset":19136,"byteLength":1080,"target":34962,"byteStride":12},{"buffer":0,"byteOffset":20216,"byteLength":1080,"target":34962,"byteStride":12},{"buffer":0,"byteOffset":21296,"byteLength":720,"target":34962,"byteStride":8},{"buffer":0,"byteOffset":22016,"byteLength":1272,"target":34963}],"buffers":[{"byteLength":23288,"uri":"data:application/octet-stream;base64,"}],"accessors":[{"bufferView":0,"componentType":5126,"count":333,"max":[0.3963116407394409,0.08415036648511887,-0.24625563621520996],"min":[-0.3963268995285034,-0.08429015427827835,-0.752738893032074],"type":"VEC3"},{"bufferView":1,"componentType":5126,"count":333,"max":[0.7126524448394775,1,1],"min":[-0.7126524448394775,-1,-1],"type":"VEC3"},{"bufferView":2,"componentType":5126,"count":333,"max":[1,0.9997555613517761],"min":[-8.940696716308594e-8,0.24999988079071045],"type":"VEC2"},{"bufferView":3,"componentType":5125,"count":900,"max":[332],"min":[0],"type":"SCALAR"},{"bufferView":4,"componentType":5126,"count":112,"max":[0.04928291589021683,0.049352869391441345,0.13758248090744019],"min":[-0.04917581379413605,-0.049480222165584564,-0.62874835729599],"type":"VEC3"},{"bufferView":5,"componentType":5126,"count":112,"max":[0.9998720288276672,0.9997074007987976,0.04437599703669548],"min":[-0.9998720288276672,-0.9997074007987976,-1],"type":"VEC3"},{"bufferView":6,"componentType":5126,"count":112,"max":[1,0.2502444088459015],"min":[-8.940696716308594e-8,0],"type":"VEC2"},{"bufferView":7,"componentType":5125,"count":324,"max":[111],"min":[0],"type":"SCALAR"},{"bufferView":8,"componentType":5126,"count":90,"max":[0.06094743683934212,0.0612570159137249,0.2000664472579956],"min":[-0.06096816435456276,-0.06125709041953087,0.1375824511051178],"type":"VEC3"},{"bufferView":9,"componentType":5126,"count":90,"max":[0.973910927772522,0.973910927772522,0.9516151547431946],"min":[-0.973910927772522,-0.973910927772522,-0.4467115104198456],"type":"VEC3"},{"bufferView":10,"componentType":5126,"count":90,"max":[1,0.9902249574661255],"min":[-8.940696716308594e-8,0],"type":"VEC2"},{"bufferView":11,"componentType":5125,"count":318,"max":[89],"min":[0],"type":"SCALAR"}],"materials":[{"pbrMetallicRoughness":{"baseColorFactor":[0.4,0.47843137254901963,0.5137254901960784,1],"metallicFactor":0.20000000298023224,"roughnessFactor":0.30000001192092896},"alphaMode":"BLEND","name":"Metal.074"},{"pbrMetallicRoughness":{"baseColorFactor":[0.3254901960784314,0.09803921568627451,0.058823529411764705,1],"metallicFactor":0,"roughnessFactor":1},"alphaMode":"BLEND","name":"BrownDark.039"},{"pbrMetallicRoughness":{"baseColorFactor":[0.19215686274509805,0.22745098039215686,0.24313725490196078,1],"metallicFactor":0,"roughnessFactor":0.5},"alphaMode":"BLEND","name":"Stone.012"}],"meshes":[{"primitives":[{"mode":4,"attributes":{"POSITION":0,"NORMAL":1,"TEXCOORD_0":2},"indices":3,"material":0}]},{"primitives":[{"mode":4,"attributes":{"POSITION":4,"NORMAL":5,"TEXCOORD_0":6},"indices":7,"material":1}]},{"primitives":[{"mode":4,"attributes":{"POSITION":8,"NORMAL":9,"TEXCOORD_0":10},"indices":11,"material":2}]}]}