{"asset":{"version":"2.0","generator":"THREE.GLTFExporter"},"scenes":[{"name":"AuxScene","nodes":[4]}],"scene":0,"nodes":[{"name":"Cylinder019","mesh":0},{"name":"Cylinder019_1","mesh":1},{"name":"Cylinder019_2","mesh":2},{"matrix":[1,0,0,0,0,-1.3435885648505064e-7,0.9999999657714511,0,0,-0.9999999657714511,-1.3435885648505064e-7,0,0,0,0,1],"name":"barrel","extras":{"name":"barrel"},"children":[0,1,2]},{"name":"Scene","children":[3]}],"bufferViews":[{"buffer":0,"byteOffset":0,"byteLength":9792,"target":34962,"byteStride":12},{"buffer":0,"byteOffset":9792,"byteLength":9792,"target":34962,"byteStride":12},{"buffer":0,"byteOffset":19584,"byteLength":6528,"target":34962,"byteStride":8},{"buffer":0,"byteOffset":26112,"byteLength":5280,"target":34963},{"buffer":0,"byteOffset":31392,"byteLength":720,"target":34962,"byteStride":12},{"buffer":0,"byteOffset":32112,"byteLength":720,"target":34962,"byteStride":12},{"buffer":0,"byteOffset":32832,"byteLength":480,"target":34962,"byteStride":8},{"buffer":0,"byteOffset":33312,"byteLength":432,"target":34963},{"buffer":0,"byteOffset":33744,"byteLength":3984,"target":34962,"byteStride":12},{"buffer":0,"byteOffset":37728,"byteLength":3984,"target":34962,"byteStride":12},{"buffer":0,"byteOffset":41712,"byteLength":2656,"target":34962,"byteStride":8},{"buffer":0,"byteOffset":44368,"byteLength":3744,"target":34963}],"buffers":[{"byteLength":48112,"uri":"data:application/octet-stream;base64,"}],"accessors":[{"bufferView":0,"componentType":5126,"count":816,"max":[0.46583911776542664,0.484063982963562,0.4000002145767212],"min":[-0.46576830744743347,-0.4841824769973755,-0.6000000238418579],"type":"VEC3"},{"bufferView":1,"componentType":5126,"count":816,"max":[0.9935607314109802,0.9869020581245422,1],"min":[-0.9935607314109802,-0.9869020581245422,-1],"type":"VEC3"},{"bufferView":2,"componentType":5126,"count":816,"max":[1,0.32942330837249756],"min":[-7.450580596923828e-8,0],"type":"VEC2"},{"bufferView":3,"componentType":5125,"count":1320,"max":[815],"min":[0],"type":"SCALAR"},{"bufferView":4,"componentType":5126,"count":60,"max":[0.16565552353858948,0.006237991154193878,-0.4884326159954071],"min":[0.07837482541799545,-0.08552554249763489,-0.5801961421966553],"type":"VEC3"},{"bufferView":5,"componentType":5126,"count":60,"max":[0.9809349179267883,0.933409571647644,1],"min":[-0.9809349179267883,-0.933409571647644,-1],"type":"VEC3"},{"bufferView":6,"componentType":5126,"count":60,"max":[1,0.9902249574661255],"min":[-7.450580596923828e-8,0],"type":"VEC2"},{"bufferView":7,"componentType":5125,"count":108,"max":[59],"min":[0],"type":"SCALAR"},{"bufferView":8,"componentType":5126,"count":332,"max":[0.4707269072532654,0.4707269072532654,0.2437206208705902],"min":[-0.4707268476486206,-0.4707268476486206,-0.4737527072429657],"type":"VEC3"},{"bufferView":9,"componentType":5126,"count":332,"max":[0.9684267640113831,0.9684267640113831,1],"min":[-0.9684267640113831,-0.9684267640113831,-1],"type":"VEC3"},{"bufferView":10,"componentType":5126,"count":332,"max":[0.9999999403953552,0.9902249574661255],"min":[-1.564621925354004e-7,0],"type":"VEC2"},{"bufferView":11,"componentType":5125,"count":936,"max":[331],"min":[0],"type":"SCALAR"}],"materials":[{"pbrMetallicRoughness":{"baseColorFactor":[0.3254901960784314,0.09803921568627451,0.058823529411764705,1],"metallicFactor":0,"roughnessFactor":1},"alphaMode":"BLEND","name":"BrownDark.041"},{"pbrMetallicRoughness":{"baseColorFactor":[0.7019607843137254,0.4235294117647059,0.20392156862745098,1],"metallicFactor":0,"roughnessFactor":0.5},"alphaMode":"BLEND","name":"Beige.018"},{"pbrMetallicRoughness":{"baseColorFactor":[0.4,0.47843137254901963,0.5137254901960784,1],"metallicFactor":0.20000000298023224,"roughnessFactor":0.30000001192092896},"alphaMode":"BLEND","name":"Metal.075"}],"meshes":[{"primitives":[{"mode":4,"attributes":{"POSITION":0,"NORMAL":1,"TEXCOORD_0":2},"indices":3,"material":0}]},{"primitives":[{"mode":4,"attributes":{"POSITION":4,"NORMAL":5,"TEXCOORD_0":6},"indices":7,"material":1}]},{"primitives":[{"mode":4,"attributes":{"POSITION":8,"NORMAL":9,"TEXCOORD_0":10},"indices":11,"material":2}]}]}