{"asset":{"version":"2.0","generator":"THREE.GLTFExporter"},"scenes":[{"name":"AuxScene","nodes":[1]}],"scene":0,"nodes":[{"matrix":[1,0,0,0,0,-1.3435885648505064e-7,0.9999999657714511,0,0,-0.9999999657714511,-1.3435885648505064e-7,0,0,0,0,1],"name":"bricks","extras":{"name":"bricks"},"mesh":0},{"name":"Scene","children":[0]}],"bufferViews":[{"buffer":0,"byteOffset":0,"byteLength":3576,"target":34962,"byteStride":12},{"buffer":0,"byteOffset":3576,"byteLength":3576,"target":34962,"byteStride":12},{"buffer":0,"byteOffset":7152,"byteLength":2384,"target":34962,"byteStride":8},{"buffer":0,"byteOffset":9536,"byteLength":3888,"target":34963}],"buffers":[{"byteLength":13424,"uri":"data:application/octet-stream;base64,"}],"accessors":[{"bufferView":0,"componentType":5126,"count":298,"max":[0.5999999046325684,0.5955911874771118,-0.00026047229766845703],"min":[-0.764594316482544,-0.6803410053253174,-0.79621821641922],"type":"VEC3"},{"bufferView":1,"componentType":5126,"count":298,"max":[0.9703104496002197,0.9804900288581848,0.9682112336158752],"min":[-0.971101701259613,-0.9681724309921265,-0.9803449511528015],"type":"VEC3"},{"bufferView":2,"componentType":5126,"count":298,"max":[0.8747556209564209,1],"min":[0.125,0],"type":"VEC2"},{"bufferView":3,"componentType":5125,"count":972,"max":[297],"min":[0],"type":"SCALAR"}],"materials":[{"pbrMetallicRoughness":{"baseColorFactor":[0.19215686274509805,0.22745098039215686,0.24313725490196078,1],"metallicFactor":0,"roughnessFactor":1},"alphaMode":"BLEND","name":"Stone.014"}],"meshes":[{"primitives":[{"mode":4,"attributes":{"POSITION":0,"NORMAL":1,"TEXCOORD_0":2},"indices":3,"material":0}]}]}