{"asset":{"version":"2.0","generator":"THREE.GLTFExporter"},"scenes":[{"name":"AuxScene","nodes":[3]}],"scene":0,"nodes":[{"name":"Cube013","mesh":0},{"name":"Cube013_1","mesh":1},{"matrix":[1,0,0,0,0,-1.3435885648505064e-7,0.9999999657714511,0,0,-0.9999999657714511,-1.3435885648505064e-7,0,0,0,0,1],"name":"crate","extras":{"name":"crate"},"children":[0,1]},{"name":"Scene","children":[2]}],"bufferViews":[{"buffer":0,"byteOffset":0,"byteLength":2016,"target":34962,"byteStride":12},{"buffer":0,"byteOffset":2016,"byteLength":2016,"target":34962,"byteStride":12},{"buffer":0,"byteOffset":4032,"byteLength":1344,"target":34962,"byteStride":8},{"buffer":0,"byteOffset":5376,"byteLength":1008,"target":34963},{"buffer":0,"byteOffset":6384,"byteLength":17628,"target":34962,"byteStride":12},{"buffer":0,"byteOffset":24012,"byteLength":17628,"target":34962,"byteStride":12},{"buffer":0,"byteOffset":41640,"byteLength":11752,"target":34962,"byteStride":8},{"buffer":0,"byteOffset":53392,"byteLength":13344,"target":34963}],"buffers":[{"byteLength":66736,"uri":"data:application/octet-stream;base64,"}],"accessors":[{"bufferView":0,"componentType":5126,"count":168,"max":[0.47685232758522034,0.47685131430625916,0.4768514037132263],"min":[-0.476850301027298,-0.47685131430625916,-0.476851224899292],"type":"VEC3"},{"bufferView":1,"componentType":5126,"count":168,"max":[1,1,1],"min":[-1,-1,-1],"type":"VEC3"},{"bufferView":2,"componentType":5126,"count":168,"max":[0.8251466155052185,0.949999988079071],"min":[0.17500001192092896,0.050000011920928955],"type":"VEC2"},{"bufferView":3,"componentType":5125,"count":252,"max":[167],"min":[0],"type":"SCALAR"},{"bufferView":4,"componentType":5126,"count":1469,"max":[0.5260381102561951,0.5260377526283264,0.5260377526283264],"min":[-0.5260372757911682,-0.5260376334190369,-0.5260376334190369],"type":"VEC3"},{"bufferView":5,"componentType":5126,"count":1469,"max":[1,1,1],"min":[-1,-1,-1],"type":"VEC3"},{"bufferView":6,"componentType":5126,"count":1469,"max":[1.000276803970337,1.000138521194458],"min":[-7.450580596923828e-8,-0.00013840198516845703],"type":"VEC2"},{"bufferView":7,"componentType":5125,"count":3336,"max":[1468],"min":[0],"type":"SCALAR"}],"materials":[{"pbrMetallicRoughness":{"baseColorFactor":[0.3254901960784314,0.09803921568627451,0.058823529411764705,1],"metallicFactor":0,"roughnessFactor":1},"alphaMode":"BLEND","name":"BrownDark.057"},{"pbrMetallicRoughness":{"baseColorFactor":[0.4,0.47843137254901963,0.5137254901960784,1],"metallicFactor":0.20000000298023224,"roughnessFactor":0.30000001192092896},"alphaMode":"BLEND","name":"Metal.089"}],"meshes":[{"primitives":[{"mode":4,"attributes":{"POSITION":0,"NORMAL":1,"TEXCOORD_0":2},"indices":3,"material":0}]},{"primitives":[{"mode":4,"attributes":{"POSITION":4,"NORMAL":5,"TEXCOORD_0":6},"indices":7,"material":1}]}]}