{"asset":{"version":"2.0","generator":"THREE.GLTFExporter"},"scenes":[{"name":"AuxScene","nodes":[3]}],"scene":0,"nodes":[{"name":"Cube4153","mesh":0},{"name":"Cube4153_1","mesh":1},{"matrix":[1,0,0,0,0,-1.3435885648505064e-7,0.9999999657714511,0,0,-0.9999999657714511,-1.3435885648505064e-7,0,0,0,0,1],"name":"door","extras":{"name":"door"},"children":[0,1]},{"name":"Scene","children":[2]}],"bufferViews":[{"buffer":0,"byteOffset":0,"byteLength":2472,"target":34962,"byteStride":12},{"buffer":0,"byteOffset":2472,"byteLength":2472,"target":34962,"byteStride":12},{"buffer":0,"byteOffset":4944,"byteLength":1648,"target":34962,"byteStride":8},{"buffer":0,"byteOffset":6592,"byteLength":1488,"target":34963},{"buffer":0,"byteOffset":8080,"byteLength":5112,"target":34962,"byteStride":12},{"buffer":0,"byteOffset":13192,"byteLength":5112,"target":34962,"byteStride":12},{"buffer":0,"byteOffset":18304,"byteLength":3408,"target":34962,"byteStride":8},{"buffer":0,"byteOffset":21712,"byteLength":4032,"target":34963}],"buffers":[{"byteLength":25744,"uri":"data:application/octet-stream;base64,"}],"accessors":[{"bufferView":0,"componentType":5126,"count":206,"max":[0.9921729564666748,0.0992218479514122,0.6769245862960815],"min":[-1.007617473602295,-0.10129333287477493,-1.5180197954177856],"type":"VEC3"},{"bufferView":1,"componentType":5126,"count":206,"max":[0.9998720288276672,1,1],"min":[-0.9998720288276672,-1,-1],"type":"VEC3"},{"bufferView":2,"componentType":5126,"count":206,"max":[0.8747556209564209,1],"min":[0.125,0],"type":"VEC2"},{"bufferView":3,"componentType":5125,"count":372,"max":[205],"min":[0],"type":"SCALAR"},{"bufferView":4,"componentType":5126,"count":426,"max":[0.9923825263977051,0.23565718531608582,0.98163902759552],"min":[-1.007617473602295,-0.23820701241493225,-0.36667561531066895],"type":"VEC3"},{"bufferView":5,"componentType":5126,"count":426,"max":[1,1,1],"min":[-1,-1,-1],"type":"VEC3"},{"bufferView":6,"componentType":5126,"count":426,"max":[1,1],"min":[0,0],"type":"VEC2"},{"bufferView":7,"componentType":5125,"count":1008,"max":[425],"min":[0],"type":"SCALAR"}],"materials":[{"pbrMetallicRoughness":{"baseColorFactor":[0.3254901960784314,0.09803921568627451,0.058823529411764705,1],"metallicFactor":0,"roughnessFactor":1},"alphaMode":"BLEND","name":"BrownDark.060"},{"pbrMetallicRoughness":{"baseColorFactor":[0.4,0.47843137254901963,0.5137254901960784,1],"metallicFactor":0.20000000298023224,"roughnessFactor":0.30000001192092896},"alphaMode":"BLEND","name":"Metal.093"}],"meshes":[{"primitives":[{"mode":4,"attributes":{"POSITION":0,"NORMAL":1,"TEXCOORD_0":2},"indices":3,"material":0}]},{"primitives":[{"mode":4,"attributes":{"POSITION":4,"NORMAL":5,"TEXCOORD_0":6},"indices":7,"material":1}]}]}