{"asset":{"version":"2.0","generator":"THREE.GLTFExporter"},"scenes":[{"name":"AuxScene","nodes":[3]}],"scene":0,"nodes":[{"name":"Cube4154","mesh":0},{"name":"Cube4154_1","mesh":1},{"matrix":[1,0,0,0,0,-1.3435885648505064e-7,0.9999999657714511,0,0,-0.9999999657714511,-1.3435885648505064e-7,0,0,0,0,1],"name":"door_gate","extras":{"name":"door_gate"},"children":[0,1]},{"name":"Scene","children":[2]}],"bufferViews":[{"buffer":0,"byteOffset":0,"byteLength":4824,"target":34962,"byteStride":12},{"buffer":0,"byteOffset":4824,"byteLength":4824,"target":34962,"byteStride":12},{"buffer":0,"byteOffset":9648,"byteLength":3216,"target":34962,"byteStride":8},{"buffer":0,"byteOffset":12864,"byteLength":1944,"target":34963},{"buffer":0,"byteOffset":14808,"byteLength":3888,"target":34962,"byteStride":12},{"buffer":0,"byteOffset":18696,"byteLength":3888,"target":34962,"byteStride":12},{"buffer":0,"byteOffset":22584,"byteLength":2592,"target":34962,"byteStride":8},{"buffer":0,"byteOffset":25176,"byteLength":1080,"target":34963}],"buffers":[{"byteLength":26256,"uri":"data:application/octet-stream;base64,"}],"accessors":[{"bufferView":0,"componentType":5126,"count":402,"max":[2,0.17266349494457245,1.0816302299499512],"min":[-1.2477285338263755e-7,-0.10000008344650269,-1.4583697319030762],"type":"VEC3"},{"bufferView":1,"componentType":5126,"count":402,"max":[1,1,1],"min":[-1,-1,-1],"type":"VEC3"},{"bufferView":2,"componentType":5126,"count":402,"max":[1,1],"min":[0,0],"type":"VEC2"},{"bufferView":3,"componentType":5123,"count":972,"max":[401],"min":[0],"type":"SCALAR"},{"bufferView":4,"componentType":5126,"count":324,"max":[1.899999976158142,0.07048879563808441,1.0133527517318726],"min":[0.10000013560056686,-0.0704876258969307,-1.401604413986206],"type":"VEC3"},{"bufferView":5,"componentType":5126,"count":324,"max":[1,0.8660281300544739,1],"min":[-1,-0.8660278916358948,-1],"type":"VEC3"},{"bufferView":6,"componentType":5126,"count":324,"max":[1,0.9900000095367432],"min":[-8.940696716308594e-8,0],"type":"VEC2"},{"bufferView":7,"componentType":5123,"count":540,"max":[323],"min":[0],"type":"SCALAR"}],"materials":[{"pbrMetallicRoughness":{"baseColorFactor":[0.19215686274509805,0.22745098039215686,0.24313725490196078,1],"metallicFactor":0,"roughnessFactor":1},"alphaMode":"BLEND","name":"StoneDark.003"},{"pbrMetallicRoughness":{"baseColorFactor":[0.0196078431372549,0.03137254901960784,0.03529411764705882,1],"metallicFactor":0,"roughnessFactor":0.2},"alphaMode":"BLEND","name":"Black.037"}],"meshes":[{"primitives":[{"mode":4,"attributes":{"POSITION":0,"NORMAL":1,"TEXCOORD_0":2},"indices":3,"material":0}]},{"primitives":[{"mode":4,"attributes":{"POSITION":4,"NORMAL":5,"TEXCOORD_0":6},"indices":7,"material":1}]}]}