{"asset":{"version":"2.0","generator":"THREE.GLTFExporter"},"scenes":[{"name":"AuxScene","nodes":[3]}],"scene":0,"nodes":[{"name":"Cube4204","mesh":0},{"name":"Cube4204_1","mesh":1},{"matrix":[1,0,0,0,0,-1.3435885648505064e-7,0.9999999657714511,0,0,-0.9999999657714511,-1.3435885648505064e-7,0,0,0,0,1],"name":"shield_uncommon","extras":{"name":"shield_uncommon"},"children":[0,1]},{"name":"Scene","children":[2]}],"bufferViews":[{"buffer":0,"byteOffset":0,"byteLength":6960,"target":34962,"byteStride":12},{"buffer":0,"byteOffset":6960,"byteLength":6960,"target":34962,"byteStride":12},{"buffer":0,"byteOffset":13920,"byteLength":4640,"target":34962,"byteStride":8},{"buffer":0,"byteOffset":18560,"byteLength":4176,"target":34963},{"buffer":0,"byteOffset":22736,"byteLength":600,"target":34962,"byteStride":12},{"buffer":0,"byteOffset":23336,"byteLength":600,"target":34962,"byteStride":12},{"buffer":0,"byteOffset":23936,"byteLength":400,"target":34962,"byteStride":8},{"buffer":0,"byteOffset":24336,"byteLength":336,"target":34963}],"buffers":[{"byteLength":24672,"uri":"data:application/octet-stream;base64,"}],"accessors":[{"bufferView":0,"componentType":5126,"count":580,"max":[0.37835928797721863,0.08309999108314514,0.45917877554893494],"min":[-0.37834450602531433,-0.11618304252624512,-0.3767482340335846],"type":"VEC3"},{"bufferView":1,"componentType":5126,"count":580,"max":[0.9859761595726013,1,0.9866977334022522],"min":[-0.9859762191772461,-1,-0.9307971596717834],"type":"VEC3"},{"bufferView":2,"componentType":5126,"count":580,"max":[1,1],"min":[4.470348358154297e-8,0],"type":"VEC2"},{"bufferView":3,"componentType":5125,"count":1044,"max":[579],"min":[0],"type":"SCALAR"},{"bufferView":4,"componentType":5126,"count":50,"max":[0.2829442322254181,0.025049589574337006,0.3523355722427368],"min":[-0.28283020853996277,-0.08218870311975479,-0.2784597873687744],"type":"VEC3"},{"bufferView":5,"componentType":5126,"count":50,"max":[0.5749104619026184,0.9998375177383423,0.02020201086997986],"min":[-0.5749103426933289,-0.9999685287475586,-0.016126403585076332],"type":"VEC3"},{"bufferView":6,"componentType":5126,"count":50,"max":[0.6090291738510132,0.7385116815567017],"min":[0.39296942949295044,0.025514543056488037],"type":"VEC2"},{"bufferView":7,"componentType":5125,"count":84,"max":[49],"min":[0],"type":"SCALAR"}],"materials":[{"pbrMetallicRoughness":{"baseColorFactor":[0.4,0.47843137254901963,0.5137254901960784,1],"metallicFactor":0.20000000298023224,"roughnessFactor":0.30000001192092896},"alphaMode":"BLEND","name":"Metal.099"},{"pbrMetallicRoughness":{"baseColorFactor":[0.3254901960784314,0.09803921568627451,0.058823529411764705,1],"metallicFactor":0,"roughnessFactor":1},"alphaMode":"BLEND","name":"BrownDark.069"}],"meshes":[{"primitives":[{"mode":4,"attributes":{"POSITION":0,"NORMAL":1,"TEXCOORD_0":2},"indices":3,"material":0}]},{"primitives":[{"mode":4,"attributes":{"POSITION":4,"NORMAL":5,"TEXCOORD_0":6},"indices":7,"material":1}]}]}