{"asset":{"version":"2.0","generator":"THREE.GLTFExporter"},"scenes":[{"name":"AuxScene","nodes":[3]}],"scene":0,"nodes":[{"name":"shovel_1","mesh":0},{"name":"shovel_2","mesh":1},{"matrix":[1,0,0,0,0,1,0,0,0,0,1,0,-5.551077365875244,0,-6.479334354400635,1],"name":"shovel","extras":{"name":"shovel"},"children":[0,1]},{"name":"Scene","children":[2]}],"bufferViews":[{"buffer":0,"byteOffset":0,"byteLength":1560,"target":34962,"byteStride":12},{"buffer":0,"byteOffset":1560,"byteLength":1560,"target":34962,"byteStride":12},{"buffer":0,"byteOffset":3120,"byteLength":1040,"target":34962,"byteStride":8},{"buffer":0,"byteOffset":4160,"byteLength":744,"target":34963},{"buffer":0,"byteOffset":4904,"byteLength":2040,"target":34962,"byteStride":12},{"buffer":0,"byteOffset":6944,"byteLength":2040,"target":34962,"byteStride":12},{"buffer":0,"byteOffset":8984,"byteLength":1360,"target":34962,"byteStride":8},{"buffer":0,"byteOffset":10344,"byteLength":960,"target":34963}],"buffers":[{"byteLength":11304,"uri":"data:application/octet-stream;base64,"}],"accessors":[{"bufferView":0,"componentType":5126,"count":130,"max":[-0.029468700289726257,0.036670006811618805,0.8969999551773071],"min":[-0.1913599967956543,-1.6243006610827107e-15,0.34097400307655334],"type":"VEC3"},{"bufferView":1,"componentType":5126,"count":130,"max":[1,1,1],"min":[-1,-1,-1],"type":"VEC3"},{"bufferView":2,"componentType":5126,"count":130,"max":[70.62992095947266,1.0690383911132812],"min":[-70.62992095947266,-69.62992095947266],"type":"VEC2"},{"bufferView":3,"componentType":5125,"count":186,"max":[129],"min":[0],"type":"SCALAR"},{"bufferView":4,"componentType":5126,"count":170,"max":[0.00007520616054534912,0.03681253269314766,0.34097400307655334],"min":[-0.22079998254776,-1.6243006610827107e-15,0],"type":"VEC3"},{"bufferView":5,"componentType":5126,"count":170,"max":[1,1,1],"min":[-1,-1,-1],"type":"VEC3"},{"bufferView":6,"componentType":5126,"count":170,"max":[26.848346710205078,1.0262451171875],"min":[-26.848346710205078,-25.848346710205078],"type":"VEC2"},{"bufferView":7,"componentType":5125,"count":240,"max":[169],"min":[0],"type":"SCALAR"}],"materials":[{"pbrMetallicRoughness":{"baseColorFactor":[0.3254901960784314,0.09803921568627451,0.058823529411764705,1],"metallicFactor":0,"roughnessFactor":0.4},"alphaMode":"BLEND","name":"wood.021"},{"pbrMetallicRoughness":{"baseColorFactor":[0.19215686274509805,0.22745098039215686,0.24313725490196078,1],"metallicFactor":0,"roughnessFactor":0.5},"alphaMode":"BLEND","name":"stone.003"}],"meshes":[{"primitives":[{"mode":4,"attributes":{"POSITION":0,"NORMAL":1,"TEXCOORD_0":2},"indices":3,"material":0}]},{"primitives":[{"mode":4,"attributes":{"POSITION":4,"NORMAL":5,"TEXCOORD_0":6},"indices":7,"material":1}]}]}