{"asset":{"version":"2.0","generator":"THREE.GLTFExporter"},"scenes":[{"name":"AuxScene","nodes":[4]}],"scene":0,"nodes":[{"name":"Cube4214","mesh":0},{"name":"Cube4214_1","mesh":1},{"name":"Cube4214_2","mesh":2},{"matrix":[1,0,0,0,0,-1.3435885648505064e-7,0.9999999657714511,0,0,-0.9999999657714511,-1.3435885648505064e-7,0,0,0,0,1],"name":"sword_uncommon","extras":{"name":"sword_uncommon"},"children":[0,1,2]},{"name":"Scene","children":[3]}],"bufferViews":[{"buffer":0,"byteOffset":0,"byteLength":336,"target":34962,"byteStride":12},{"buffer":0,"byteOffset":336,"byteLength":336,"target":34962,"byteStride":12},{"buffer":0,"byteOffset":672,"byteLength":224,"target":34962,"byteStride":8},{"buffer":0,"byteOffset":896,"byteLength":192,"target":34963},{"buffer":0,"byteOffset":1088,"byteLength":312,"target":34962,"byteStride":12},{"buffer":0,"byteOffset":1400,"byteLength":312,"target":34962,"byteStride":12},{"buffer":0,"byteOffset":1712,"byteLength":208,"target":34962,"byteStride":8},{"buffer":0,"byteOffset":1920,"byteLength":288,"target":34963},{"buffer":0,"byteOffset":2208,"byteLength":3888,"target":34962,"byteStride":12},{"buffer":0,"byteOffset":6096,"byteLength":3888,"target":34962,"byteStride":12},{"buffer":0,"byteOffset":9984,"byteLength":2592,"target":34962,"byteStride":8},{"buffer":0,"byteOffset":12576,"byteLength":4392,"target":34963}],"buffers":[{"byteLength":16968,"uri":"data:application/octet-stream;base64,"}],"accessors":[{"bufferView":0,"componentType":5126,"count":28,"max":[0.10319627821445465,0.03537678346037865,-0.16680264472961426],"min":[-0.10322126746177673,-0.03547464683651924,-1.3087937831878662],"type":"VEC3"},{"bufferView":1,"componentType":5126,"count":28,"max":[0.3269960284233093,0.9466019868850708,1],"min":[-0.32699620723724365,-0.9466019868850708,-0.3662624657154083],"type":"VEC3"},{"bufferView":2,"componentType":5126,"count":28,"max":[0.625,0.75],"min":[0.125,0],"type":"VEC2"},{"bufferView":3,"componentType":5125,"count":48,"max":[27],"min":[0],"type":"SCALAR"},{"bufferView":4,"componentType":5126,"count":26,"max":[0.06476689875125885,0.06522287428379059,0.12150292098522186],"min":[-0.06476828455924988,-0.06516921520233154,-0.17084385454654694],"type":"VEC3"},{"bufferView":5,"componentType":5126,"count":26,"max":[0.9977478981018066,0.9977478981018066,-0.0670754536986351],"min":[-0.9977479577064514,-0.9977478981018066,-0.40517422556877136],"type":"VEC3"},{"bufferView":6,"componentType":5126,"count":26,"max":[1,0.2502444088459015],"min":[-8.940696716308594e-8,0],"type":"VEC2"},{"bufferView":7,"componentType":5125,"count":72,"max":[25],"min":[0],"type":"SCALAR"},{"bufferView":8,"componentType":5126,"count":324,"max":[0.20503437519073486,0.09572070837020874,0.2038034200668335],"min":[-0.20513400435447693,-0.0957217812538147,-0.2655172646045685],"type":"VEC3"},{"bufferView":9,"componentType":5126,"count":324,"max":[0.9924123287200928,0.9892345666885376,0.9997074007987976],"min":[-0.9924123287200928,-0.9892345666885376,-0.9977479577064514],"type":"VEC3"},{"bufferView":10,"componentType":5126,"count":324,"max":[1,0.9902249574661255],"min":[-8.940696716308594e-8,0],"type":"VEC2"},{"bufferView":11,"componentType":5125,"count":1098,"max":[323],"min":[0],"type":"SCALAR"}],"materials":[{"pbrMetallicRoughness":{"baseColorFactor":[0.4,0.47843137254901963,0.5137254901960784,1],"metallicFactor":0.20000000298023224,"roughnessFactor":0.30000001192092896},"alphaMode":"BLEND","name":"Metal.102"},{"pbrMetallicRoughness":{"baseColorFactor":[0.3254901960784314,0.09803921568627451,0.058823529411764705,1],"metallicFactor":0,"roughnessFactor":1},"alphaMode":"BLEND","name":"BrownDark.073"},{"pbrMetallicRoughness":{"baseColorFactor":[0.19215686274509805,0.22745098039215686,0.24313725490196078,1],"metallicFactor":0,"roughnessFactor":0.5},"alphaMode":"BLEND","name":"Stone.037"}],"meshes":[{"primitives":[{"mode":4,"attributes":{"POSITION":0,"NORMAL":1,"TEXCOORD_0":2},"indices":3,"material":0}]},{"primitives":[{"mode":4,"attributes":{"POSITION":4,"NORMAL":5,"TEXCOORD_0":6},"indices":7,"material":1}]},{"primitives":[{"mode":4,"attributes":{"POSITION":8,"NORMAL":9,"TEXCOORD_0":10},"indices":11,"material":2}]}]}