{"asset":{"version":"2.0","generator":"THREE.GLTFExporter"},"scenes":[{"name":"AuxScene","nodes":[8]}],"scene":0,"nodes":[{"name":"tower_1","mesh":0},{"name":"tower_2","mesh":1},{"name":"tower_3","mesh":2},{"name":"tower_4","mesh":3},{"name":"tower_5","mesh":4},{"name":"tower_6","mesh":5},{"name":"tower_7","mesh":6},{"matrix":[1,0,0,0,0,1,0,0,0,0,1,0,-5.514912128448486,0,-1.6265724897384644,1],"name":"tower","extras":{"name":"tower"},"children":[0,1,2,3,4,5,6]},{"name":"Scene","children":[7]}],"bufferViews":[{"buffer":0,"byteOffset":0,"byteLength":17880,"target":34962,"byteStride":12},{"buffer":0,"byteOffset":17880,"byteLength":17880,"target":34962,"byteStride":12},{"buffer":0,"byteOffset":35760,"byteLength":11920,"target":34962,"byteStride":8},{"buffer":0,"byteOffset":47680,"byteLength":6768,"target":34963},{"buffer":0,"byteOffset":54448,"byteLength":1296,"target":34962,"byteStride":12},{"buffer":0,"byteOffset":55744,"byteLength":1296,"target":34962,"byteStride":12},{"buffer":0,"byteOffset":57040,"byteLength":864,"target":34962,"byteStride":8},{"buffer":0,"byteOffset":57904,"byteLength":432,"target":34963},{"buffer":0,"byteOffset":58336,"byteLength":4584,"target":34962,"byteStride":12},{"buffer":0,"byteOffset":62920,"byteLength":4584,"target":34962,"byteStride":12},{"buffer":0,"byteOffset":67504,"byteLength":3056,"target":34962,"byteStride":8},{"buffer":0,"byteOffset":70560,"byteLength":1752,"target":34963},{"buffer":0,"byteOffset":72312,"byteLength":912,"target":34962,"byteStride":12},{"buffer":0,"byteOffset":73224,"byteLength":912,"target":34962,"byteStride":12},{"buffer":0,"byteOffset":74136,"byteLength":608,"target":34962,"byteStride":8},{"buffer":0,"byteOffset":74744,"byteLength":312,"target":34963},{"buffer":0,"byteOffset":75056,"byteLength":3276,"target":34962,"byteStride":12},{"buffer":0,"byteOffset":78332,"byteLength":3276,"target":34962,"byteStride":12},{"buffer":0,"byteOffset":81608,"byteLength":2184,"target":34962,"byteStride":8},{"buffer":0,"byteOffset":83792,"byteLength":1308,"target":34963},{"buffer":0,"byteOffset":85100,"byteLength":3756,"target":34962,"byteStride":12},{"buffer":0,"byteOffset":88856,"byteLength":3756,"target":34962,"byteStride":12},{"buffer":0,"byteOffset":92612,"byteLength":2504,"target":34962,"byteStride":8},{"buffer":0,"byteOffset":95116,"byteLength":1428,"target":34963},{"buffer":0,"byteOffset":96544,"byteLength":144,"target":34962,"byteStride":12},{"buffer":0,"byteOffset":96688,"byteLength":144,"target":34962,"byteStride":12},{"buffer":0,"byteOffset":96832,"byteLength":96,"target":34962,"byteStride":8},{"buffer":0,"byteOffset":96928,"byteLength":48,"target":34963}],"buffers":[{"byteLength":96976,"uri":"data:application/octet-stream;base64,"}],"accessors":[{"bufferView":0,"componentType":5126,"count":1490,"max":[1.290602684020996,3.7149999141693115,1.6204713582992554],"min":[-2.0323894023895264,-1.4438228216156449e-15,-1.590000033378601],"type":"VEC3"},{"bufferView":1,"componentType":5126,"count":1490,"max":[1,1,1],"min":[-1,-1,-1],"type":"VEC3"},{"bufferView":2,"componentType":5126,"count":1490,"max":[159.86599731445312,126.19686889648438],"min":[-107.17859649658203,-291.5196838378906],"type":"VEC2"},{"bufferView":3,"componentType":5125,"count":1692,"max":[1489],"min":[0],"type":"SCALAR"},{"bufferView":4,"componentType":5126,"count":108,"max":[0.5935182571411133,1.3679803609848022,-0.6029481887817383],"min":[0.04084617272019386,-1.4438228216156449e-15,-0.9223886728286743],"type":"VEC3"},{"bufferView":5,"componentType":5126,"count":108,"max":[0.4938249886035919,0,-0.8695613741874695],"min":[0.4938249886035919,0,-0.8695613741874695],"type":"VEC3"},{"bufferView":6,"componentType":5126,"count":108,"max":[33.49043273925781,1],"min":[-16.734445571899414,-106.7149887084961],"type":"VEC2"},{"bufferView":7,"componentType":5125,"count":108,"max":[107],"min":[0],"type":"SCALAR"},{"bufferView":8,"componentType":5126,"count":382,"max":[0.3139140009880066,2.9830172061920166,1.2387539148330688],"min":[-0.89164799451828,1.2222505807876587,-0.5482015609741211],"type":"VEC3"},{"bufferView":9,"componentType":5126,"count":382,"max":[0.8695613741874695,1,0.8695613145828247],"min":[-0.8695613145828247,-1,-0.8628672957420349],"type":"VEC3"},{"bufferView":10,"componentType":5126,"count":382,"max":[91.0169677734375,44.16548156738281],"min":[-88.36393737792969,-233.8749237060547],"type":"VEC2"},{"bufferView":11,"componentType":5125,"count":438,"max":[381],"min":[0],"type":"SCALAR"},{"bufferView":12,"componentType":5126,"count":76,"max":[0.21301651000976562,2.9294867515563965,1.1170473098754883],"min":[-0.7932765483856201,1.274963140487671,-0.43078500032424927],"type":"VEC3"},{"bufferView":13,"componentType":5126,"count":76,"max":[0.49471068382263184,0.10354402661323547,0.8628672361373901],"min":[-0.4938249886035919,0,-0.8695613741874695],"type":"VEC3"},{"bufferView":14,"componentType":5126,"count":76,"max":[37.82697677612305,-91.09085083007812],"min":[-39.92808151245117,-229.66824340820312],"type":"VEC2"},{"bufferView":15,"componentType":5125,"count":78,"max":[75],"min":[0],"type":"SCALAR"},{"bufferView":16,"componentType":5126,"count":273,"max":[0.8155304193496704,3.2800002098083496,1.7503846883773804],"min":[-1.6676877737045288,0.10501735657453537,-1.1174918413162231],"type":"VEC3"},{"bufferView":17,"componentType":5126,"count":273,"max":[1,1,1],"min":[-1,-1,-1],"type":"VEC3"},{"bufferView":18,"componentType":5126,"count":273,"max":[140.34571838378906,88.99148559570312],"min":[-140.2494659423828,-257.2677307128906],"type":"VEC2"},{"bufferView":19,"componentType":5125,"count":327,"max":[272],"min":[0],"type":"SCALAR"},{"bufferView":20,"componentType":5126,"count":313,"max":[1.2900002002716064,1.139383316040039,1.622022032737732],"min":[-2.0323894023895264,-1.4438228216156449e-15,-1.590000033378601],"type":"VEC3"},{"bufferView":21,"componentType":5126,"count":313,"max":[0.9196786284446716,1,0.8495621085166931],"min":[-0.9787471294403076,-1,-0.9783064126968384],"type":"VEC3"},{"bufferView":22,"componentType":5126,"count":313,"max":[160.03067016601562,151.0662078857422],"min":[-157.06585693359375,-126.66447448730469],"type":"VEC2"},{"bufferView":23,"componentType":5125,"count":357,"max":[312],"min":[0],"type":"SCALAR"},{"bufferView":24,"componentType":5126,"count":12,"max":[0.3630244731903076,3.2649998664855957,1.105909824371338],"min":[-1.0047423839569092,3.2649998664855957,-0.4732321500778198],"type":"VEC3"},{"bufferView":25,"componentType":5126,"count":12,"max":[0,1,0],"min":[0,1,0],"type":"VEC3"},{"bufferView":26,"componentType":5126,"count":12,"max":[79.1203842163086,38.26237487792969],"min":[-28.569656372070312,-86.07951354980469],"type":"VEC2"},{"bufferView":27,"componentType":5125,"count":12,"max":[11],"min":[0],"type":"SCALAR"}],"materials":[{"pbrMetallicRoughness":{"baseColorFactor":[0.19215686274509805,0.22745098039215686,0.24313725490196078,1],"metallicFactor":0,"roughnessFactor":0.3},"alphaMode":"BLEND","name":"stone.006"},{"pbrMetallicRoughness":{"baseColorFactor":[0.3254901960784314,0.09803921568627451,0.058823529411764705,1],"metallicFactor":0,"roughnessFactor":1},"alphaMode":"BLEND","name":"woodDark.003"},{"pbrMetallicRoughness":{"baseColorFactor":[0,0,0,1],"metallicFactor":0,"roughnessFactor":0.5},"alphaMode":"BLEND","name":"_defaultMat.007"},{"pbrMetallicRoughness":{"baseColorFactor":[0,0,0,1],"metallicFactor":0,"roughnessFactor":1},"alphaMode":"BLEND","name":"iron.011"},{"pbrMetallicRoughness":{"baseColorFactor":[0.3254901960784314,0.09803921568627451,0.058823529411764705,1],"metallicFactor":0,"roughnessFactor":1},"alphaMode":"BLEND","name":"wood.024"},{"pbrMetallicRoughness":{"baseColorFactor":[0.19215686274509805,0.22745098039215686,0.24313725490196078,1],"metallicFactor":0,"roughnessFactor":0.5},"alphaMode":"BLEND","name":"sand.006"},{"pbrMetallicRoughness":{"baseColorFactor":[0.19215686274509805,0.22745098039215686,0.24313725490196078,1],"metallicFactor":0,"roughnessFactor":1},"alphaMode":"BLEND","name":"textile.008"}],"meshes":[{"primitives":[{"mode":4,"attributes":{"POSITION":0,"NORMAL":1,"TEXCOORD_0":2},"indices":3,"material":0}]},{"primitives":[{"mode":4,"attributes":{"POSITION":4,"NORMAL":5,"TEXCOORD_0":6},"indices":7,"material":1}]},{"primitives":[{"mode":4,"attributes":{"POSITION":8,"NORMAL":9,"TEXCOORD_0":10},"indices":11,"material":2}]},{"primitives":[{"mode":4,"attributes":{"POSITION":12,"NORMAL":13,"TEXCOORD_0":14},"indices":15,"material":3}]},{"primitives":[{"mode":4,"attributes":{"POSITION":16,"NORMAL":17,"TEXCOORD_0":18},"indices":19,"material":4}]},{"primitives":[{"mode":4,"attributes":{"POSITION":20,"NORMAL":21,"TEXCOORD_0":22},"indices":23,"material":5}]},{"primitives":[{"mode":4,"attributes":{"POSITION":24,"NORMAL":25,"TEXCOORD_0":26},"indices":27,"material":6}]}]}