{"asset":{"version":"2.0","generator":"THREE.GLTFExporter"},"scenes":[{"name":"AuxScene","nodes":[3]}],"scene":0,"nodes":[{"name":"Cube4245","mesh":0},{"name":"Cube4245_1","mesh":1},{"matrix":[1,0,0,0,0,-1.3435885648505064e-7,0.9999999657714511,0,0,-0.9999999657714511,-1.3435885648505064e-7,0,0,0,0,1],"name":"wall_broken","extras":{"name":"wall_broken"},"children":[0,1]},{"name":"Scene","children":[2]}],"bufferViews":[{"buffer":0,"byteOffset":0,"byteLength":43560,"target":34962,"byteStride":12},{"buffer":0,"byteOffset":43560,"byteLength":43560,"target":34962,"byteStride":12},{"buffer":0,"byteOffset":87120,"byteLength":29040,"target":34962,"byteStride":8},{"buffer":0,"byteOffset":116160,"byteLength":41616,"target":34963},{"buffer":0,"byteOffset":157776,"byteLength":5088,"target":34962,"byteStride":12},{"buffer":0,"byteOffset":162864,"byteLength":5088,"target":34962,"byteStride":12},{"buffer":0,"byteOffset":167952,"byteLength":3392,"target":34962,"byteStride":8},{"buffer":0,"byteOffset":171344,"byteLength":3216,"target":34963}],"buffers":[{"byteLength":174560,"uri":"data:application/octet-stream;base64,"}],"accessors":[{"bufferView":0,"componentType":5126,"count":3630,"max":[2,0.6703460216522217,-0.3992183208465576],"min":[-2,-0.6701523065567017,-3.5999999046325684],"type":"VEC3"},{"bufferView":1,"componentType":5126,"count":3630,"max":[1,1,1],"min":[-1,-1,-1],"type":"VEC3"},{"bufferView":2,"componentType":5126,"count":3630,"max":[0.8747556209564209,1],"min":[0.125,0],"type":"VEC2"},{"bufferView":3,"componentType":5125,"count":10404,"max":[3629],"min":[0],"type":"SCALAR"},{"bufferView":4,"componentType":5126,"count":424,"max":[2,0.7507327795028687,0],"min":[-2,-0.75,-4],"type":"VEC3"},{"bufferView":5,"componentType":5126,"count":424,"max":[1,0.976407527923584,1],"min":[-1,-0.976407527923584,-1],"type":"VEC3"},{"bufferView":6,"componentType":5126,"count":424,"max":[0.8747556209564209,1],"min":[0.125,0],"type":"VEC2"},{"bufferView":7,"componentType":5125,"count":804,"max":[423],"min":[0],"type":"SCALAR"}],"materials":[{"pbrMetallicRoughness":{"baseColorFactor":[0.19215686274509805,0.22745098039215686,0.24313725490196078,1],"metallicFactor":0,"roughnessFactor":1},"alphaMode":"BLEND","name":"Stone.051"},{"pbrMetallicRoughness":{"baseColorFactor":[0.09803921568627451,0.11764705882352941,0.12549019607843137,1],"metallicFactor":0,"roughnessFactor":0.5},"alphaMode":"BLEND","name":"StoneDark.012"}],"meshes":[{"primitives":[{"mode":4,"attributes":{"POSITION":0,"NORMAL":1,"TEXCOORD_0":2},"indices":3,"material":0}]},{"primitives":[{"mode":4,"attributes":{"POSITION":4,"NORMAL":5,"TEXCOORD_0":6},"indices":7,"material":1}]}]}