<?xml version="1.0" standalone="no"?>
<!DOCTYPE svg PUBLIC "-//W3C//DTD SVG 1.1//EN" "http://www.w3.org/Graphics/SVG/1.1/DTD/svg11.dtd" >
<svg xmlns="http://www.w3.org/2000/svg" xmlns:xlink="http://www.w3.org/1999/xlink" version="1.1">
<metadata>
Created by FontForge 20170731 at Mon Jun 14 11:50:59 2010
 By Aleksey,,,
Copyright (c) Typographer Mediengestaltung, 2000. All rights reserved. Full character set added by Dieter Steffmann, Kreuztal.
</metadata>
<defs>
<font id="Augusta-Regular" horiz-adv-x="972" >
  <font-face 
    font-family="Augusta"
    font-weight="400"
    font-stretch="normal"
    units-per-em="2048"
    panose-1="2 0 5 3 0 0 0 0 0 0"
    ascent="1638"
    descent="-410"
    x-height="872"
    cap-height="1311"
    bbox="-205 -469 2898 1800"
    underline-thickness="40"
    underline-position="-352"
    unicode-range="U+0020-FB02"
  />
<missing-glyph horiz-adv-x="1024" 
d="M129 0v1579h768v-1579h-768zM256 129h512v1323h-512v-1323z" />
    <glyph glyph-name=".notdef" unicode="&#x131;" horiz-adv-x="1024" 
d="M129 0v1579h768v-1579h-768zM256 129h512v1323h-512v-1323z" />
    <glyph glyph-name=".notdef" unicode="&#xfffd;" horiz-adv-x="1024" 
d="M129 0v1579h768v-1579h-768zM256 129h512v1323h-512v-1323z" />
    <glyph glyph-name=".notdef" unicode="&#x2044;" horiz-adv-x="1024" 
d="M129 0v1579h768v-1579h-768zM256 129h512v1323h-512v-1323z" />
    <glyph glyph-name=".null" horiz-adv-x="0" 
 />
    <glyph glyph-name="nonmarkingreturn" horiz-adv-x="682" 
 />
    <glyph glyph-name="space" unicode=" " horiz-adv-x="768" 
 />
    <glyph glyph-name="exclam" unicode="!" horiz-adv-x="299" 
d="M258 1151q0 -70 -20 -193q-21 -118 -21 -190q0 -171 -16 -272q-4 -26 -41 -117q-77 67 -107 135q-24 64 -24 178q0 76 24 236q4 30 27 159q0 12 22 105q1 5 5 18t12.5 38.5t15.5 49.5q123 0 123 -147zM272 147q0 -38 -57 -92q-55 -55 -92 -55q-30 0 -45 57q-12 40 -12 78
q0 113 98 113q44 0 76 -29t32 -72z" />
    <glyph glyph-name="quotedbl" unicode="&#x22;" horiz-adv-x="534" 
d="M477 1083q0 -59 -162 -245q-34 -41 -59 -66h-33v25l76 239q40 131 90 131q30 0 56.5 -26t31.5 -58zM266 1085q0 -35 -96 -163q-29 -38 -125 -146h-33v23q13 26 76 241q38 129 90 129q33 0 60.5 -26t27.5 -58z" />
    <glyph glyph-name="numbersign" unicode="#" horiz-adv-x="1005" 
d="M971 887q0 -30 -66 -96q-32 -33 -76 -33l-86 10l-41 -276q14 0 127 12l58 6q26 0 26 -18q0 -32 -65 -97q-34 -33 -76 -33l-84 11q-22 -261 -22 -367q0 -16 -19 -16q-31 0 -55 8l-27 2l-22 -2l-31 -6q-20 0 -20 16q0 21 8 37q30 64 63 297l6 43q-17 0 -81.5 2t-81.5 2h-58
q-24 -237 -24 -383q0 -16 -19 -16q-31 0 -55 8l-27 2l-22 -2l-31 -6q-20 0 -20 16q0 18 8 37q30 76 63 295l6 41l-51 -6q-4 -1 -18 -3.5t-23 -4.5q-51 -13 -74 -13q-28 0 -28 25q0 46 55 98q32 29 62 29q3 0 19.5 -1.5l27.5 -2.5l51 -4l43 280q-3 -1 -31.5 -6t-54.5 -10
q-62 -10 -84 -10q-31 0 -31 22q0 46 55 98q35 32 62 29l100 -8q31 220 31 356q0 29 18 29l29 -4l29 -2q3 0 49 4l29 4q20 0 20 -20q0 -8 -12 -46q-31 -84 -76 -329l131 -2l92 2q33 220 33 364q0 29 18 29l27 -4l29 -2q4 -2 51 4l29 4q20 0 20 -20q-9 -48 -41 -170l-45 -183
l-2 -18q14 0 121 10l57 6q27 0 27 -18zM633 778q-4 0 -86 4q-58 7 -84 4l-57 -2q-15 -77 -46 -295l134 -2h94z" />
    <glyph glyph-name="dollar" unicode="$" horiz-adv-x="983" 
d="M741 526q0 -103 -43 -196q-54 -117 -145 -117q-57 0 -57 -63v-121h-2q-16 6 -25 6q-14 0 -37 -8q-6 6 -6 8v137q0 68 -86 68q-61 0 -115 -31q0 12 -8 43q-6 33 -6 43q0 98 80 98q33 0 98 -6q86 -4 98 -4q129 0 129 176q0 137 -98 137q-31 0 -184 -75q-59 -29 -137 -35
q-19 -2 -33 29t-14 77q0 150 61 281q69 150 186 213q39 20 39 84v123h4q22 0 43 8l4 2v-158q0 -125 138 -125q20 0 37 8q-16 -50 -68 -108q-51 -57 -100 -57q-16 0 -50 18q-55 29 -86 29q-45 0 -74.5 -39t-29.5 -90q-3 -136 117 -136q37 0 110 25q71 27 105 27
q80 0 123 -101q32 -74 32 -170z" />
    <glyph glyph-name="percent" unicode="%" horiz-adv-x="1609" 
d="M1430 1454l-1065 -1444l-134 -10l912 1235q-112 -37 -217 -37q-118 0 -246 51q10 -58 10 -100q0 -220 -149 -418q-115 -151 -209 -151q-74 0 -117 106q-33 82 -33 172q0 101 82 250l84 154q31 100 55 100q9 0 51 -10.5t50 -10.5q12 0 50 14.5t46 14.5q198 -72 369 -72
q163 0 338 156h123zM1335 547q0 -84 -16 -150q-33 -122 -131 -252q-115 -145 -207 -145q-76 0 -117 102q-30 78 -30 170q0 103 79 246l86 154q35 96 54 96q11 0 49.5 -8t50.5 -8t50 8t46 8q86 0 86 -221zM1206 444q0 53 -20 109q-28 76 -66 76q-72 0 -125 -203
q-8 -27 -8 -90q0 -160 68 -160q83 0 147 240q4 20 4 28zM555 1032q0 52 -18 111q-25 76 -66 76q-75 0 -127 -205q-8 -28 -8 -88q0 -162 70 -162q88 0 147 240q2 6 2 28z" />
    <glyph glyph-name="ampersand" unicode="&#x26;" horiz-adv-x="1357" 
d="M1149 25q-26 7 -39 8q-10 2 -66 -8q-39 -9 -57 -9q-37 0 -41 4q-34 60 -67 60v-80q4 12 4 18q0 31 -43 31q7 7 10 17q-7 -8 -64 -39q-25 -11 -34 -11q-56 0 -99 2q-15 1 -50 3t-48 2q-19 0 -84 -3.5t-84 -3.5q-184 0 -184 332q0 276 215 445q45 32 45 75q0 29 -14 56
q-70 144 -80 170q-31 81 -31 163q0 48 20.5 81.5t49.5 33.5v82q-9 0 -9 -10q0 -13 9 -31q-19 -18 -19 -31q0 -7 17 -10l16 -2q34 -6 76 -10q39 -4 90 2q64 6 92 6q46 0 81.5 -52t35.5 -116q0 -160 -117 -278q-29 -24 -29 -58q0 -17 11 -41q69 -134 178 -288q20 -28 59 -19
q38 8 53 113q4 36 4 41q0 1 -22 80q-16 0 -16 -15q54 -30 81 -127q23 -78 23 -157q0 -8 -10 -60q-8 -41 -8 -67q1 -14 14 -62q31 -46 131 -237zM702 1186q0 151 -108 151q-80 0 -80 -116q0 -123 100 -242q88 123 88 207zM774 297q0 18 -10 35q-76 127 -180 344
q-22 45 -66 45q-28 0 -43 -31l-55 -102q-31 -61 -31 -111q0 -133 27 -186q52 -107 198 -107q48 0 91 21q69 32 69 92z" />
    <glyph glyph-name="quotesingle" unicode="'" horiz-adv-x="299" 
d="M266 1079q0 -38 -96 -166q-77 -101 -125 -143h-33v23q13 26 76 241q38 129 90 129q36 0 62 -24.5t26 -59.5z" />
    <glyph glyph-name="parenleft" unicode="(" horiz-adv-x="368" 
d="M383 -131l-92 123q-262 432 -262 696q0 395 157 711q55 109 121 188q-163 -280 -155 -678l2 -118l8 -105q27 -355 137 -616z" />
    <glyph glyph-name="parenright" unicode=")" horiz-adv-x="419" 
d="M348 688q0 -145 -86 -364q-76 -196 -176 -332l-86 -123v14l78 187q49 120 92 280q31 127 45 336l8 111l2 116q6 298 -96 560q-25 60 -59 114q155 -167 231 -493q47 -202 47 -406z" />
    <glyph glyph-name="asterisk" unicode="*" horiz-adv-x="679" 
d="M635 1202q0 -22 -21 -22l-47 10l-30 4q-94 0 -97 -45q0 -21 37 -49t62 -31q45 -9 45 -29q0 -13 -31 -32l-39 -25l-35 -39q-21 -24 -39 -24q-13 0 -16 8l-8 49q-6 32 -25 67q-24 46 -49 46q-52 0 -74 -125q-9 -50 -28 -50q-18 0 -39 27q-16 16 -56 47q-45 41 -45 49
q0 15 47 31q94 34 103 84q0 19 -41 31q-35 10 -55 10q-1 0 -66 -10l-22 -4q-19 0 -19 18q0 12 10 39q35 127 54 127q11 0 43 -41q42 -55 112 -55q25 0 25 59q0 50 -45 109q-4 4 -8 16q0 26 32 23l27 -2l41 -3h14q27 0 31 3l29 2q28 3 28 -25l-26 -47q-27 -44 -27 -78
q0 -55 35 -55q65 0 98 55q23 38 39 41q23 0 35 -55q38 -100 41 -109z" />
    <glyph glyph-name="plus" unicode="+" horiz-adv-x="866" 
d="M823 729q0 -11 -22 -41q-62 -71 -76 -121q-12 -43 -33 -43q-7 0 -47 29q-22 16 -88 16h-51v-82q0 -69 2 -71q0 -25 33 -64q6 -6 8 -14q0 -14 -41 -29q-64 -21 -123 -80q-24 -24 -39 -24q-22 0 -22 24q0 20 12 64q12 47 12 59q6 59 6 133v84q-101 0 -141 -4
q-61 -9 -133 -61q-15 -7 -17 -8q-18 0 -18 16q0 11 45 152q29 90 43 90q7 -4 62 -29q36 -4 71 -4h88v104q0 49 -30 123q0 16 90 62l110 57q34 16 39 16q17 0 17 -18q0 -13 -15 -29q-44 -47 -53 -137q-6 -58 -6 -178h88q101 0 178 22l27 9q24 0 24 -23z" />
    <glyph glyph-name="comma" unicode="," horiz-adv-x="360" 
d="M258 25q0 -31 -84 -91q-4 -3 -106 -77h-29v20l67 154q28 63 78 63q31 0 52.5 -22t21.5 -47z" />
    <glyph glyph-name="hyphen" unicode="-" horiz-adv-x="747" 
d="M670 805l-2 -23l-6 -18q-11 -73 -72 -139q-68 -78 -131 -78h-13l-61 12q-2 1 -8.5 4t-11.5 4q-81 45 -107 45q-22 0 -70 17q-48 16 -71 16q-38 0 -41 -27q15 65 78 127q64 64 127 64h14l88 -16l72 -29l57 -19l16 -2q36 0 58 21q11 4 47 47z" />
    <glyph glyph-name="period" unicode="." horiz-adv-x="299" 
d="M233 147q0 -38 -57 -92q-55 -55 -92 -55q-30 0 -45 57q-12 41 -12 78q0 113 98 113q44 0 76 -29t32 -72z" />
    <glyph glyph-name="slash" unicode="/" horiz-adv-x="339" 
d="M319 1061q-66 -204 -86 -426q-3 -36 -8 -110t-8 -111q-15 -124 -55 -226q-48 -119 -117 -213l-45 -49q27 62 102 273q35 134 35 239q49 490 182 623z" />
    <glyph glyph-name="zero" unicode="0" horiz-adv-x="1110" 
d="M1012 618q0 -167 -150 -382q-158 -236 -315 -236h-84q-140 0 -295 180q-168 192 -168 395v134q0 112 86 264q78 135 172 223q124 115 234 115h55q177 0 330 -219q135 -201 135 -392v-82zM836 414v153l-56 174q-19 69 -100 156q-18 31 -84 90q-107 92 -217 92
q-98 0 -161.5 -66t-63.5 -165v-70q0 -140 147 -346q158 -215 289 -215h84q4 8 33 23l51 26q16 18 51 105q16 36 27 43z" />
    <glyph glyph-name="one" unicode="1" horiz-adv-x="538" 
d="M487 135h-90q-36 0 -139 -65l-106 -70h-74v29q102 62 102 223v735q0 72 -71 72l-56 -6l-33 -6q-14 0 -20 12q0 20 88 78l264 174q23 0 64 -68q22 -41 22 -67v-881q0 -59 33 -98q16 -24 16 -37v-25z" />
    <glyph glyph-name="two" unicode="2" horiz-adv-x="1038" 
d="M944 348q0 -74 -119 -211q-115 -137 -186 -137q-19 0 -119 47q-97 49 -139 49h-111q-40 0 -104 -24q-66 -23 -84 -23q-39 0 -39 33q0 30 137 164q147 143 262 282q140 170 140 297q0 102 -82 172q-65 56 -111 56h-110q-48 0 -111 -60l-133 -127q-21 0 -29 8l-6 33
q0 163 111 283q110 121 270 121q172 0 278 -119q111 -120 111 -291q0 -135 -108 -283l-259 -278l347 -104q30 0 75 47l97 98q15 0 18 -8z" />
    <glyph glyph-name="three" unicode="3" horiz-adv-x="1054" 
d="M961 502q0 -212 -187 -369q-61 -52 -115 -78q-106 -55 -180 -55h-129q-110 0 -221 111q-129 129 -129 311q0 51 37 51h213v-43l-6 -2q-17 -12 -17 -47v-66q0 -84 86 -149q86 -64 174 -64q129 0 211 93q68 74 68 135v71q0 64 -68 134q-67 67 -133 67h-123l-2 23l2 12
q20 17 31 29q24 18 94 82q62 54 62 104v86q0 59 -86 115q-77 51 -142 51q-83 0 -122 -41l-93 -90q-25 8 -28 37q0 103 121 215q95 86 208 86q122 0 226 -84q102 -85 102 -203q0 -66 -39 -119l-51 -74q55 -36 139 -100q97 -99 97 -229z" />
    <glyph glyph-name="four" unicode="4" horiz-adv-x="1091" 
d="M989 578q0 -35 -22 -99q-31 -82 -84 -82h-35v-184q0 -7 20.5 -36.5t20.5 -41.5q0 -23 -70 -26q-86 -8 -108 -23l-78 -57q-47 -29 -92 -29q-35 0 -35 29q1 3 53 53q53 47 53 111v198h-612v37q52 79 111 350q50 228 145 324q42 73 279 209v-49l-37 -121q-38 -120 -109 -260
q-88 -172 -182 -254l192 -2q7 -7 199 -7q13 14 16 62q4 86 4 156v331l109 66l121 78v-676q0 -35 33 -35q18 0 30 6h78v-28z" />
    <glyph glyph-name="five" unicode="5" horiz-adv-x="901" 
d="M819 520q0 -280 -301 -454q-117 -66 -190 -66q-107 0 -213 82q-115 89 -115 190v111q18 11 43 8l178 -8v-35l-14 -41q-3 -3 -6 -16q0 -52 53 -111q65 -71 137 -71q133 0 215 124q64 95 64 173v129q0 71 -64 141q-82 94 -207 94q-67 0 -213 -86l-2 616l6 9l23 2
q10 0 78 -35q65 -35 100 -35h80q41 0 90 21l123 49q24 0 27 -11l2 -18q0 -68 -142 -152q-129 -75 -211 -75l-47 6h-34l-7 -49l-6 -35q0 -14 13 -14l86 24q40 10 57 10h78q112 0 219 -131q100 -122 100 -239v-107z" />
    <glyph glyph-name="six" unicode="6" horiz-adv-x="1028" 
d="M934 461q0 -198 -189 -340q-160 -121 -299 -121q-156 0 -288 135q-158 164 -158 404v211q37 204 176 370q158 191 348 191h86l101 -43q104 -47 104 -70l-57 -78q-60 -78 -66 -78q-29 33 -65 60q-79 59 -140 59h-63q-112 0 -203 -145q-80 -130 -80 -250v-86
q23 -159 154 -293q139 -145 291 -145q99 0 176 71q80 71 80 168q0 73 -62 144q-80 92 -200 92q-50 0 -95 -39q-47 -39 -47 -84q0 -62 33 -86q16 -13 16 -27q-12 -26 -41 -26q-48 0 -90 63q-39 59 -39 107v55q0 86 76 168q90 100 217 100q164 0 258 -149q66 -104 66 -189
v-149z" />
    <glyph glyph-name="seven" unicode="7" horiz-adv-x="1011" 
d="M920 1262q0 -31 -134 -218q-181 -252 -245 -356q-135 -224 -135 -350q0 -85 43 -125q19 -19 81 -35q49 -12 52 -31q0 -2 -17 -43q-53 -104 -159 -104q-43 0 -87 27q-122 68 -122 213q0 191 180 426l117 143q107 130 116 158h-65l-49 2l-41 4l-117 57q-113 55 -156 55
q-67 0 -106 -65q-6 -11 -33 -49q-1 -1 -5 -6.5t-9 -10.5q-15 0 -23 15l-6 41q0 71 78 178q89 117 188 117h64q12 0 139 -56q102 -45 141 -51h82q38 0 82 35q91 75 109 78q26 0 32 -17z" />
    <glyph glyph-name="eight" unicode="8" horiz-adv-x="1011" 
d="M920 442q0 -158 -168 -303q-162 -139 -324 -139q-128 0 -278 129q-150 128 -150 254v115q0 85 70 168q48 55 131 116q-25 32 -49 70l-31 45q-12 38 -12 92q0 150 129 246q100 76 190 76h100q86 0 199 -88q113 -89 113 -170v-70q0 -56 -74 -127l-74 -57l160 -148
q68 -89 68 -209zM698 954q0 84 -141 172q-120 76 -209 76q-35 0 -62.5 -32.5t-27.5 -71.5q0 -89 252 -209q5 -3 15 -7.5t28 -12.5t33 -15q2 -2 14 -6q30 0 64 37q34 40 34 69zM750 334q0 101 -187 233q-139 100 -305 158q-108 -83 -108 -156q0 -134 149 -262
q150 -129 287 -129q68 0 116 45t48 111z" />
    <glyph glyph-name="nine" unicode="9" horiz-adv-x="1105" 
d="M1006 709q0 -179 -101 -347q-92 -161 -246 -268q-131 -94 -227 -94h-84q-88 0 -170 52t-135 136l-43 68q0 20 84 41q73 20 109 20q49 0 118 -112q70 -113 121 -113q103 0 201 101q117 119 117 311v375q0 104 -58 217q-70 137 -160 137h-86q-71 0 -131 -72
q-59 -71 -59 -141v-121q0 -130 43 -229q59 -140 170 -140q58 0 92 48q33 32 33 81q0 15 -16 58l-39 90q0 22 22 22h21q39 0 71 -75q27 -61 27 -109q0 -142 -123 -244q-90 -75 -168 -75h-78q-74 0 -168 112q-106 125 -106 285v92q0 199 156 354q138 142 262 142h112
q190 0 322 -215q117 -188 117 -387z" />
    <glyph glyph-name="colon" unicode=":" horiz-adv-x="299" 
d="M254 758q0 -40 -55 -94q-56 -56 -95 -56q-29 0 -45 58q-12 39 -12 77q0 49 27.5 81t70.5 32q47 0 78 -29.5t31 -68.5zM233 147q0 -38 -57 -92q-55 -55 -92 -55q-30 0 -45 57q-12 41 -12 78q0 113 98 113q44 0 76 -29t32 -72z" />
    <glyph glyph-name="semicolon" unicode=";" horiz-adv-x="299" 
d="M317 758q0 -38 -57 -94q-56 -56 -92 -56q-20 0 -38.5 43t-18.5 92q0 113 98 113q43 0 75.5 -28.5t32.5 -69.5zM279 115q3 -34 -99 -160q-90 -111 -125 -145h-32v22q19 39 77 238q37 131 88 131q31 0 61 -28t30 -58z" />
    <glyph glyph-name="less" unicode="&#x3c;" horiz-adv-x="1208" 
d="M936 180l-848 357v61l848 338v-98l-674 -260v-25l674 -274v-99z" />
    <glyph glyph-name="equal" unicode="=" horiz-adv-x="866" 
d="M823 879q0 -19 -22 -41q-56 -56 -76 -121q-15 -41 -33 -41q-20 0 -47 26q-21 22 -82 19l-88 -2h-106q-98 0 -148 -4q-75 -9 -133 -58q-13 -11 -25 -14q-18 0 -18 19q0 1 1 5t4 13t5 18l35 113q29 90 43 90q5 0 19 -6q26 -19 53 -25l319 -2q191 -3 246 25l29 6
q24 0 24 -20zM823 580q0 -17 -22 -39q-59 -59 -76 -121q-12 -43 -33 -43q-14 0 -47 26q-20 19 -170 19h-106q-37 0 -185 -12q-44 -10 -100 -54q-4 -4 -21 -10q-18 0 -18 19q0 1 1 5t4 13t5 18l35 113q29 90 43 90q67 -28 72 -31l319 -2q192 -3 246 25l29 6q24 0 24 -22z" />
    <glyph glyph-name="greater" unicode="&#x3e;" horiz-adv-x="1200" 
d="M1014 537l-850 -357v99l676 274v25l-676 260v98l850 -338v-61z" />
    <glyph glyph-name="question" unicode="?" horiz-adv-x="817" 
d="M770 901q0 -135 -108 -283l-259 -278l-4 14q99 168 123 226q60 135 60 245q0 102 -82 172q-65 56 -111 56h-110q-48 0 -111 -60l-133 -127q-21 0 -29 8l-6 33q0 163 111 283q110 121 270 121q172 0 278 -119q111 -120 111 -291zM502 141q0 -40 -58 -92q-55 -53 -94 -53
q-30 0 -45 53q-12 41 -12 78q0 113 98 113q44 0 77.5 -29t33.5 -70z" />
    <glyph glyph-name="at" unicode="@" horiz-adv-x="1165" 
d="M1130 860q0 -351 -227 -459q-49 -22 -61 -20l-15 2l-75 4q9 0 9 -0.5t-7 -1.5q-42 -4 -72 -4h-12q-27 0 -27 14q0 11 25 60q7 25 10 73q0 1 4 134l2 118q3 80 -2 117q-12 84 -64 84q-54 0 -86 -78q-40 -103 -40 -229q0 -148 79 -148q19 0 39 4l8 2q17 0 17 -34
q0 -125 -113 -125q-100 0 -149 84q-41 71 -41 176q0 194 112 325q84 99 177 99h20q12 0 50.5 -5t49.5 -5q6 0 39 5t37 5l21 2q26 0 26 -25q0 -18 -14 -59q-14 -49 -19 -64q0 -84 -2 -102q-8 -101 -8 -195q0 -143 53 -143q55 0 87 121q20 73 20 160q0 202 -107 354
q-118 172 -311 172q-186 0 -280 -154q-80 -124 -80 -323q0 -431 340 -604q86 -45 147 -45q35 0 127 38q14 7 25 7q26 0 26 -27q0 -29 -94 -92q-132 -88 -203 -88q-138 0 -280 127q-244 224 -244 594q0 358 197 555q114 114 178 114q30 0 88 -12t90 -12q38 0 105 14
q75 16 104 16q79 0 172 -106q149 -168 149 -420z" />
    <glyph glyph-name="A" unicode="A" horiz-adv-x="1255" 
d="M635 1188l-227 -156l-99 58q-72 40 -135 40q-100 0 -100 -92q0 -27 8 -47l10 -45q0 -31 -8 -39l-29 -4q-46 0 -55 62q0 111 117 225q93 93 129 96h76q32 0 133 -49l100 -49l18 14q2 1 10.5 6t16.5 9q13 -4 16 -7zM1249 174q-14 -45 -75 -113q-26 -28 -74 -61
q-154 67 -154 205v166l-8 4q-2 0 -4 2q-6 9 -6 26l-6 39v31q3 20 6 23h-21q-39 -19 -71 -56l-76 -88l-115 58q-121 59 -194 59q-36 0 -64 -37q-7 -13 -37 -35q-22 6 -28 35q0 25 90 115q105 102 157 102l332 -104l6 233q-15 83 -61 187q-58 137 -117 137q-25 0 -102 -86
q-119 -132 -189 -262l-88 -166q-59 -115 -59 -223v-185l-29 -90q-27 -90 -78 -90q-22 0 -41 12q-11 20 -14 37q0 10 41 84q17 29 23 60q0 5 -82 112q-82 105 -82 197q0 131 86 233q90 107 282 238l500 338h31v-25l-15 -14l-6 -17q88 -65 146 -165q59 -103 59 -205v-70
q0 -47 6 -65l12 -25q5 -38 5 -45v-86q0 -10 -5 -25l13 -16l8 -16v-62q0 -132 14 -184q22 -86 84 -86v-31z" />
    <glyph glyph-name="B" unicode="B" horiz-adv-x="1480" 
d="M1475 559q0 -155 -191 -358q-192 -201 -344 -201h-53q-64 0 -158 47l-186 96q-97 50 -172 50h-62q-64 0 -98 -72q-32 -72 -51 -72q-31 0 -35 4q-14 11 -14 56q0 63 71 116q21 10 133 80q71 44 74 78l8 170q0 22 -8 35l2 65l10 27q-12 15 -12 27v12q-3 17 -6 22
q-9 21 -53 31q-39 9 -56 29v37q97 0 187 51l190 106h17v-41q-47 -46 -56 -106v-350q0 -19 29 -56q11 -14 14 -28q0 -11 -43 -35q-54 -30 -59 -33h90q50 0 154 -55l229 -121h68q40 0 110 76q88 89 88 184q0 90 -137 178q-129 84 -221 84q-82 0 -119 -43q-10 -10 -43 -78
q-18 -43 -55 -43q-16 0 -29.5 14t-13.5 27q0 70 180 207q123 91 240 158q-31 76 -78 123q-62 65 -123 65h-86q-48 0 -180 -69l-246 -127q-134 -70 -199 -70h-86q-31 0 -63.5 33.5t-32.5 64.5q0 32 55 41q30 0 39 -41q9 -39 58 -39q62 0 219 105l280 188q63 44 166 78
q69 25 137 25q108 0 197 -68q50 -37 109 -125q42 -64 79 -67l4 -21l-4 -22q0 -27 -45 -47q-122 -61 -141 -80l233 -144q89 -79 89 -178z" />
    <glyph glyph-name="C" unicode="C" horiz-adv-x="1099" 
d="M1094 354q0 -56 -93 -151q-79 -82 -141 -121q-131 -82 -282 -82q-160 0 -297 100q-125 91 -209 236q-72 126 -72 211v131q0 116 90 256q74 116 189 203q229 174 397 174q52 0 168 -29l125 -33q25 22 86 56q30 -17 30 -31q0 -12 -71 -127q-82 -129 -86 -141
q-60 -117 -60 -185v-71h-49l-10 55q0 6 6 12l4 4q0 60 10 90l21 58q0 17 -123 82q-137 73 -231 73q-140 0 -242 -110q-100 -109 -100 -250q0 -147 102 -279q89 -117 233 -190q129 -66 207 -66h86q74 0 176 84l103 84q14 0 22 -14q8 -4 11 -29z" />
    <glyph glyph-name="D" unicode="D" horiz-adv-x="1300" 
d="M1294 655q0 -77 -41 -202q-39 -121 -90 -193q-51 -74 -151 -154q-137 -106 -242 -106h-53q-100 0 -182 76l-154 141q-84 78 -170 78q-65 0 -98 -49q-12 -17 -35 -88q-15 -49 -49 -49q-14 0 -23 12l-6 35q0 69 76 127l137 108q76 58 76 144v120q0 168 -94 181
q-34 3 -37 24l4 14q8 9 24 9h56q66 0 141 37l164 77q15 0 18 -24q-7 -12 -30 -37q-23 -21 -23 -53v-330q0 -23 14 -43q3 -5 10.5 -14t10.5 -15q0 -7 -58 -28q-65 -29 -92 -64l29 -2l74 -2q70 -3 131 -55l121 -105q63 -57 133 -57q112 0 209 139q90 128 90 246v53
q0 157 -99 283q-104 139 -256 139h-221l-71 -12l-99 -12h-162q-66 0 -122 34q-64 40 -64 105q0 55 35 110q33 58 86 58q11 0 20 -23q16 -55 86 -55l170 20l131 9h224q180 0 317 -146q135 -144 135 -328v-133z" />
    <glyph glyph-name="E" unicode="E" horiz-adv-x="1060" 
d="M1069 1243q0 -76 -92 -153q-93 -78 -170 -78q-54 0 -152 39q-106 41 -141 41h-119q-72 0 -168 -93q-106 -100 -106 -223v-108q0 -53 43 -80q0 76 55 149q55 76 127 76h90l76 -16q27 -6 57 -6q74 0 109 83h39v-43q0 -63 -55 -153q-58 -96 -121 -96h-62q-23 0 -65 14
q-50 16 -74 16q-51 0 -92 -30t-41 -72q0 -38 82 -111q53 -48 114 -88q101 -61 203 -61h185q71 0 122 55l113 119q19 0 27 -14l2 -39q6 -108 -152 -240q-155 -131 -266 -131h-123q-59 0 -129 33q-128 59 -240 198q-145 186 -145 357v86q0 89 61 223q53 120 121 201
q52 59 162 125q140 88 238 88h77q27 0 129 -41q104 -42 134 -45q40 0 84 47q14 17 30 20q19 0 25 -12z" />
    <glyph glyph-name="F" unicode="F" horiz-adv-x="1069" 
d="M1069 1262q-6 -16 -78 -129q-53 -88 -102 -156h-35l-2 22v21l2 24q1 20 -22 39t-72 39q-91 35 -135 35q-129 0 -129 -51v-457h16l123 96q48 39 119 39h174q13 -3 30 -16l7 -8l-74 -123q-73 -123 -88 -123q-25 0 -31 33q-12 71 -104 71q-37 0 -103 -34q-63 -34 -63 -70
v-291q0 -87 18 -121l41 -71l-8 -11q-19 -11 -41 -14l-39 10l-41 9h-76l-39 -11l-15 -4q-16 -5 -30 -10h-30v70l20 55l10 22v689l-10 4q-7 7 -10 24v223q-95 39 -182 80q-70 34 -70 74q0 24 25 27q101 -68 233 -68q65 0 221 55q156 56 226 56h92q60 0 108 -17l90 -32l37 24
l21 -8z" />
    <glyph glyph-name="G" unicode="G" horiz-adv-x="1304" 
d="M1298 528l-12 -55q-33 -145 -258 -313q-214 -160 -350 -160h-117l-49 8q-102 17 -225 109q-287 218 -287 495q0 82 53 209q57 129 113 191q161 181 446 270q97 29 121 29h98q59 0 148 -39l92 -41q9 0 27 21.5t22 21.5q43 -14 43 -37l-98 -133q-98 -131 -98 -150
q0 -11 37 -20q115 -28 178 -82q42 -40 73 -88q43 -64 43 -102v-134zM1096 422v80q0 67 -78 174q-67 91 -119 106l-16 -24l-9 -23h-43l-16 15v47l16 18v19l-40 12l-25 6h-61l-39 -31q-29 -21 -29 -63q0 -35 33 -62l14 -12q23 23 57 27q25 0 25 -37q0 -20 -29 -47
q-55 -44 -82 -82l-73 -109q-21 -23 -37 -26l-27 4l-6 10l6 14q-6 6 -6 13l8 26q-14 8 -45 60l-35 57v98q42 86 68 121q54 72 145 107q54 19 150 32q81 14 102 35v25l-131 53q-134 55 -205 55h-61q-114 0 -227 -127q-115 -127 -115 -239q0 -187 223 -383q211 -187 393 -187
h74q73 0 156 82q84 86 84 156z" />
    <glyph glyph-name="H" unicode="H" horiz-adv-x="1269" 
d="M1264 358q0 -99 -78 -159l-35 -25l-35 -27q21 -52 78 -75q44 -20 47 -41q0 -30 -65 -39q-72 0 -144 96q-59 83 -59 203v282q0 102 -86 183q-83 82 -187 82q-64 0 -176 -56q-123 -62 -123 -116v-519q0 -21 21 -53l41 -63q0 -18 -10 -21l-29 -4l-39 8l-53 17h-105
q-21 0 -47 -15l-33 -16l-20 8q-13 10 -16 29q1 3 4.5 9t3.5 7q24 30 49 94v902q0 61 -84 127t-84 81l4 29q8 8 33 8q10 -4 47 -18t57 -23q62 -26 105 -26h69l390 82h20l78 -2h78q69 0 151 -64q84 -63 84 -127q0 -28 -12 -49q-11 -11 -45 -14q-25 0 -158 77q-132 78 -192 78
h-50q-16 0 -118 -22q-23 -6 -127 -39v-340l155 98q83 37 176 37q227 0 383 -176q136 -149 136 -315v-93z" />
    <glyph glyph-name="I" unicode="I" horiz-adv-x="1005" 
d="M999 1274l-65 -92q-31 -46 -31 -105v-577l10 -29q11 -20 9 -33l-2 -28l-7 -33q-36 -201 -280 -330q-91 -47 -137 -47h-136q-61 0 -186 82q-128 84 -145 84l-19 8q-7 7 -10 21q45 41 135 112q131 107 152 107q27 0 30 -31q-13 -10 -36 -53q0 -39 75 -129q91 -109 174 -109
q45 0 97 47q57 51 57 129v547q0 87 -39 109l-78 47q29 33 66 47q77 27 86 49l10 10h14q47 0 62 64l-172 -82q-60 -29 -152 -29h-121l-249 80q-17 0 -39 -16q-1 -1 -7 -4t-12 -7q-2 -2 -10 -6q-9 3 -14 8q-17 11 -17 31q12 20 19 27q1 2 63 74q79 91 94 94l127 -45
q133 -47 181 -47h176q52 0 135 30l164 62q28 0 28 -37z" />
    <glyph glyph-name="J" unicode="J" horiz-adv-x="1019" 
d="M1014 1151q-14 -17 -56 -51q-57 -46 -57 -111v-706l33 -123q31 -118 31 -160l-23 -80q-91 -235 -405 -235q-170 0 -267 77l-69 86q-70 86 -70 152v129q0 79 57 182l109 199q59 109 59 186q0 38 -34 78q-35 44 -35 47q0 17 37 35l45 -27q45 -39 45 -79v-93q0 -53 -58 -153
q-2 -5 -71 -137l-15.5 -31t-19.5 -41q-57 -123 -57 -240q0 -112 98 -200q80 -76 158 -76h55q78 0 151 55q82 57 82 133v62q-59 101 -59 217v418l8 51q6 39 6 116q0 34 -53 60q-51 23 -51 39q0 6 90 61q40 27 104 64q-11 20 -84 37l-65 12h-105l-96 -14q-114 -17 -131 -17
h-57q-87 0 -158 41q-86 47 -86 127l4 39q7 10 25 10q13 0 41 -76q27 -73 139 -73q39 0 141 43q16 3 70 28q12 8 119 54q106 43 192 43q71 0 166 -39q117 -46 117 -119z" />
    <glyph glyph-name="K" unicode="K" horiz-adv-x="1261" 
d="M1274 1255q-9 -21 -37 -30h-86q-37 0 -53 -35l41 -39q18 -24 18 -78q0 -115 -145 -192l-183 -95l103 -106q28 -45 92 -234l61 -184q28 -55 105 -67q65 -14 65 -29q0 -14 -104 -90l-102 -76q-25 0 -48 23l-26 26q-85 85 -119 158l-39 158q-50 200 -143 301q-26 25 -60 28
l-28 -2q-64 -12 -99 -41v-475q0 -32 33 -88q33 -53 33 -63q0 -25 -35 -25l-67 20q-14 9 -54 9q-50 0 -92 -11l-49 -12l-25 4q-12 9 -12 33l27 63q28 72 28 82v867q0 57 -71 86q-52 13 -131 37q-72 21 -72 71q0 16 6 25l23 8q-1 0 1.5 -2t7.5 -5.5t14 -9t20 -12.5
q47 -28 88 -28q225 86 334 86l73 -13q72 -12 72 -55v-24q-82 0 -117 -33t-35 -113v-336h41q201 105 308 248l168 225q76 101 190 101q80 0 80 -56z" />
    <glyph glyph-name="L" unicode="L" horiz-adv-x="1198" 
d="M1192 43q0 -43 -49 -43l-221 31h-469q-89 0 -136 -6l-92 -13h-131l-6 -4l-14 -6q-11 4 -13 8l-4 27q0 33 39 39q39 9 56 18v897q0 59 -39 92q-22 22 -74 43q-39 16 -39 27q0 25 82 43l176 39l164 47q27 7 54.5 15t38.5 11t13 3h164q24 -6 82 -25q86 -30 86 -69
q0 -37 -45 -37l-94 41q-44 20 -100 20q-238 0 -238 -250v-872h25q42 16 170 98q103 66 200 66q62 0 119 -37l94 -64l8 60l5 96q3 50 20 127q4 24 4 31v63q0 54 -41 113v37h35q112 -112 108 -232l-2 -231q0 -48 43 -140q21 -36 21 -63z" />
    <glyph glyph-name="M" unicode="M" horiz-adv-x="1789" 
d="M1784 535q0 -127 -123 -318q-132 -205 -252 -205h-70q-13 0 -61 31l-47 31l-31 -13l-18 -6q-31 16 -31 37l104 109q107 109 117 112q22 0 25 -41q3 -66 10 -77q15 -41 72 -41q74 0 129 79q53 75 53 148q0 80 -125 254q-118 162 -236 289l-131 141l-178 -168v-682
q0 -64 21 -100l47 -66v-37h-21q-24 0 -77 11q-17 6 -31 6h-74l-55 -17l-43 -6q-9 0 -21 4q-15 3 -18 19l43 69q20 33 20 70v811q0 14 -49 59q-44 47 -61 52q-28 0 -135 -123q-98 -111 -125 -154q-47 -69 -80 -151q-41 -103 -41 -164v-185l35 -172v-71q0 -21 -16.5 -45.5
t-33.5 -24.5q-46 0 -55 49l12 45l7 35q0 14 -62 47q-178 99 -178 242v51l3 23q3 24 7 43q48 184 303 383l84 65l150 123l98 88q35 30 80 88l33 29q77 -45 114 -82q119 -98 119 -195h19q24 20 129 162q73 102 147 102l158 -172l192 -221q148 -167 148 -309v-61zM602 1225
l-24 -29l-91 -78l-65 -65q-8 -8 -23 -19q-4 -4 -10 -6q-90 90 -199 90q-61 0 -108 -41q-33 -37 -33 -67v-105h-43q-9 9 -16 23l-4 39q0 111 82 219q81 112 190 112h86q20 0 72 -24l102 -49q10 5 19 16q14 14 34 14q31 0 31 -30z" />
    <glyph glyph-name="N" unicode="N" horiz-adv-x="1196" 
d="M1190 475q0 -45 -29 -115q-25 -59 -63 -92l-54 -18q-29 -9 -32 -31q0 -62 75 -113q75 -46 78 -63l-14 -20q-15 -23 -53 -23q-60 0 -119 74q-66 84 -66 188v404q0 131 -84 272q-97 166 -225 166q-45 0 -221 -152v-776q0 -70 63 -133l-14 -16q-3 -6 -16 -9l-129 31h-54
q-5 0 -43 -12l-55 -19q-28 0 -37 37q1 4 10 18t13 21l26 27l5 14l2 17l-2 28l2 21l12 24v604h-12l2 39l2 31l-4 35h12q0 45 -19 84q-21 49 -61 49q-7 0 -61 -18l-21 4l-4 32q0 15 76 76l186 150q41 -20 80 -88l55 -150l312 232q283 -77 409 -394l33 -118l18 -45
q21 -46 21 -89v-184z" />
    <glyph glyph-name="O" unicode="O" horiz-adv-x="1124" 
d="M1112 643q0 -94 -70 -231q-80 -165 -186 -271q-138 -141 -285 -141q-225 0 -399 193q-172 193 -172 419q0 56 12 111q1 5 31 96q4 15 21 65.5t26 78.5q73 120 182 225q135 123 252 123h103q69 0 164 -60q134 -85 227 -223q94 -137 94 -270v-115zM975 451v155
q-76 216 -180 316l-101 94q-102 96 -207 96h-102q-67 0 -143 -88q-74 -89 -74 -158v-157q0 -71 78 -199q121 -195 262 -277q86 -47 135 -47h68q106 0 194 131q17 25 70 134z" />
    <glyph glyph-name="P" unicode="P" horiz-adv-x="1536" 
d="M1530 741q0 -149 -115 -338q-94 -157 -231 -278q-144 -125 -254 -125q-83 0 -135 33l-144 86v-254q0 -74 19 -113l47 -61q-6 -22 -39 -31l-55 18l-84 7q-21 3 -56 -11l-55 -20q-39 0 -39 49l25 53q14 29 14 47v443h-72q-46 -39 -67 -111q-6 -22 -31 -22q-39 0 -39 39
q0 97 96 147l113 57v316q0 98 -82 110q-39 0 -39 33q0 19 17 31q69 21 108 41q1 1 26 11.5t52 23.5q31 14 125 77q64 43 86 43t22 -26l-59 -94q-19 -31 -27 -68v-498l347 -161l49 -2q113 -5 188 133q64 115 64 237v109q0 178 -154 323q-136 127 -244 127h-137
q-33 0 -152 -55l-237 -111q-118 -53 -193 -53q-72 0 -125 29q-63 32 -63 104q0 56 57 68l23 -10l26 -17v-86l35 -20q7 -1 20.5 -2.5t16.5 -1.5q65 0 197 88q152 100 276 166q166 90 307 90h82q202 0 353 -174q137 -156 137 -328v-68z" />
    <glyph glyph-name="Q" unicode="Q" horiz-adv-x="1218" 
d="M1212 690q0 -105 -53 -223l-119 -195l29 -39q32 -40 45 -40h37l23 2l2 -23l-25 -25q-29 -29 -80 -67l-104 -80q-20 24 -35 61q-29 59 -45 62q-157 -123 -326 -123q-108 0 -188 74l-148 135q-80 74 -121 74h-61l-25 -9q-18 0 -18 27q0 10 35 33q47 30 65 51q35 41 35 94
v369q0 30 -49 70q-4 3 -37 34q-1 0 -5 6t-7 9q0 17 82 39q55 16 98 38l49 52l72 67q193 148 340 148h55q48 -7 90 -21q146 -54 281 -237q40 -54 61 -103q47 -108 47 -207v-53zM1022 455v229q-55 230 -141 301l-138 115q-74 51 -145 51h-70q-69 0 -172 -80v-479q0 -50 15 -88
l28 -62q0 -16 -100 -47l-102 -30l28 -9l31 4l45 5q86 0 172 -62l121 -113q66 -61 115 -61q22 0 57 14l57 29v21l-61 32q-13 8 -49 8h-21q-12 0 -41 -6l-6 21l-10 10q23 35 72.5 60.5t93.5 25.5h80q8 0 24 -4l41 -21h27z" />
    <glyph glyph-name="R" unicode="R" horiz-adv-x="1419" 
d="M1413 180l-2 -12q0 -18 -25 -33l-77 -53q-11 -7 -27 -25l-45 -45q-8 -11 -31 -26q-1 -1 -3 -2t-3 -2q-83 0 -147 161q-16 39 -92 312q-47 163 -89 163q-26 0 -63 -75q-38 -74 -59 -74q-22 0 -31 18q-3 22 -19 37q95 101 97 103q52 55 116 100l156 104q60 36 64 58
q0 66 -56 137q-71 92 -190 92q-113 0 -252 -59q-34 -16 -254 -115q-138 -63 -207 -63q-62 0 -113 32q-61 37 -61 93q0 41 43 47q26 0 47 -49q22 -48 92 -48q71 0 221 93l275 170q151 92 295 92q97 0 186 -62q94 -59 133 -147l35 -76l33 -10q33 -6 33 -47q-80 -93 -314 -211
q9 -25 25 -41l39 -45q115 -439 166 -471l30 -4l41 4h31zM672 975l-43 -53q-29 -35 -29 -78v-361q0 -51 -12 -92l4 -26l2 -58v-78q-4 -32 -4 -41l-2 -69l37 -43q16 -21 34 -56l-12 -12q-13 -8 -29 -8q-17 0 -43 4q-54 27 -96 27q-21 0 -49 -8l-76 -21q-43 0 -43 35q0 7 25 41
q24 33 24 55v582q0 48 -51 76q-48 25 -53 34q0 14 80 41q64 23 100 35q159 92 203 92z" />
    <glyph glyph-name="S" unicode="S" horiz-adv-x="1183" 
d="M1176 475q0 -82 -56 -186q-69 -134 -192 -211.5t-269 -77.5h-129q-330 0 -501 287l-13 20q-16 30 -16 41v62q0 66 51 114.5t119 48.5q42 0 88 -24q53 -29 53 -68v-18q-123 0 -123 -105q0 -126 131 -208q114 -72 248 -72q139 0 252 94q115 97 115 231q0 108 -80 197
q-78 90 -182 90q-75 0 -131 -35q-66 -40 -66 -112h-18q-170 0 -295 106q-133 115 -133 279q0 148 125 264q125 119 272 119q114 0 236 -49l272 -111q44 0 80 39q39 40 47 43l16 -10q15 -9 15 -27q0 -89 -97 -184q-74 -74 -166 -74q-80 0 -178 55l-188 111q-103 59 -164 59
q-62 0 -110 -41.5t-48 -97.5q0 -94 111 -170q101 -74 199 -74h170q36 55 149 88q42 11 66 11q194 0 307 -224q33 -65 33 -106v-74z" />
    <glyph glyph-name="T" unicode="T" horiz-adv-x="1323" 
d="M1317 1237q-12 -16 -27 -31q-62 -59 -174 -188q-60 -86 -108 -189q-19 -38 -45 -38q-34 0 -43 36l79 172l-120 7q-73 3 -138 12l-75 20q-49 21 -72 21q-52 0 -148 -105q-108 -122 -108 -243v-99q0 -96 68 -192q56 -85 147 -141q126 -78 293 -78q75 0 164 55q88 55 100 55
q23 0 29 -12l6 -29q0 -62 -123 -159q-138 -111 -268 -111h-117q-160 0 -328 150t-168 309v141l9 66q45 201 321 419l-106 25q-77 16 -113 16q-76 0 -121 -51q-30 -37 -55 -96q-23 -56 -39 -59q-22 0 -31 12l-6 41q0 115 127 227q126 111 246 111h166l497 -103l154 41l78 25
q46 0 49 -37z" />
    <glyph glyph-name="U" unicode="U" horiz-adv-x="1228" 
d="M1225 170q0 -28 -117 -98l-121 -72q-27 0 -90 84q-59 83 -59 129h-19q-19 -8 -211 -152q-82 -61 -104 -61q-15 0 -98 51q-279 166 -279 391v353l12 6l6 24v170q0 52 -24.5 71t-83.5 19q-37 0 -37 37q0 21 92 99q94 77 115 77q54 -25 86 -57q85 -85 88 -215l2 -53v-84
l-2 -15l-8 -12l-8 -6h12l-10 -22l-11 -89v-247q0 -141 205 -279q64 -43 76 -43q68 43 100 68q98 69 101 90l-2 241l-13 -6v492q0 105 -20 139l-45 82q0 23 18 23h15l67 -19l76 -18l70 22l75 21q14 0 28 -8t15 -21q-67 -52 -67 -203v-739q0 -101 106 -137q35 -10 64 -10v-23z
" />
    <glyph glyph-name="V" unicode="V" horiz-adv-x="1155" 
d="M1149 895l-6 -57q-15 -141 -236 -410l-172 -211l-86 -115l-24 -59q-25 -43 -66 -43q-33 0 -45 51q-3 14 -63 232l-37 86l-82 202l-60 134l-73 155l-78 148q-18 33 -27 36l-24 5l-27 -2q-37 -4 -43 30q0 32 150 129l149 99q25 0 25 -31q0 -3 -14 -33t-15 -39l389 -919
q48 32 154 202q116 188 116 265v92q0 64 -53 153q-61 105 -131 105q-25 0 -39 -15q-38 -26 -57 -26q-25 0 -25 41q0 18 51 53l99 68l55 61q20 26 47 29q84 0 166 -119q82 -116 82 -205v-92z" />
    <glyph glyph-name="W" unicode="W" horiz-adv-x="1617" 
d="M1610 868q0 -148 -125 -295l-234 -274q-125 -146 -125 -276l-8 -13l-10 -10h-61l-35 137q-26 97 -66 168q-67 125 -110 242q-23 53 -39 53q-15 0 -29 -20l-158 -224q-51 -74 -63 -127q-24 -100 -74 -229h-59q-44 209 -144 338q-27 34 -67 76q-68 68 -113 131l-45 106
q-38 97 -45 140v100q15 155 150 289q134 131 292 131q72 0 172 -82q90 -71 93 -99q-50 -37 -134 -79l-135 -70l-12 6q-12 12 -12 31q4 12 8 16q20 21 20 37q0 42 -49 76q-49 33 -94 33q-60 0 -103.5 -46t-43.5 -106v-94q0 -99 79 -191l158 -182q91 -102 115 -184h16
q23 66 123 178q86 98 88 115l-18 18l-29 31q-28 31 -61 65l-5 6q-6 7 -12 13q14 14 23 20q13 13 65 45l90 60q14 -8 45 -39q21 -27 64 -58l74 60l32 18l11 -8l12 -20q20 -21 20 -33l-1 -1.5t-2.5 -4t-8 -9l-16.5 -16.5q-62 -39 -62 -57l52 -82l100 -170q40 -67 70 -150
q36 10 139 144q112 144 112 235v101q0 67 -57 153q-58 92 -117 92l-28 -12l-21 -6q-15 0 -26 20l-9 27q0 20 121 105l117 81q38 0 121 -143q84 -147 84 -192v-95z" />
    <glyph glyph-name="X" unicode="X" horiz-adv-x="1505" 
d="M1499 176l-51 -35q-71 -49 -123 -80l-104 -61h-62q-83 0 -168 96q-54 61 -135 213l-115 211q-15 -6 -129 -178q-128 -191 -147 -215q-112 -127 -205 -127h-47q-29 0 -115 49q-98 56 -98 96q0 14 96 93l97 77h32v-36q0 -103 99 -103q71 0 149 96l62 99l83 123
q66 100 66 118l-66 127l-83 148l-86 129q-52 76 -144 76q-35 0 -90 -21l-55 -20q-25 0 -25 41q0 14 74 67l221 152q96 0 211 -164q60 -96 66 -107l108 -192q29 27 92 133l140 209q79 108 137 108q22 0 92 -34q75 -37 96 -39q21 0 49 22q18 21 31 21q29 -10 35 -35
q-17 -47 -57 -113q-68 -112 -148 -112q-27 0 -80 26q-50 27 -84 27q-46 0 -102 -68l-45 -71l-49 -74q-54 -82 -54 -90l39 -74l82 -147q53 -97 72 -119l123 -154q89 -71 200 -71h115v-17z" />
    <glyph glyph-name="Y" unicode="Y" horiz-adv-x="1271" 
d="M1266 940q0 -100 -142 -348l-186 -326l-182 -323l-56 -80q-11 -13 -90 -92q-100 -93 -168 -93h-110q-21 0 -86 19q-74 21 -74 49l68 107l71 108l33 -61q34 -64 143 -64q84 0 156 84q12 16 49 80q-163 59 -260 236l-94 305l-53 196q-36 130 -74 240l-55 98q-22 22 -56 25
q-18 0 -43 -11.5t-26 -11.5q-22 9 -31 35q0 17 111 107q113 89 137 92q91 0 155 -154q31 -68 105 -354q68 -252 125 -395q18 -47 43 -105q58 -104 127 -104l20 30q9 14 58 95q93 152 104 176q2 8 59 118q60 117 60 205q0 52 -53 113q-123 132 -123 158v88q0 38 49 84
q53 45 92 45h49q36 0 80 -33q43 -31 43 -66q0 -28 -6 -36t-29 -13l-8 37q-6 28 -29 31q-20 0 -34 -14q-17 -23 -17 -35q0 -7 74 -78q74 -68 74 -113v-51z" />
    <glyph glyph-name="Z" unicode="Z" horiz-adv-x="1243" 
d="M1237 295q0 -53 -72 -131q-56 -62 -118 -101q-100 -63 -224 -63h-65q-54 0 -158 37l-211 74h-76q-77 0 -168 -50q-87 -49 -90 -49q-18 0 -35 11l-20 32l547 572l-6 12q-42 9 -105 -33q-49 -31 -80 -78h-37v25q0 37 93 131q110 115 215 115h57q4 3 9 7t5 5q25 21 41 37
l142 158l59 57q33 26 33 51l-254 -78q-105 -32 -184 -32h-164q-156 0 -203 139h-21l-90 -99q-25 -28 -39 -28q-32 0 -32 37q0 56 94 149q112 109 221 109h123q33 0 244 -70q113 -35 180 -35h63q61 0 164 43q101 43 113 43l18 -10l25 -33l-424 -454l129 -136l-76 -65
q-44 -39 -117 -131h-18l-25 100q-3 27 -55 39l-373 -393l11 -6l139 55q137 55 229 55h107q126 0 203 -73q20 -21 49 -72q58 6 112 90q53 86 72 86q43 0 43 -49z" />
    <glyph glyph-name="bracketleft" unicode="[" horiz-adv-x="739" 
d="M584 -424h-430v1796h430v-61h-275v-1673h275v-62z" />
    <glyph glyph-name="backslash" unicode="\" horiz-adv-x="665" 
d="M606 1249q-33 -61 -119 -170q-86 82 -131 82h-75q0 -316 -7 -981q0 -64 58 -149q0 -13 -8 -21l-19 -10q-123 28 -149 25q-66 -25 -86 -25q-27 0 -27 25q0 12 23 47q22 38 22 47v512q-21 0 -41.5 -18.5t-21.5 -18.5q-25 9 -25 31q0 31 33 96q34 69 55 84v162
q0 104 113 223q113 121 217 121h51q22 0 76 -17q58 -18 61 -45z" />
    <glyph glyph-name="bracketright" unicode="]" horiz-adv-x="739" 
d="M582 -424h-430v62h264v1673h-264v61h430v-1796z" />
    <glyph glyph-name="asciicircum" unicode="^" horiz-adv-x="763" 
d="M604 1049h-51l-180 182h-19l-178 -182h-59l225 292h39z" />
    <glyph glyph-name="underscore" unicode="_" horiz-adv-x="1159" 
d="M1014 -414h-1014v92h1014v-92z" />
    <glyph glyph-name="grave" unicode="`" 
d="M555 946h-129l-209 252h219z" />
    <glyph glyph-name="a" unicode="a" 
d="M883 131l-90 -61l-86 -54q-1 -1 -7 -4t-10 -6q-38 0 -72 43l-73 94l-111 -71q-106 -69 -121 -72q-95 0 -194 96q-119 116 -119 281q0 149 156 315q167 180 340 180q25 0 104 -49q79 -48 109 -51q44 0 118 62h25v-25l-82 -113q-37 -50 -37 -133v-280q0 -82 74 -115
q73 -24 76 -37zM633 608q-8 8 -31 8q-10 0 -22 -4l-17 -4q-44 0 -123 62q-72 63 -102 63q-73 0 -113 -69q-37 -60 -37 -136l-6 -22l-6 -29q0 -86 90 -205q72 -90 160 -90q41 0 72 15l41 16v250l26 39l68 125v-19z" />
    <glyph glyph-name="b" unicode="b" horiz-adv-x="911" 
d="M827 508q0 -133 -194 -301l-146 -105q-146 -102 -174 -102q-103 0 -186 147q-29 51 -57 148v745q0 31 -47 84q-20 23 -23 43l131 72q121 68 143 72l33 -4q12 -6 12 -21q-61 -47 -61 -127v-414q47 9 145 64q111 63 154 63q77 3 172 -114q98 -113 98 -193v-57zM639 371v100
q0 73 -82 162q-82 88 -156 88q-63 0 -133 -70v-307q0 -47 64 -117q63 -69 106 -69q53 0 127 78q74 80 74 135z" />
    <glyph glyph-name="c" unicode="c" horiz-adv-x="761" 
d="M692 242q0 -89 -119 -168q-110 -74 -202 -74q-173 0 -283 143q-88 113 -88 213v146q0 122 121 246q120 124 244 124q41 0 114 -28l70 -29h51q13 3 21 8q19 15 38 19q33 0 33 -27q0 -25 -61 -92q-62 -68 -125 -68q-59 0 -174 50q-59 26 -92 26q-60 0 -107 -59
q-32 -44 -35 -72v-68q0 -88 109 -200q112 -109 201 -109h79q49 0 84 31l82 68h39v-80z" />
    <glyph glyph-name="d" unicode="d" horiz-adv-x="937" 
d="M852 1286l-31 -35q-30 -33 -30 -77v-1012q10 -29 24 -66l25 -65q0 -31 -25 -31q-8 3 -37 16q-25 15 -63 15q-34 0 -47 -8l-56 -17q-16 0 -24 14l-4 35l4 37l-4 35q-177 -127 -260 -127q-106 0 -215 113q-109 114 -109 219v119q0 152 250 346q93 75 139 75h86l37 -10
q41 -18 66 -33l16 19v199q0 56 -33 79q-32 24 -35 41l133 72q123 66 156 72q34 0 37 -25zM588 264v338q-139 139 -232 139q-88 0 -144 -67t-56 -166v-31l-13 -14q105 -270 277 -270h55q29 0 62 20z" />
    <glyph glyph-name="e" unicode="e" horiz-adv-x="786" 
d="M717 690q0 -23 -101 -84l-194 -119l-127 -73q-119 -70 -119 -76q37 -49 64 -68q81 -69 186 -69q78 0 143 47l103 102q13 0 20 -10l6 -33q0 -93 -108 -201q-107 -106 -201 -106h-88q-98 0 -199 125q-102 128 -102 225v170q0 110 111 230q113 122 221 122h65q36 0 174 -81
q143 -82 146 -101zM477 608q-60 29 -145 135q-27 33 -68 33q-51 0 -90 -45l-61 -113v-122q1 0 14 -32t31 -50q3 5 108 69z" />
    <glyph glyph-name="f" unicode="f" horiz-adv-x="665" 
d="M606 1249l-47 -75q-37 -60 -72 -95l-59 51q-46 31 -72 31h-75v-332q9 -9 36 -6l48 2l53 4q55 3 82 21l55 49l25 -25l6 -12q-39 -84 -60 -112q-76 -113 -127 -113h-125v-457q0 -61 29 -106l29 -43q0 -13 -8 -21l-19 -10l-65 16l-27 9h-57l-33 -13q-21 -12 -53 -12
q-24 0 -27 25q0 19 31 59q11 19 14 35v512q-38 0 -41 -19q-3 -18 -22 -18q-22 9 -25 31q0 34 31 92q28 52 57 88v162q0 104 113 223q113 121 217 121h51l68 -15q66 -15 69 -47z" />
    <glyph glyph-name="g" unicode="g" horiz-adv-x="917" 
d="M836 88q0 -134 -179 -272q-169 -133 -313 -133h-55q-85 0 -195 67q-94 58 -94 92l86 66l115 78q18 -98 106 -150q65 -39 123 -39q68 0 148 66q75 63 75 133v61l-14 58l-29 92q-163 -207 -309 -207q-123 0 -213 96q-88 98 -88 226v61q0 236 297 420q112 69 172 69h66
l90 -18l69 -18q14 3 56 18l47 18l14 -10q16 -16 16 -26l-59 -105q-29 -56 -29 -92v-86q0 -15 47 -172l50 -156v-137zM647 688q-74 -41 -127 -41q-42 0 -106 27q-62 26 -92 26q-59 0 -99 -67q-37 -60 -37 -119q0 -115 58 -207q70 -114 141 -114h64q44 25 59 40q57 45 57 80
q0 11 -12 52q-12 39 -12 49v55q0 42 39 121q39 86 67 98z" />
    <glyph glyph-name="h" unicode="h" horiz-adv-x="913" 
d="M817 354q0 -163 -119 -327q-81 -114 -219 -222q-159 -124 -276 -124h-76q-18 0 -27 12l-12 26q0 18 64 33q179 44 303 162q57 54 106 168q47 112 47 197v69q0 68 -53 201q-59 147 -117 147l-45 -22q-71 -34 -153 -99v-423q0 -29 22 -76l23 -51q0 -15 -11 -21l-22 -4
l-41 12q-44 13 -90 13l-39 -7q-30 -3 -45 -18h-37v49l33 47q10 35 10 56v925q0 20 -39 49q-12 16 -12 27l137 80l156 78q32 0 32 -29l-53 -70q-24 -30 -24 -65l-2 -74q-3 -38 -9 -59l11 -289q3 -35 -11 -47h23q38 8 180 102q135 94 146 94q10 0 67 -57q172 -175 172 -381
v-82z" />
    <glyph glyph-name="i" unicode="i" horiz-adv-x="438" 
d="M377 1145q0 -37 -58 -119q-54 -80 -92 -80q-22 0 -41 82q-16 78 -16 105q0 49 27.5 80.5t70.5 31.5q44 0 76.5 -29t32.5 -71zM397 0h-319v27l33 65q18 38 18 78v467q0 68 -84 68q-19 0 -45 32q31 31 119 78l108 57q44 0 76 -81l35 -80v-568q0 -42 20 -73l39 -50v-20z" />
    <glyph glyph-name="j" unicode="j" horiz-adv-x="446" 
d="M397 1143q0 -41 -104 -115l-133 -94h-35v27l84 190q36 82 96 82q32 0 62 -29t30 -61zM377 -182q0 -30 -35 -80q-89 -127 -231 -127h-80q-12 0 -27 12q-4 4 -4 10l-2 13q0 20 16 20q14 0 37 -10l21 -10q129 68 129 133v57q-5 8 -13 25q-21 52 -34 73q-19 39 -19 66v600
q0 69 -65 84l-70 14v19q6 23 117 88l116 67q86 0 101 -176q6 -70 6 -192v-410q0 -86 16 -145l21 -72v-59z" />
    <glyph glyph-name="k" unicode="k" horiz-adv-x="907" 
d="M823 109q0 -30 -82 -70l-86 -41q-62 0 -100 96l-74 193q-40 102 -84 102q-52 0 -133 -74v-188q0 -22 21 -53q22 -36 22 -43v-25h-55l-51 23l-43 8q-1 0 -13 -3l-20 -5l-64 -29h-24v43l37 92l14 47v844q0 15 -45 59q-28 31 -43 50q0 17 29 26q80 28 147 82q1 1 15 9t26 16
q66 37 78 37q19 -8 22 -11q15 -5 15 -20q-68 -41 -68 -152v-460h31q36 30 139 96q139 86 184 86q37 0 37 -31q0 -15 -10 -18q-10 -18 -10 -27l37 -59q14 -21 14 -66q0 -49 -59 -90q-60 -42 -60 -49q76 -46 119 -213q13 -45 43 -117q35 -41 94 -41v-24zM510 594l-14 27
q-17 22 -17 71h-20l-189 -125v-145q51 16 138 72q99 65 102 100z" />
    <glyph glyph-name="l" unicode="l" horiz-adv-x="370" 
d="M336 1286l-35 -41q-35 -41 -35 -80v-962q0 -101 33 -140q16 -22 16 -38t-8 -21l-22 -4q-2 1 -5 1.5t-7.5 1t-8.5 1.5q-62 33 -94 33q-28 0 -66 -12l-73 -25h-25v45q19 19 33 61q16 50 16 70v877q0 38 -37 65q-15 12 -18 27q56 39 131 84q137 82 174 82l19 -8z" />
    <glyph glyph-name="m" unicode="m" horiz-adv-x="1509" 
d="M1372 94q-37 -37 -78 -61l-80 -49q-42 0 -100 67q-56 71 -53 115l8 153l6 275q0 34 -39 76q-37 43 -69 43q-16 -11 -27 -13q-20 -14 -68 -41q-81 -47 -81 -65v-461l18 -47l33 -66q-8 -8 -21 -8l-8 4l-4 4q-45 0 -74 9l-26 8l-35 -6q-35 -8 -68 -25h-37v25l21 82l10 77
v396q0 43 -36 83t-77 40q-37 -18 -73 -45q-71 -50 -74 -78v-434q0 -55 22 -91q21 -20 21 -34q0 -15 -6 -21l-17 -6l-61 25q-30 12 -59 12q-7 0 -47 -17q-38 -14 -54 -14q-33 0 -33 25l27 57q10 38 10 96v422q0 32 -24.5 62t-55.5 34l-32 -4l-23 -6l-8 10q0 34 94 101l99 69
q31 0 96 -96l51 -92l260 188q54 0 125 -90l72 -92l278 189q70 -37 125 -101q70 -76 70 -139v-367q0 -95 22 -131q9 -19 45 -22q7 0 27 -4q8 -8 8 -21z" />
    <glyph glyph-name="n" unicode="n" horiz-adv-x="1046" 
d="M952 102q0 -15 -82 -63l-82 -47q-18 0 -79 49q-74 61 -74 100v406q0 64 -33 96q-13 20 -82 68l-190 -111v-473q0 -62 20 -76q12 -12 12 -31v-20h-47l-16 10q-41 21 -90 21q-34 0 -94 -31h-27l-2 20l2 11q0 1 3 11t8 26t12 34l22 70v453q0 51 -61 82l-72 36q0 7 86 72
q3 3 33 25l51 32q57 0 102 -79l64 -113l307 184q71 -27 133 -104q68 -83 68 -154v-358q0 -79 28 -109q14 -13 52 -16q28 -3 28 -21z" />
    <glyph glyph-name="o" unicode="o" horiz-adv-x="864" 
d="M786 438q0 -176 -153 -317q-133 -121 -244 -121q-168 0 -291 147q-98 118 -98 207v84q0 124 117 275q126 159 243 159h72q106 0 223 -120q131 -134 131 -314zM666 287v86l-54 90q-148 250 -338 250q-94 0 -141 -105q-12 -27 -12 -65q0 -122 137 -250q139 -127 260 -127
q51 0 84 35z" />
    <glyph glyph-name="p" unicode="p" horiz-adv-x="954" 
d="M864 438q0 -129 -127 -280q-132 -158 -260 -158h-53l-59 29q-16 9 -66 28v-288l8 -25l31 -39v-45h-33l-59 21q-7 4 -29 8l-33 4q-4 0 -49 -10q-41 -11 -51 -11h-35v41q19 11 27 23q33 33 33 114v259q-14 0 -29 -9l-49 -22l-8 20l6 6q3 53 41 78q39 32 39 47v381
q0 57 -29 76q-20 14 -80 14v39l88 64q85 61 105 61q29 0 57 -43l67 -112l263 163q88 -36 178 -135q106 -119 106 -248v-51zM731 373q0 205 -194 313q-55 31 -68 31l-14 -12q-42 -36 -117 -68l-4 -150h-10l2 -32l2 -66l-4 -65v-33q121 -38 217 -139h77l76 84q37 56 37 137z
" />
    <glyph glyph-name="q" unicode="q" horiz-adv-x="944" 
d="M858 -319l-16 -5l-13 2q-8 3 -41 3q-3 1 -10 4.5t-12 5.5q-19 8 -55 8q-49 0 -80 -14l-45 -19q-25 0 -25 33q0 4 21.5 40t21.5 56v332q-26 -3 -115 -66q-82 -61 -151 -61q-130 0 -244 135q-94 113 -94 213v78q0 107 92 219q76 96 187 160q112 67 178 67h78q28 0 73 -24
l92 -47q1 1 5 3.5t6 4.5q22 27 71 74h33l-2 -1088q0 -51 45 -96v-18zM651 432l-12 6v27l12 14l-12 13v114q0 58 -92 111q-83 47 -146 47q-62 0 -129 -53q-61 -52 -61 -117v-102q0 -71 65 -160q85 -115 213 -115q43 0 78 16l72 35v164h12z" />
    <glyph glyph-name="r" unicode="r" horiz-adv-x="743" 
d="M676 815l-174 -258h-21l-2 31l2 30v27q0 55 -61 55q-22 0 -55 -36q-33 -33 -33 -58v-481q0 -19 28 -53q29 -35 29 -47q0 -11 -10 -21l-23 -4l-49 25q-24 12 -63 12q-46 0 -76 -12l-62 -25h-16l-14 25l30 36q31 46 31 70v471q0 58 -43 82l-94 37q0 13 80 78q81 65 100 71
l29 -14q74 -53 108 -131q10 3 68 70q57 69 123 69l86 -16q64 -12 82 -33z" />
    <glyph glyph-name="s" unicode="s" horiz-adv-x="829" 
d="M754 322q0 -140 -148 -236q-133 -86 -278 -86q-119 0 -213 49q-115 59 -115 168q0 45 31 81t73 36q17 0 48.5 -13t31.5 -24q-3 -12 -16 -21q-33 -20 -33 -77q0 -59 54.5 -94t142.5 -35q100 0 170 67q71 68 71 166q0 58 -38 103t-91 45q-31 0 -61.5 -32t-30.5 -63l6 -22
l13 -12v-25q-244 0 -324 209l-22 80q3 17 12 26q0 112 73.5 186t186.5 74q65 0 129 -24l131 -51q9 0 29 18q9 15 32 19h31v-19l-55 -98q-35 -62 -98 -62h-58q-20 0 -123 56q-100 55 -141 55q-14 -5 -31 -16q-32 -31 -32 -82q0 -68 84 -115q68 -39 145 -39q23 0 102 59
q33 27 70 27h49q76 0 133 -70q60 -69 60 -141v-67z" />
    <glyph glyph-name="t" unicode="t" horiz-adv-x="614" 
d="M561 881q0 -122 -139 -181q-55 -19 -135 -32v-332q0 -160 166 -160h22q7 0 21 4l30 -6q9 -9 9 -22q-60 -46 -115 -80q-105 -68 -133 -72q-45 0 -129 78q-82 78 -82 125v479q-16 3 -37 -12l-19 -15h-20v58q33 70 76 118q12 17 12 27v148q0 125 29 159q16 16 151 82h19
v-377h127q49 0 73 17l48 35q23 -16 26 -41z" />
    <glyph glyph-name="u" unicode="u" horiz-adv-x="1030" 
d="M938 125l-137 -96l-51 -29q-38 0 -134 158l-260 -158q-55 15 -147 86q-109 83 -109 139v426q0 26 -12 47q-16 11 -33 11h-18l-14 -2q-23 0 -23 22q0 19 104 78l115 65q14 0 47 -43q41 -65 41 -124v-152l-8 -12q-6 -3 -10 -21v-139q0 -88 43 -152q50 -71 133 -71
q32 0 84 37q67 45 67 86v473l-8 26q-18 35 -37 54v26h31q30 0 45 -6l33 -14h76l35 12q24 12 38 12q16 0 19 -8l6 -22q-27 -39 -41 -86q-6 -23 -16 -70v-420l34 -82l107 -24v-27z" />
    <glyph glyph-name="v" unicode="v" horiz-adv-x="880" 
d="M799 590q0 -51 -27 -115q-44 -110 -115 -194l-32 -39l-43 -54l-41 -53q-60 -78 -99 -110l-28 -25q-19 3 -76 37q-219 127 -219 237v338q0 105 -70 105h-20q-29 0 -29 22q0 12 102 74l101 59q14 0 49 -41q41 -52 41 -114v-334q0 -98 94 -156q19 -11 94 -43l80 95
q78 121 78 217q0 51 -35 116q-40 72 -88 72h-67q-4 5 -7 9t-4 5l-8 19q0 13 123 98q59 42 86 45q20 0 84 -61q76 -73 76 -162v-47z" />
    <glyph glyph-name="w" unicode="w" horiz-adv-x="1388" 
d="M1262 643q0 -151 -144 -344l-213 -287q-14 -20 -41 -20q-31 0 -147 80q-131 91 -131 143v299q0 69 -19 123q-27 80 -78 80l-165 -105v-458q0 -23 7.5 -46.5t18.5 -42t23 -40.5q0 -13 -8 -21l-21 -4q-5 0 -43 10q-71 21 -88 21q-16 0 -53 -17q-35 -14 -49 -14l-25 10
q-9 3 -12 21l32 47q32 43 35 82h-14q11 15 8 65l-6 185l-2 196q0 99 -98 99q-23 9 -29 36q0 17 88 72q90 56 113 59l57 -49q53 -65 53 -131q19 0 146 86q125 86 143 86q31 0 100 -76q82 -83 82 -170v-294q0 -50 74 -115q64 -55 82 -55q14 0 84 98q80 115 80 203v73
q0 75 -64 121l-143 74l98 76q92 70 115 73q43 0 98 -92q56 -89 56 -137z" />
    <glyph glyph-name="x" unicode="x" horiz-adv-x="1036" 
d="M913 834q0 -55 -43 -107q-39 -49 -94 -49l-51 8l-59 19q-34 0 -82 -68q-49 -67 -49 -102q0 -49 98 -203q108 -172 164 -172h63l19 4l12 4q10 -17 10 -25q0 -22 -76 -82q-75 -60 -102 -63q-102 0 -170 80q-31 36 -78 155q-32 81 -59 84q-176 -317 -273 -317q-39 0 -88 25
q-55 27 -55 61l53 76l53 74h29q0 -80 58 -86q36 0 112 102q80 101 80 139q0 10 -35 82q-106 225 -237 225l-33 -6h-35q-19 0 -22 6q0 12 92 88q91 78 108 78q39 0 101 -47q85 -67 168 -207q58 112 94 162q69 100 143 100l55 -16q15 -8 45 -8q19 0 27 8l23 16h18l10 -22
q2 -4 6 -16z" />
    <glyph glyph-name="y" unicode="y" horiz-adv-x="892" 
d="M809 674q0 -90 -107 -256l-200 -322q-109 -173 -109 -223q0 -42 56 -63q55 -23 55 -29q0 -16 -82 -62l-84 -47l-4 4q-23 25 -29 37q-29 37 -29 64v49q0 31 35 90l54 84l-132 78q-92 71 -92 143v397q0 99 -116 99q-25 9 -25 24l7.5 7.5t8.5 7.5l4 4q10 7 68 49l90 63
q29 0 88 -77q60 -80 60 -109v-342q0 -51 34 -111q37 -63 89 -63q30 0 118 162l90 166v120q0 54 -73 78q-72 26 -72 35q0 17 96 76l97 57q37 0 69 -45q35 -47 35 -84v-61z" />
    <glyph glyph-name="z" unicode="z" horiz-adv-x="847" 
d="M772 252q0 -63 -108 -160q-109 -92 -177 -92q-15 0 -84 16l-133 35h-102q-14 0 -57 -20q-45 -19 -60 -19q-24 0 -24 25q0 13 79 110l183 224l67 92l74 92l123 147h-25l-106 -34q-96 -30 -127 -35h-70q-38 0 -71 35l-39 53q-35 -26 -52 -78q-12 -49 -36 -49l-15 12
q-9 9 -12 27q0 42 59 131q71 108 154 108h88l139 -30q60 -13 101 -13l65 7q58 11 96 28h52v-35l-348 -419q-128 -154 -136 -185l209 -41l62 -8h73q29 0 74 45q50 47 53 47l21 -6z" />
    <glyph glyph-name="braceleft" unicode="{" horiz-adv-x="708" 
d="M625 -469h-117q-129 0 -217 82q-90 83 -90 207v379q0 118 -11 143q-21 53 -133 59v125q101 34 127 97q17 40 17 155v352q0 123 88 201q88 82 209 82h127v-143h-127q-42 0 -74.5 -27.5t-40.5 -68.5l2 -3v-436q0 -188 -82 -258q57 -35 72 -100q10 -48 10 -125v-365
q0 -89 6 -110q22 -75 94 -96q21 -8 140 -11v-139z" />
    <glyph glyph-name="bar" unicode="|" horiz-adv-x="274" 
d="M209 1307q0 -117 -12 -346q-13 -222 -13 -345q0 -104 6 -309q7 -192 7 -307q0 -33 -7 -33l-26 17q-34 16 -43 16l-27 -6q-28 -6 -33 -6q-41 0 -41 82q0 137 9 344q10 310 10 346l-8 604q0 31 10 31q14 -22 29 -19q74 9 98 19q41 0 41 -88z" />
    <glyph glyph-name="braceright" unicode="}" horiz-adv-x="708" 
d="M586 401q-128 -6 -144 -88q-2 -4 -2 -114v-379q0 -124 -90 -207q-88 -82 -215 -82h-117v139l115 4q36 1 72 32.5t47 70.5q6 21 6 110v365q0 98 2 104q12 83 78 123q-80 71 -80 256v434q-6 44 -38 72.5t-77 28.5h-125v143h125q121 0 209 -82q88 -78 88 -201v-352
q0 -115 17 -155q28 -63 129 -97v-125z" />
    <glyph glyph-name="asciitilde" unicode="~" horiz-adv-x="747" 
d="M659 1143l-8 -23q-9 -68 -73 -137q-70 -78 -129 -78h-13l-59 10q-8 3 -76 35l-51 21l-68 16q-23 5 -47 11t-26 6q-35 0 -41 -27q12 71 73 129q61 61 131 61h13l90 -16l69 -31l58 -16l16 -2q61 0 107 67l34 -6v-20z" />
    <glyph glyph-name="exclamdown" unicode="&#xa1;" horiz-adv-x="299" 
d="M236 1163q0 -112 -99 -112q-44 0 -76 29t-32 71q0 40 55 92q55 55 94 55q30 0 45 -57q13 -44 13 -78zM272 606q0 -76 -24 -235q-2 -13 -27 -160q0 -11 -22 -105q-1 -5 -5 -18t-12.5 -38.5t-15.5 -49.5q-123 0 -123 147q0 71 20 191q21 120 21 192q0 171 16 273
q4 24 41 117q74 -69 105 -138q26 -62 26 -176z" />
    <glyph glyph-name="cent" unicode="&#xa2;" horiz-adv-x="2340" 
d="M1538 203q0 -25 -8 -25l-19 4q-59 13 -176 13q-37 0 -37 -29v-166q0 -14 -12 -14l-19 6q-19 6 -22 6q-1 0 -21 -6t-24 -6q-45 0 -45 53v111q0 34 -20 34q-127 17 -185 236q-39 144 -39 325q0 172 37 297q59 196 191 175q28 -5 28 24v123q0 22 11 22l30 -6q5 0 36 7.5
t34 7.5q27 0 27 -23v-123q0 -35 24 -35h33t15.5 1t4.5 2q91 -17 91 -160q0 -246 -113 -334q-13 -10 -31 -10q-21 0 -37 15.5t-10 33.5q4 28 4 72q0 143 -78 143q-53 0 -82 -80q-20 -56 -20 -125q0 -212 123 -326q27 -27 100 -59q139 -59 184 -129q25 -37 25 -55z" />
    <glyph glyph-name="sterling" unicode="&#xa3;" horiz-adv-x="866" 
d="M866 35q0 -43 -82 -43q-62 0 -182 12q-112 14 -182 14q-37 0 -135 -10q-100 -10 -133 -10q-89 0 -89 41q0 23 39 72q123 156 123 344q0 16 -10 88l-68 -6q-52 0 -91.5 45t-39.5 100q0 18 17 18q-16 0 8 -8l18 -6q53 -12 62 -12q29 0 53 8l-29 104q-24 90 -24 158
q0 222 201 305q72 31 157 31q135 0 223 -70q101 -76 101 -206q0 -121 -51 -121q-15 0 -23 8l-31 57q-44 88 -178 88q-104 0 -162.5 -61.5t-58.5 -167.5q0 -17 10 -102q60 14 115 14t94 -41q55 -58 55 -105q0 -22 -18 -22q-1 0 -39 12q-33 12 -45 12q-7 0 -135 -16l4 -78
q9 -157 -94 -342q109 78 227 78h27l28 -2l129 -6q72 -3 91 63q6 22 6 86q0 54 39 54q35 0 45 -125q3 -51 12 -160z" />
    <glyph glyph-name="currency" unicode="&#xa4;" horiz-adv-x="866" 
d="M856 227q0 -25 -29 -22l-47 2l-86 -10q-20 0 -65 59q-8 10 -29 38.5t-33 43.5q-98 -74 -133 -74q-41 0 -135 58l-84 -117q-8 -8 -29 -8l-67 8l-25 2l-16 -2h-27q-28 0 -28 22q0 13 26 33q71 58 152 150q-101 111 -101 252q0 119 84 217q-70 89 -125 127q-34 25 -34 38
q0 23 28 23l23 -2l33 -2q32 -3 67 10l17 6q8 0 18 -10l88 -119q21 6 35 6l43 -6l37 -4q18 0 65 8l51 9q18 0 50 -17l79 113q16 17 29 20l19 -6q38 -13 63 -10l57 4q29 3 29 -23q0 -14 -35 -38q-62 -42 -143 -152q76 -88 76 -201q0 -117 -90 -215q39 -74 167 -178
q25 -21 25 -33zM637 573q0 147 -127 248q-65 53 -139 53q-144 0 -144 -131q0 -125 74 -208.5t193 -83.5q143 0 143 122z" />
    <glyph glyph-name="yen" unicode="&#xa5;" horiz-adv-x="1271" 
d="M1266 940q0 -88 -142 -348l-12 -23h66v-163h-158l-59 -103h217v-164h-310q-101 -179 -112 -196l-56 -80q-11 -13 -90 -92q-100 -93 -168 -93h-110q-21 0 -86 19q-74 21 -74 49l68 107l71 108l33 -61q34 -64 143 -64q84 0 156 84q12 16 49 80q-112 43 -196 139h-312v164
h228l-33 103h-195v163h148l-82 293q-27 96 -39 115l-55 98q-22 22 -56 25q-18 0 -43 -11.5t-26 -11.5q-22 9 -31 35q0 17 111 107q113 89 137 92q91 0 155 -154q10 -19 105 -356l65 -232h445l26 49q60 114 60 205q0 52 -53 113q-123 132 -123 158v88q0 38 49 84q53 45 92 45
h49q36 0 80 -33q43 -31 43 -66q0 -28 -6 -36t-29 -13l-8 37q-6 28 -29 31q-20 0 -34 -14q-17 -23 -17 -35q0 -7 74 -78q74 -68 74 -113v-51zM932 406h-299q20 -65 43 -103h192l13 21z" />
    <glyph glyph-name="brokenbar" unicode="&#xa6;" horiz-adv-x="1024" 
d="M571 713h-118v612h118v-612zM571 -295h-118v567h118v-567z" />
    <glyph glyph-name="section" unicode="&#xa7;" horiz-adv-x="735" 
d="M653 1255q-9 -84 -84 -84q-80 0 -71 82q6 64 57 64h27q-23 89 -148 92q-83 1 -136.5 -60.5t-53.5 -156.5q0 -187 243 -246q113 -58 113 -215q0 -190 -172 -248q82 -12 138.5 -77.5t56.5 -149.5q0 -74 -45 -141q-74 -113 -248 -113q-41 0 -86 6q-81 11 -129.5 61.5
t-40.5 118.5q9 84 82 84q36 0 57 -24t16 -60q-9 -63 -57 -63h-29q23 -60 54 -72q49 -20 94 -20q78 0 131.5 50t60.5 130q22 211 -258 293q-121 68 -121 219q0 185 166 238q-168 65 -168 223q0 120 88 190q86 66 205 66q108 0 178 -37q93 -50 80 -150zM485 723q0 70 -26 121
q-35 65 -97 65q-72 0 -114 -67q-39 -56 -39 -135q0 -157 129 -166q73 -6 113 55q34 54 34 127z" />
    <glyph glyph-name="dieresis" unicode="&#xa8;" 
d="M633 1085q-33 0 -58 89q-20 67 -20 118q0 57 33 95t86 38q51 0 90 -35.5t39 -84.5q0 -30 -60 -127q-57 -93 -110 -93zM315 1085q-33 0 -57 89q-20 67 -20 118q0 57 33 95t85 38t90.5 -35t38.5 -85q0 -32 -59 -127q-58 -93 -111 -93z" />
    <glyph glyph-name="copyright" unicode="&#xa9;" horiz-adv-x="1509" 
d="M1522 752q0 -325 -219 -553q-220 -226 -545 -226q-327 0 -553 217q-228 219 -228 541q0 327 218 555q217 230 542 230q323 0 553 -222q232 -218 232 -542zM1376 752q0 265 -192 442q-190 178 -457 178q-266 0 -442 -192q-179 -191 -179 -457q0 -264 195 -447
q188 -174 457 -174q261 0 444 195q174 186 174 455zM1053 522q0 -21 -41 -71q-49 -62 -109 -105q-86 -51 -182 -51q-193 0 -322 215q-47 83 -47 135v84q0 64 49 150q91 152 269 225q76 29 114 29q19 0 72 -11q23 -6 45.5 -10.5t24.5 -5.5q6 0 47 -12l33 24q12 12 22 12
l12 -8q2 -2 7 -12q-11 -23 -35 -61l-66 -111q-39 -64 -39 -119v-45h-30l-7 37l4 8q5 46 9 58l14 38q-25 19 -80 52q-87 49 -147 49q-88 0 -154 -72q-65 -71 -65 -160q0 -115 114 -229q113 -113 234 -113h53q55 0 115 54q10 10 45 39q6 6 18 14q12 -4 17 -8z" />
    <glyph glyph-name="ordfeminine" unicode="&#xaa;" horiz-adv-x="430" 
d="M317 526q0 -28 -16 -28q-13 0 -54.5 7t-53.5 7q-1 0 -46 -10q-40 -10 -45 -10q-48 0 -71 51q-21 36 -21 92q0 137 119 213q3 1 11.5 6t15.5 8q-10 -17 -19 -51q-31 -98 -31 -117q0 -90 58 -90t55 139q-3 140 -76 152q-36 7 -90 -27q-28 -16 -28 6q0 9 8 17l82 90
q10 10 26 10q53 3 80 -2q85 -22 88 -94q-1 7 -1.5 -30.5t-0.5 -149.5q0 -8 4 -94q6 -64 6 -95zM381 322h-381v88h381v-88z" />
    <glyph glyph-name="guillemotleft" unicode="&#xab;" horiz-adv-x="700" 
d="M711 743l-4 -18l-11 -23l-147 -253l33 -254q0 -45 -52 -45h-69q-54 0 -66 59l-22 229l4 17l6 22l12 23l137 233q19 26 33 33l47 8h54q45 0 45 -31zM457 743l-4 -20l-11 -21l-147 -253l33 -254q0 -45 -52 -45h-69q-52 0 -66 59l-18 178q0 5 -4 23v16l6 37l16 37l138 233
q17 25 32 33l47 8h54q45 0 45 -31z" />
    <glyph glyph-name="logicalnot" unicode="&#xac;" horiz-adv-x="1024" 
d="M954 0h-194v399h-692v176h886v-575z" />
    <glyph glyph-name="registered" unicode="&#xae;" horiz-adv-x="1509" 
d="M1522 752q0 -325 -219 -553q-220 -226 -545 -226q-327 0 -553 217q-228 219 -228 541q0 327 218 555q217 230 542 230q323 0 553 -222q232 -218 232 -542zM1376 752q0 265 -192 442q-190 178 -457 178q-266 0 -442 -192q-179 -191 -179 -457q0 -264 195 -447
q188 -174 457 -174q261 0 444 195q174 186 174 455zM1116 467l-2 -8q-2 -7 -14 -19l-51 -34q-20 -14 -45 -46l-23 -22q-54 0 -96 106q-8 19 -60 199q-27 105 -55 105q-17 0 -39 -48q-22 -47 -39 -47q-6 0 -13 8t-12 17l-5 10l12 27q6 28 123 104l100 66q20 11 41 37
q0 42 -37 88q-47 59 -121 59q-75 0 -162 -39l-161 -72q-95 -40 -133 -40q-42 0 -77.5 22t-35.5 57q0 26 29 29q12 0 30 -31q20 -30 58 -30q48 0 143 59l174 109q99 59 189 59q78 0 131 -47q48 -37 73 -88l25 -47l18 -6q23 -11 23 -31q-22 -27 -121 -90q-42 -29 -80 -45
l15 -27l26 -29q13 -59 41 -159q38 -124 64 -142l20 -2l27 2h18zM643 977l-29 -35q-18 -27 -18 -49v-291q0 -83 -8 -174l24 -27l23 -34l-8 -9q-4 -4 -19 -8l-28 4q-34 19 -62 19l-31 -4l-47 -15q-25 0 -28 23q11 14 30 61v373q0 34 -34 49q-29 8 -33 21q2 5 41 20q8 1 155 70
q41 18 50 18z" />
    <glyph glyph-name="macron" unicode="&#xaf;" horiz-adv-x="569" 
d="M635 1311q0 -64 -62 -64h-573q-61 0 -61 64q0 67 65 67h561q70 0 70 -67z" />
    <glyph glyph-name="degree" unicode="&#xb0;" horiz-adv-x="454" 
d="M326 1163q0 -69 -44.5 -113t-113.5 -44q-68 0 -112 44t-44 111q0 69 45.5 113.5t114.5 44.5q67 0 110.5 -44t43.5 -112zM256 1163q0 86 -86 86q-90 0 -90 -88q0 -86 88 -86t88 88z" />
    <glyph glyph-name="plusminus" unicode="&#xb1;" horiz-adv-x="866" 
d="M823 846q0 -16 -22 -41q-58 -61 -76 -123q-12 -41 -33 -41q-17 0 -47 27q-21 18 -88 18h-51v-82q0 -66 6 -90q16 -20 37 -61q0 -12 -41 -27q-61 -20 -123 -82q-22 -22 -39 -22q-22 0 -22 24q0 20 12 64q12 45 12 59q6 59 6 133v84q-91 0 -141 -4q-78 -9 -127 -57
q-10 -11 -23 -15q-18 0 -18 19q0 13 45 149q28 90 43 90q3 -1 24.5 -10t37.5 -16q21 -6 71 -6h88v106q0 46 -30 125q0 14 90 59l110 58q34 16 39 16q17 0 17 -18q0 -14 -15 -29q-44 -52 -53 -137q-6 -58 -6 -180h88q126 0 178 24l27 6q24 0 24 -20zM823 264q0 -18 -20 -39
q-63 -69 -78 -121q-12 -43 -33 -43q8 0 10 2q0 6 -49 21q-77 22 -90 22h-194q-113 0 -148 -6q-87 -15 -133 -55q-13 -11 -25 -14q-18 0 -18 18q0 1 3.5 13t6.5 24l35 113q29 90 43 90l72 -31l317 -2q193 -3 248 25l31 6q22 0 22 -23z" />
    <glyph glyph-name="twosuperior" unicode="&#xb2;" horiz-adv-x="557" 
d="M518 1063q0 -153 -231 -342q-22 -17 -25 -31q0 -16 62 -16q86 0 104 18l12 21q8 14 21 14q12 0 24.5 -22t12.5 -41q0 -131 -146 -125q-6 3 -94 6l-76 4q-16 0 -80 -8l-32 -4q-31 0 -31 26q0 19 20 39l150 168q145 165 145 320q0 157 -116 157q-39 0 -65 -27.5t-26 -66.5
q0 -33 18.5 -57.5t47.5 -24.5q19 0 31 29q6 9 14 12q24 0 40.5 -23t16.5 -51q0 -102 -114 -102q-68 0 -115 46.5t-47 113.5q0 92 65 155.5t158 63.5q119 0 187.5 -67t68.5 -185z" />
    <glyph glyph-name="threesuperior" unicode="&#xb3;" horiz-adv-x="555" 
d="M512 768q0 -109 -86 -174q-75 -57 -193 -57q-71 0 -129 22q-75 31 -75 94q0 66 63 66q19 0 40.5 -12.5t21.5 -24.5l-9 -25v-6q0 -26 62 -26q57 0 95 36t38 93q0 82 -72 116q-40 18 -108 27v47q69 11 135 53q76 52 76 117q0 70 -80 70q-39 0 -71 -24t-32 -54q0 -14 7 -31
l4 -12q0 -23 -43 -23q-95 0 -95 105q0 83 64 129q62 41 143 41q86 0 148 -41q67 -46 67 -131q0 -105 -96 -164q-12 -6 -12 -10l10 -11q68 -48 88 -73q39 -45 39 -117z" />
    <glyph glyph-name="acute" unicode="&#xb4;" 
d="M750 1198l-197 -252h-135l121 252h211z" />
    <glyph glyph-name="paragraph" unicode="&#xb6;" horiz-adv-x="1212" 
d="M1036 1292h-94v-1413h-82v1413h-145v-1413h-80v852h-256q-166 0 -260 82q-105 89 -92 250q18 258 319 258h690v-29zM635 764v528h-78q-108 0 -175.5 -75t-62.5 -187q5 -137 54 -194q55 -72 184 -72h78z" />
    <glyph glyph-name="periodcentered" unicode="&#xb7;" horiz-adv-x="561" 
d="M322 526q0 -68 -27 -116q-34 -64 -94 -64q-59 0 -92 64q-27 48 -27 116q0 69 27 119q33 64 92 64q60 0 94 -64q27 -53 27 -119z" />
    <glyph glyph-name="cedilla" unicode="&#xb8;" horiz-adv-x="974" 
d="M739 -190q3 -135 -69 -189q-58 -44 -201 -47l-109 -2v68l117 10q152 12 152 119q0 44 -43 69q-32 21 -82 21h-78v147l68 19v-70h59q71 0 123 -37q60 -39 63 -108z" />
    <glyph glyph-name="onesuperior" unicode="&#xb9;" horiz-adv-x="555" 
d="M428 563q0 -26 -41 -26l-84 8q-30 0 -96 -4l-25 -2q-39 -3 -39 24q0 10 19 35q51 68 69 297q7 71 7 205v6q0 8 -9 8q-3 0 -36 -12q-38 -10 -41 -10q-35 0 -35 26q0 15 28 31q75 37 146 133q23 33 45 33q39 0 39 -47l-15 -152l-4 -106q-2 -35 -2 -76q0 -249 60 -340
q14 -20 14 -31z" />
    <glyph glyph-name="ordmasculine" unicode="&#xba;" horiz-adv-x="407" 
d="M307 760q0 -279 -151 -279q-138 0 -138 203q0 108 27 207q0 92 25 92q6 0 41 -9t45 -9t41 8q9 2 18 5t13 4t5 1q35 0 58 -96q16 -75 16 -127zM381 322h-381v88h381v-88zM215 737q-9 126 -63 123q-51 -3 -48 -129q3 -132 64 -129q56 3 47 135z" />
    <glyph glyph-name="guillemotright" unicode="&#xbb;" horiz-adv-x="698" 
d="M664 498l-7 -37l-16 -37l-137 -234q-14 -23 -33 -32l-49 -8h-51q-45 0 -45 30l2 15l6 16l6 10l147 254l-32 248q0 51 51 51h67q62 0 68 -59l21 -183v-20zM410 500l-2 -19q0 -5 -5 -18l-6 -21l-10 -18l-137 -234q-14 -23 -33 -32l-49 -8h-51q-45 0 -45 30l2 15l6 16l6 10
l147 254l-32 248q0 51 51 51h67q62 0 68 -59z" />
    <glyph glyph-name="onequarter" unicode="&#xbc;" horiz-adv-x="1288" 
d="M1255 276q0 -80 -112 -104q0 -85 67 -131q11 -6 11 -23q0 -23 -37 -20l-125 2q-40 3 -82 0l-27 -2q-32 -3 -32 18q0 14 26 31q39 27 39 119h-127q-92 0 -92 45q0 19 16 61q117 292 117 367q0 35 -39 86q-6 6 -6 20q0 26 39 23l84 -6l35 2h26q49 0 49 -49q0 -75 -190 -391
q-16 -25 -21 -50q0 -12 44 -24q40 -10 55 -10t18 20l2 35l8 39l21 106q82 187 113 187q22 0 22 -29l-12 -86q-21 -137 -21 -170l2 -76q39 9 39 35q0 11 -6 21l-6 14q0 14 29 14q31 0 52 -21.5t21 -52.5zM1073 1239l-774 -1264l-84 48l774 1267zM428 563q0 -26 -41 -26l-84 8
q-30 0 -96 -4l-25 -2q-39 -3 -39 24q0 10 19 35q51 68 69 297q7 71 7 205v6q0 8 -9 8q-3 0 -36 -12q-38 -10 -41 -10q-35 0 -35 26q0 15 28 31q75 37 146 133q23 33 45 33q39 0 39 -47l-15 -152l-4 -106q-2 -35 -2 -76q0 -249 60 -340q14 -20 14 -31z" />
    <glyph glyph-name="onehalf" unicode="&#xbd;" horiz-adv-x="1288" 
d="M1251 516q0 -155 -233 -342q-20 -14 -23 -31q0 -16 60 -16q90 0 104 20l15 19q7 12 20 16q12 0 23.5 -22.5t11.5 -42.5q0 -119 -144 -119q4 0 2.5 0t-11.5 0.5t-22.5 1t-30 0.5h-34.5l-74 2q-35 3 -81 -2l-33 -2q-31 0 -31 18q0 11 23 39l147 168q147 169 147 322
q0 155 -116 155q-38 0 -65 -28t-27 -66q0 -33 18.5 -57.5t46.5 -24.5q17 0 33 29q3 10 14 14q23 0 39.5 -22.5t16.5 -52.5q0 -45 -32.5 -74t-80.5 -29q-69 0 -116.5 46.5t-47.5 115.5q0 92 65 154.5t158 62.5q119 0 188.5 -67.5t69.5 -184.5zM1073 1239l-774 -1264l-84 48
l774 1267zM428 563q0 -26 -41 -26l-84 8q-30 0 -96 -4l-25 -2q-39 -3 -39 24q0 10 19 35q51 68 69 297q7 71 7 205v6q0 8 -9 8q-3 0 -36 -12q-38 -10 -41 -10q-35 0 -35 26q0 15 28 31q75 37 146 133q23 33 45 33q39 0 39 -47l-15 -152l-4 -106q-2 -35 -2 -76
q0 -249 60 -340q14 -20 14 -31z" />
    <glyph glyph-name="threequarters" unicode="&#xbe;" horiz-adv-x="1288" 
d="M1257 276q0 -80 -114 -104q0 -85 67 -131q11 -9 11 -23q0 -23 -37 -20l-125 2q-40 3 -82 0l-27 -2q-32 -3 -32 18q0 14 26 31q39 27 39 119h-127q-92 0 -92 45q0 19 16 61q117 292 117 367q0 35 -39 86q-3 7 -6 20q0 26 39 23l31 -2l55 -4l33 2h26q51 0 51 -49
q0 -77 -192 -391q-16 -25 -21 -50q0 -12 44 -24q40 -10 55 -10t18 20l2 35l31 145q3 23 61 125q35 62 50 62q22 0 22 -29q0 -22 -12 -86q-24 -123 -21 -170l2 -76q39 9 39 35q0 5 -6 21l-6 14q8 11 29 14q31 0 53 -21.5t22 -52.5zM1073 1239l-774 -1264l-84 48l776 1267z
M512 768q0 -109 -86 -174q-75 -57 -193 -57q-71 0 -129 22q-75 31 -75 94q0 66 63 66q19 0 40.5 -12.5t21.5 -24.5l-9 -25v-4q0 -28 62 -28q57 0 95 36t38 93q0 82 -72 116q-40 18 -108 27v47q69 11 135 53q76 52 76 117q0 70 -80 70q-39 0 -71 -24t-32 -54q0 -14 7 -31
l4 -12q0 -23 -43 -23q-95 0 -95 105q0 83 64 129q62 41 143 41q86 0 148 -41q67 -46 67 -131q0 -105 -96 -164q-12 -6 -12 -10l10 -11q68 -46 92 -77q35 -50 35 -113z" />
    <glyph glyph-name="questiondown" unicode="&#xbf;" horiz-adv-x="817" 
d="M494 1188q0 -113 -99 -113q-44 0 -77 29t-33 70q0 39 55 94q58 55 96 55q30 0 45 -57q13 -44 13 -78zM786 408q0 -164 -110 -283q-109 -121 -270 -121q-173 0 -281 117q-109 121 -109 293q0 137 109 282l258 279l4 -14q-50 -86 -123 -226q-59 -133 -59 -246
q0 -102 82 -172q66 -55 110 -55h111q48 0 110 60l134 127q19 0 28 -9z" />
    <glyph glyph-name="Agrave" unicode="&#xc0;" horiz-adv-x="1255" 
d="M635 1188l-227 -156l-99 58q-72 40 -135 40q-100 0 -100 -92q0 -27 8 -47l10 -45q0 -31 -8 -39l-29 -4q-46 0 -55 62q0 111 117 225q93 93 129 96h76q32 0 133 -49l100 -49l18 14q2 1 10.5 6t16.5 9q13 -4 16 -7zM1249 174q-14 -45 -75 -113q-26 -28 -74 -61
q-154 67 -154 205v166l-8 4q-2 0 -4 2q-6 9 -6 26l-6 39v31q3 20 6 23h-21q-39 -19 -71 -56l-76 -88l-115 58q-121 59 -194 59q-36 0 -64 -37q-7 -13 -37 -35q-22 6 -28 35q0 25 90 115q105 102 157 102l332 -104l6 233q-15 83 -61 187q-58 137 -117 137q-25 0 -102 -86
q-119 -132 -189 -262l-88 -166q-59 -115 -59 -223v-185l-29 -90q-27 -90 -78 -90q-22 0 -41 12q-11 20 -14 37q0 10 41 84q17 29 23 60q0 5 -82 112q-82 105 -82 197q0 132 96 246q84 99 272 225l500 338h31v-25l-15 -14l-6 -17q88 -65 146 -165q59 -103 59 -205v-70
q0 -47 6 -65l12 -25q5 -38 5 -45v-86q0 -10 -5 -25l13 -16l8 -16v-62q0 -132 14 -184q22 -86 84 -86v-31zM756 1434h-129l-209 252h219z" />
    <glyph glyph-name="Aacute" unicode="&#xc1;" horiz-adv-x="1255" 
d="M950 1704l-221 -279h-147l133 279h235zM635 1188l-227 -156l-99 58q-72 40 -135 40q-100 0 -100 -92q0 -27 8 -47l10 -45q0 -31 -8 -39l-29 -4q-46 0 -55 62q0 111 117 225q93 93 129 96h76q32 0 133 -49l100 -49l18 14q2 1 10.5 6t16.5 9q13 -4 16 -7zM1249 174
q-14 -45 -75 -113q-26 -28 -74 -61q-154 67 -154 205v166l-8 4q-2 0 -4 2q-6 9 -6 26l-6 39v31q3 20 6 23h-21q-39 -19 -71 -56l-76 -88l-115 58q-121 59 -194 59q-36 0 -64 -37q-7 -13 -37 -35q-22 6 -28 35q0 25 90 115q105 102 157 102l332 -104l6 233q-15 83 -61 187
q-58 137 -117 137q-25 0 -102 -86q-119 -132 -189 -262l-88 -166q-59 -115 -59 -223v-185l-29 -90q-27 -90 -78 -90q-22 0 -41 12q-11 20 -14 37q0 10 41 84q17 29 23 60q0 5 -82 112q-82 105 -82 197q0 131 86 233q90 107 282 238l500 338h31v-25l-15 -14l-6 -17
q88 -65 146 -165q59 -103 59 -205v-70q0 -47 6 -65l12 -25q5 -38 5 -45v-86q0 -10 -5 -25l13 -16l8 -16v-62q0 -132 14 -184q22 -86 84 -86v-31z" />
    <glyph glyph-name="Acircumflex" unicode="&#xc2;" horiz-adv-x="1255" 
d="M635 1188l-227 -156l-99 58q-72 40 -135 40q-100 0 -100 -92q0 -27 8 -47l10 -45q0 -31 -8 -39l-29 -4q-46 0 -55 62q0 111 117 225q93 93 129 96h76q32 0 133 -49l100 -49l18 14q2 1 10.5 6t16.5 9q13 -4 16 -7zM1249 174q-14 -45 -75 -113q-26 -28 -74 -61
q-154 67 -154 205v166l-8 4q-2 0 -4 2q-6 9 -6 26l-6 39v31q3 20 6 23h-21q-39 -19 -71 -56l-76 -88l-115 58q-121 59 -194 59q-36 0 -64 -37q-7 -13 -37 -35q-22 6 -28 35q0 25 90 115q105 102 157 102l332 -104l6 233q-15 83 -61 187q-58 137 -117 137q-25 0 -102 -86
q-119 -132 -189 -262l-88 -166q-59 -115 -59 -223v-185l-29 -90q-27 -90 -78 -90q-22 0 -41 12q-11 20 -14 37q0 10 41 84q17 29 23 60q0 5 -82 112q-82 105 -82 197q0 132 96 246q84 99 272 225l500 338h31v-25l-15 -14l-6 -17q88 -65 146 -165q59 -103 59 -205v-70
q0 -47 6 -65l12 -25q5 -38 5 -45v-86q0 -10 -5 -25l13 -16l8 -16v-62q0 -132 14 -184q22 -86 84 -86v-31zM883 1434h-185l-100 153l-100 -153h-185l193 252h174z" />
    <glyph glyph-name="Atilde" unicode="&#xc3;" horiz-adv-x="1255" 
d="M635 1188l-227 -156l-99 58q-72 40 -135 40q-100 0 -100 -92q0 -27 8 -47l10 -45q0 -31 -8 -39l-29 -4q-46 0 -55 62q0 111 117 225q93 93 129 96h76q32 0 133 -49l100 -49l18 14q2 1 10.5 6t16.5 9q13 -4 16 -7zM1249 174q-14 -45 -75 -113q-26 -28 -74 -61
q-154 67 -154 205v166l-8 4q-2 0 -4 2q-6 9 -6 26l-6 39v31q3 20 6 23h-21q-39 -19 -71 -56l-76 -88l-115 58q-121 59 -194 59q-36 0 -64 -37q-7 -13 -37 -35q-22 6 -28 35q0 25 90 115q105 102 157 102l332 -104l6 233q-15 83 -61 187q-58 137 -117 137q-25 0 -102 -86
q-119 -132 -189 -262l-88 -166q-59 -115 -59 -223v-185l-29 -90q-27 -90 -78 -90q-22 0 -41 12q-11 20 -14 37q0 10 41 84q17 29 23 60q0 5 -82 112q-82 105 -82 197q0 132 96 246q84 99 272 225l500 338h31v-25l-15 -14l-6 -17q88 -65 146 -165q59 -103 59 -205v-70
q0 -47 6 -65l12 -25q5 -38 5 -45v-86q0 -10 -5 -25l13 -16l8 -16v-62q0 -132 14 -184q22 -86 84 -86v-31zM920 1638q0 -96 -47.5 -150t-127.5 -54q-61 0 -149 49q-59 33 -88 33q-68 0 -68 -86h-121q0 92 49.5 149t133.5 57q52 0 151 -49q51 -26 84 -26q59 0 68 77h115z" />
    <glyph glyph-name="Adieresis" unicode="&#xc4;" horiz-adv-x="1255" 
d="M635 1188l-227 -156l-99 58q-72 40 -135 40q-100 0 -100 -92q0 -27 8 -47l10 -45q0 -31 -8 -39l-29 -4q-46 0 -55 62q0 111 117 225q93 93 129 96h76q32 0 133 -49l100 -49l18 14q2 1 10.5 6t16.5 9q13 -4 16 -7zM1249 174q-14 -45 -75 -113q-26 -28 -74 -61
q-154 67 -154 205v166l-8 4q-2 0 -4 2q-6 9 -6 26l-6 39v31q3 20 6 23h-21q-39 -19 -71 -56l-76 -88l-115 58q-121 59 -194 59q-36 0 -64 -37q-7 -13 -37 -35q-22 6 -28 35q0 25 90 115q105 102 157 102l332 -104l6 233q-15 83 -61 187q-58 137 -117 137q-25 0 -102 -86
q-119 -132 -189 -262l-88 -166q-59 -115 -59 -223v-185l-29 -90q-27 -90 -78 -90q-22 0 -41 12q-11 20 -14 37q0 10 41 84q17 29 23 60q0 5 -82 112q-82 105 -82 197q0 132 96 246q84 99 272 225l500 338h31v-25l-15 -14l-6 -17q88 -65 146 -165q59 -103 59 -205v-70
q0 -47 6 -65l12 -25q5 -38 5 -45v-86q0 -10 -5 -25l13 -16l8 -16v-62q0 -132 14 -184q22 -86 84 -86v-31zM995 1417h-211v230h211v-230zM578 1417h-211v230h211v-230z" />
    <glyph glyph-name="Aring" unicode="&#xc5;" horiz-adv-x="1255" 
d="M635 1188l-227 -156l-99 58q-72 40 -135 40q-100 0 -100 -92q0 -27 8 -47l10 -45q0 -31 -8 -39l-29 -4q-46 0 -55 62q0 111 117 225q93 93 129 96h76q32 0 133 -49l100 -49l18 14q2 1 10.5 6t16.5 9q13 -4 16 -7zM1249 174q-14 -45 -75 -113q-26 -28 -74 -61
q-154 67 -154 205v166l-8 4q-2 0 -4 2q-6 9 -6 26l-6 39v31q3 20 6 23h-21q-39 -19 -71 -56l-76 -88l-115 58q-121 59 -194 59q-36 0 -64 -37q-7 -13 -37 -35q-22 6 -28 35q0 25 90 115q105 102 157 102l332 -104l6 233q-15 83 -61 187q-58 137 -117 137q-25 0 -102 -86
q-119 -132 -189 -262l-88 -166q-59 -115 -59 -223v-185l-29 -90q-27 -90 -78 -90q-22 0 -41 12q-11 20 -14 37q0 10 41 84q17 29 23 60q0 5 -82 112q-82 105 -82 197q0 132 96 246q84 99 272 225l500 338h31v-25l-15 -14l-6 -17q88 -65 146 -165q59 -103 59 -205v-70
q0 -47 6 -65l12 -25q5 -38 5 -45v-86q0 -10 -5 -25l13 -16l8 -16v-62q0 -132 14 -184q22 -86 84 -86v-31zM813 1616q0 -75 -52.5 -128.5t-127.5 -53.5q-80 0 -130 52.5t-50 133.5q0 75 52 127.5t128 52.5q75 0 127.5 -54.5t52.5 -129.5zM741 1618q0 47 -29.5 77.5
t-76.5 30.5q-45 0 -76 -31t-31 -75q0 -45 31.5 -78t75.5 -33t75 32t31 77z" />
    <glyph glyph-name="AE" unicode="&#xc6;" horiz-adv-x="1957" 
d="M1888 1243q0 -77 -92 -153q-92 -78 -170 -78q-54 0 -151 39q-107 41 -142 41h-119q-59 0 -133 -62q31 -69 31 -145v-86q29 14 53 14h90l76 -16q29 -6 58 -6q75 0 108 83h39v-43q0 -65 -55 -153q-59 -96 -121 -96h-62q-17 0 -67 16q-51 16 -72 14l-24 -2v-16q0 -10 -5 -25
l13 -16l8 -16v-62l4 -117l68 -47q88 -61 202 -61h185q71 0 123 55l112 119q19 0 27 -14l2 -39q6 -108 -152 -240q-155 -131 -266 -131h-123q-70 0 -129 33l-39 20q-42 -50 -65 -53q-154 67 -154 205v49q-70 94 -94 176l-6 21l-10 -11l-76 -88l-115 58q-121 59 -194 59
q-36 0 -64 -37q-7 -13 -37 -35q-22 6 -28 35q0 25 90 115q105 102 157 102l252 -80l-2 19v86q0 78 55 215q-18 59 -47 115q-51 98 -98 98q-25 0 -102 -86q-119 -132 -189 -262l-88 -166q-59 -115 -59 -223v-185l-29 -90q-27 -90 -78 -90q-22 0 -41 12q-11 20 -14 37
q0 10 41 84q17 29 23 60q0 5 -82 112q-82 105 -82 197q0 131 86 233q90 107 282 238l500 338h31v-25l-15 -14l-6 -17q57 -37 121 -129q47 43 135 97q145 88 238 88h78q25 0 129 -41q102 -42 133 -45q40 0 84 47q14 17 30 20q19 0 25 -12zM635 1188l-227 -156l-99 58
q-72 40 -135 40q-100 0 -100 -92q0 -27 8 -47l10 -45q0 -31 -8 -39l-29 -4q-46 0 -55 62q0 111 117 225q93 93 129 96h76q32 0 133 -49l100 -49l18 14q2 1 10.5 6t16.5 9q13 -4 16 -7z" />
    <glyph glyph-name="Ccedilla" unicode="&#xc7;" horiz-adv-x="1099" 
d="M1094 354q0 -27 -60 -112q-110 -152 -293 -217q-66 -23 -125 -23l-10 -33q172 -15 172 -147q0 -98 -100 -150q-84 -41 -189 -41q-83 0 -145 13l12 116l95 -4q159 -6 159 76q0 68 -157 68l34 108q-237 53 -395 293q-92 139 -92 246v131q0 116 90 256q74 116 189 203
q229 174 397 174q52 0 168 -29l125 -33q25 22 86 56q30 -17 30 -31q0 -12 -71 -127q-82 -129 -86 -141q-60 -117 -60 -185v-71h-49l-10 55q0 6 6 12l4 4q0 60 10 90l21 58q0 17 -123 82q-137 73 -231 73q-140 0 -242 -110q-100 -109 -100 -250q0 -147 102 -279
q89 -117 233 -190q129 -66 207 -66h86q74 0 176 84l103 84q14 0 22 -14q8 -4 11 -29z" />
    <glyph glyph-name="Egrave" unicode="&#xc8;" horiz-adv-x="1060" 
d="M1069 1243q0 -76 -92 -153q-93 -78 -170 -78q-54 0 -152 39q-106 41 -141 41h-119q-72 0 -168 -93q-106 -100 -106 -223v-108q0 -53 43 -80q0 76 55 149q55 76 127 76h90l76 -16q27 -6 57 -6q74 0 109 83h39v-43q0 -63 -55 -153q-58 -96 -121 -96h-62q-23 0 -65 14
q-50 16 -74 16q-51 0 -92 -30t-41 -72q0 -38 82 -111q53 -48 114 -88q101 -61 203 -61h185q71 0 122 55l113 119q19 0 27 -14l2 -39q6 -108 -152 -240q-155 -131 -266 -131h-123q-59 0 -129 33q-128 59 -240 198q-145 186 -145 357v86q0 89 61 223q53 120 121 201
q52 59 162 125q140 88 238 88h77q27 0 129 -41q104 -42 134 -45q40 0 84 47q14 17 30 20q19 0 25 -12zM676 1434h-129l-209 252h219z" />
    <glyph glyph-name="Eacute" unicode="&#xc9;" horiz-adv-x="1060" 
d="M877 1720l-222 -278h-147l133 278h236zM1069 1243q0 -76 -92 -153q-93 -78 -170 -78q-54 0 -152 39q-106 41 -141 41h-119q-72 0 -168 -93q-106 -100 -106 -223v-108q0 -53 43 -80q0 76 55 149q55 76 127 76h90l76 -16q27 -6 57 -6q74 0 109 83h39v-43q0 -63 -55 -153
q-58 -96 -121 -96h-62q-23 0 -65 14q-50 16 -74 16q-51 0 -92 -30t-41 -72q0 -38 82 -111q53 -48 114 -88q101 -61 203 -61h185q71 0 122 55l113 119q19 0 27 -14l2 -39q6 -108 -152 -240q-155 -131 -266 -131h-123q-59 0 -129 33q-128 59 -240 198q-145 186 -145 357v86
q0 89 61 223q53 120 121 201q52 59 162 125q140 88 238 88h77q27 0 129 -41q104 -42 134 -45q40 0 84 47q14 17 30 20q19 0 25 -12z" />
    <glyph glyph-name="Ecircumflex" unicode="&#xca;" horiz-adv-x="1060" 
d="M1069 1243q0 -76 -92 -153q-93 -78 -170 -78q-54 0 -152 39q-106 41 -141 41h-119q-72 0 -168 -93q-106 -100 -106 -223v-108q0 -53 43 -80q0 76 55 149q55 76 127 76h90l76 -16q27 -6 57 -6q74 0 109 83h39v-43q0 -63 -55 -153q-58 -96 -121 -96h-62q-23 0 -65 14
q-50 16 -74 16q-51 0 -92 -30t-41 -72q0 -38 82 -111q53 -48 114 -88q101 -61 203 -61h185q71 0 122 55l113 119q19 0 27 -14l2 -39q6 -108 -152 -240q-155 -131 -266 -131h-123q-59 0 -129 33q-128 59 -240 198q-145 186 -145 357v86q0 89 61 223q53 120 121 201
q52 59 162 125q140 88 238 88h77q27 0 129 -41q104 -42 134 -45q40 0 84 47q14 17 30 20q19 0 25 -12zM883 1434h-185l-100 153l-100 -153h-185l193 252h174z" />
    <glyph glyph-name="Edieresis" unicode="&#xcb;" horiz-adv-x="1060" 
d="M1069 1243q0 -76 -92 -153q-93 -78 -170 -78q-54 0 -152 39q-106 41 -141 41h-119q-72 0 -168 -93q-106 -100 -106 -223v-108q0 -53 43 -80q0 76 55 149q55 76 127 76h90l76 -16q27 -6 57 -6q74 0 109 83h39v-43q0 -63 -55 -153q-58 -96 -121 -96h-62q-23 0 -65 14
q-50 16 -74 16q-51 0 -92 -30t-41 -72q0 -38 82 -111q53 -48 114 -88q101 -61 203 -61h185q71 0 122 55l113 119q19 0 27 -14l2 -39q6 -108 -152 -240q-155 -131 -266 -131h-123q-59 0 -129 33q-128 59 -240 198q-145 186 -145 357v86q0 89 61 223q53 120 121 201
q52 59 162 125q140 88 238 88h77q27 0 129 -41q104 -42 134 -45q40 0 84 47q14 17 30 20q19 0 25 -12zM934 1417h-211v230h211v-230zM516 1417h-211v230h211v-230z" />
    <glyph glyph-name="Igrave" unicode="&#xcc;" horiz-adv-x="1005" 
d="M999 1274l-65 -92q-31 -46 -31 -105v-577l10 -29q11 -20 9 -33l-2 -28l-7 -33q-36 -201 -280 -330q-91 -47 -137 -47h-136q-61 0 -186 82q-128 84 -145 84l-19 8q-7 7 -10 21q45 41 135 112q131 107 152 107q27 0 30 -31q-13 -10 -36 -53q0 -39 75 -129q91 -109 174 -109
q45 0 97 47q57 51 57 129v547q0 87 -39 109l-78 47q29 33 66 47q77 27 86 49l10 10h14q47 0 62 64l-172 -82q-60 -29 -152 -29h-121l-249 80q-17 0 -39 -16q-1 -1 -7 -4t-12 -7q-2 -2 -10 -6q-9 3 -14 8q-17 11 -17 31q12 20 19 27q1 2 63 74q79 91 94 94l127 -45
q133 -47 181 -47h176q52 0 135 30l164 62q28 0 28 -37zM592 1434h-129l-209 252h219z" />
    <glyph glyph-name="Iacute" unicode="&#xcd;" horiz-adv-x="1005" 
d="M868 1696l-221 -279h-147l133 279h235zM999 1274l-65 -92q-31 -46 -31 -105v-577l10 -29q11 -20 9 -33l-2 -28l-7 -33q-36 -201 -280 -330q-91 -47 -137 -47h-136q-61 0 -186 82q-128 84 -145 84l-19 8q-7 7 -10 21q45 41 135 112q131 107 152 107q27 0 30 -31
q-13 -10 -36 -53q0 -39 75 -129q91 -109 174 -109q45 0 97 47q57 51 57 129v547q0 87 -39 109l-78 47q29 33 66 47q77 27 86 49l10 10h14q47 0 62 64l-172 -82q-60 -29 -152 -29h-121l-249 80q-17 0 -39 -16q-1 -1 -7 -4t-12 -7q-2 -2 -10 -6q-9 3 -14 8q-17 11 -17 31
q12 20 19 27q1 2 63 74q79 91 94 94l127 -45q133 -47 181 -47h176q52 0 135 30l164 62q28 0 28 -37z" />
    <glyph glyph-name="Icircumflex" unicode="&#xce;" horiz-adv-x="1005" 
d="M999 1274l-65 -92q-31 -46 -31 -105v-577l10 -29q11 -20 9 -33l-2 -28l-7 -33q-36 -201 -280 -330q-91 -47 -137 -47h-136q-61 0 -186 82q-128 84 -145 84l-19 8q-7 7 -10 21q45 41 135 112q131 107 152 107q27 0 30 -31q-13 -10 -36 -53q0 -39 75 -129q91 -109 174 -109
q45 0 97 47q57 51 57 129v547q0 87 -39 109l-78 47q29 33 66 47q77 27 86 49l10 10h14q47 0 62 64l-172 -82q-60 -29 -152 -29h-121l-249 80q-17 0 -39 -16q-1 -1 -7 -4t-12 -7q-2 -2 -10 -6q-9 3 -14 8q-17 11 -17 31q12 20 19 27q1 2 63 74q79 91 94 94l127 -45
q133 -47 181 -47h176q52 0 135 30l164 62q28 0 28 -37zM883 1434h-185l-100 153l-100 -153h-185l193 252h174z" />
    <glyph glyph-name="Idieresis" unicode="&#xcf;" horiz-adv-x="1005" 
d="M999 1274l-65 -92q-31 -46 -31 -105v-577l10 -29q11 -20 9 -33l-2 -28l-7 -33q-36 -201 -280 -330q-91 -47 -137 -47h-136q-61 0 -186 82q-128 84 -145 84l-19 8q-7 7 -10 21q45 41 135 112q131 107 152 107q27 0 30 -31q-13 -10 -36 -53q0 -39 75 -129q91 -109 174 -109
q45 0 97 47q57 51 57 129v547q0 87 -39 109l-78 47q29 33 66 47q77 27 86 49l10 10h14q47 0 62 64l-172 -82q-60 -29 -152 -29h-121l-249 80q-17 0 -39 -16q-1 -1 -7 -4t-12 -7q-2 -2 -10 -6q-9 3 -14 8q-17 11 -17 31q12 20 19 27q1 2 63 74q79 91 94 94l127 -45
q133 -47 181 -47h176q52 0 135 30l164 62q28 0 28 -37zM872 1417h-210v230h210v-230zM455 1417h-211v230h211v-230z" />
    <glyph glyph-name="Eth" unicode="&#xd0;" horiz-adv-x="1300" 
d="M1294 655q0 -77 -41 -202q-39 -121 -90 -193q-51 -74 -151 -154q-137 -106 -242 -106h-53q-100 0 -182 76l-154 141q-84 78 -170 78q-65 0 -98 -49q-12 -17 -35 -88q-15 -49 -49 -49q-14 0 -23 12l-6 35q0 69 76 127l137 108q76 58 76 144v20h-207v180h199q-11 57 -41 82
l-47 17q-31 8 -35 26l4 14q8 9 24 9h56q66 0 141 37l164 77q15 0 18 -24q-7 -12 -30 -37q-23 -21 -23 -53v-148h123v-180h-123q0 -27 14 -41q17 -21 21 -33q0 -7 -58 -28q-65 -29 -92 -64l29 -2l74 -2q70 -3 131 -55l121 -105q63 -57 133 -57q112 0 209 139q90 128 90 246
v53q0 157 -99 283q-104 139 -256 139h-221l-71 -12l-99 -12h-162q-66 0 -122 34q-64 40 -64 105q0 55 35 110q33 58 86 58q11 0 20 -23q16 -55 86 -55l170 20l131 9h224q180 0 317 -146q135 -144 135 -328v-133z" />
    <glyph glyph-name="Ntilde" unicode="&#xd1;" horiz-adv-x="1196" 
d="M1190 475q0 -45 -29 -115q-25 -59 -63 -92l-54 -18q-29 -9 -32 -31q0 -62 75 -113q75 -46 78 -63l-14 -20q-15 -23 -53 -23q-60 0 -119 74q-66 84 -66 188v404q0 131 -84 272q-97 166 -225 166q-45 0 -221 -152v-776q0 -70 63 -133l-14 -16q-3 -6 -16 -9l-129 31h-54
q-5 0 -43 -12l-55 -19q-28 0 -37 37q1 4 10 18t13 21l26 27l5 14l2 17l-2 28l2 21l12 24v604h-12l2 39l2 31l-4 35h12q0 45 -19 84q-21 49 -61 49q-7 0 -61 -18l-21 4l-4 32q0 15 76 76l186 150q41 -20 80 -88l55 -150l312 232q283 -77 409 -394l33 -118l18 -45
q21 -46 21 -89v-184zM856 1638q0 -95 -47.5 -149.5t-126.5 -54.5q-61 0 -150 49q-57 33 -88 33q-67 0 -67 -86h-121q0 92 49.5 149t132.5 57q51 0 152 -49q51 -26 84 -26q58 0 67 77h115z" />
    <glyph glyph-name="Ograve" unicode="&#xd2;" horiz-adv-x="1124" 
d="M1112 643q0 -94 -70 -231q-80 -165 -186 -271q-138 -141 -285 -141q-225 0 -399 193q-172 193 -172 419q0 56 12 111q1 5 31 96q4 15 21 65.5t26 78.5q73 120 182 225q135 123 252 123h103q69 0 164 -60q134 -85 227 -223q94 -137 94 -270v-115zM975 451v155
q-76 216 -180 316l-101 94q-102 96 -207 96h-102q-67 0 -143 -88q-74 -89 -74 -158v-157q0 -71 78 -199q121 -195 262 -277q86 -47 135 -47h68q106 0 194 131q17 25 70 134zM627 1434h-129l-209 252h219z" />
    <glyph glyph-name="Oacute" unicode="&#xd3;" horiz-adv-x="1124" 
d="M860 1704l-221 -279h-147l133 279h235zM1112 643q0 -94 -70 -231q-80 -165 -186 -271q-138 -141 -285 -141q-225 0 -399 193q-172 193 -172 419q0 56 12 111q1 5 31 96q4 15 21 65.5t26 78.5q73 120 182 225q135 123 252 123h103q69 0 164 -60q134 -85 227 -223
q94 -137 94 -270v-115zM975 451v155q-76 216 -180 316l-101 94q-102 96 -207 96h-102q-67 0 -143 -88q-74 -89 -74 -158v-157q0 -71 78 -199q121 -195 262 -277q86 -47 135 -47h68q106 0 194 131q17 25 70 134z" />
    <glyph glyph-name="Ocircumflex" unicode="&#xd4;" horiz-adv-x="1124" 
d="M1112 643q0 -94 -70 -231q-80 -165 -186 -271q-138 -141 -285 -141q-225 0 -399 193q-172 193 -172 419q0 56 12 111q1 5 31 96q4 15 21 65.5t26 78.5q73 120 182 225q135 123 252 123h103q69 0 164 -60q134 -85 227 -223q94 -137 94 -270v-115zM975 451v155
q-76 216 -180 316l-101 94q-102 96 -207 96h-102q-67 0 -143 -88q-74 -89 -74 -158v-157q0 -71 78 -199q121 -195 262 -277q86 -47 135 -47h68q106 0 194 131q17 25 70 134zM883 1434h-185l-100 153l-100 -153h-185l193 252h174z" />
    <glyph glyph-name="Otilde" unicode="&#xd5;" horiz-adv-x="1124" 
d="M1112 643q0 -94 -70 -231q-80 -165 -186 -271q-138 -141 -285 -141q-225 0 -399 193q-172 193 -172 419q0 56 12 111q1 5 31 96q4 15 21 65.5t26 78.5q73 120 182 225q135 123 252 123h103q69 0 164 -60q134 -85 227 -223q94 -137 94 -270v-115zM975 451v155
q-76 216 -180 316l-101 94q-102 96 -207 96h-102q-67 0 -143 -88q-74 -89 -74 -158v-157q0 -71 78 -199q121 -195 262 -277q86 -47 135 -47h68q106 0 194 131q17 25 70 134zM868 1638q0 -96 -47 -150t-127 -54q-61 0 -149 49q-59 33 -88 33q-68 0 -68 -86h-121
q0 92 49.5 149t133.5 57q52 0 151 -49q51 -26 84 -26q59 0 68 77h114z" />
    <glyph glyph-name="Odieresis" unicode="&#xd6;" horiz-adv-x="1124" 
d="M1112 643q0 -94 -70 -231q-80 -165 -186 -271q-138 -141 -285 -141q-225 0 -399 193q-172 193 -172 419q0 56 12 111q1 5 31 96q4 15 21 65.5t26 78.5q73 120 182 225q135 123 252 123h103q69 0 164 -60q134 -85 227 -223q94 -137 94 -270v-115zM975 451v155
q-76 216 -180 316l-101 94q-102 96 -207 96h-102q-67 0 -143 -88q-74 -89 -74 -158v-157q0 -71 78 -199q121 -195 262 -277q86 -47 135 -47h68q106 0 194 131q17 25 70 134zM893 1417h-211v230h211v-230zM475 1417h-211v230h211v-230z" />
    <glyph glyph-name="multiply" unicode="&#xd7;" horiz-adv-x="1196" 
d="M1032 412l-121 -123l-313 313l-315 -313l-121 121l313 315l-313 313l123 121l313 -313l313 313l119 -121l-311 -313z" />
    <glyph glyph-name="Oslash" unicode="&#xd8;" horiz-adv-x="1124" 
d="M1112 643q0 -94 -70 -231q-80 -165 -186 -271q-138 -141 -285 -141q-87 0 -151 27l-29 -97h-145l47 164q-39 31 -100 84q-193 186 -193 434q0 56 12 111q1 5 31 96q4 15 21 65.5t26 78.5q73 120 182 225q135 123 252 123h111l37 131h143l-49 -178l16 -9q65 -30 146 -118
q75 -87 92 -111q92 -136 92 -268v-115zM975 451v155q-76 216 -180 316l-99 92l-215 -764l27 -17q80 -47 135 -47h68q106 0 194 131q17 25 70 134zM573 1092q-46 20 -86 20h-102q-67 0 -143 -88q-74 -89 -74 -158v-157q0 -114 164 -320l33 -41z" />
    <glyph glyph-name="Ugrave" unicode="&#xd9;" horiz-adv-x="1228" 
d="M1225 170q0 -28 -117 -98l-121 -72q-27 0 -90 84q-59 83 -59 129h-19q-19 -8 -211 -152q-82 -61 -104 -61q-15 0 -98 51q-279 166 -279 391v353l12 6l6 24v170q0 52 -24.5 71t-83.5 19q-37 0 -37 37q0 21 92 99q94 77 115 77q54 -25 86 -57q85 -85 88 -215l2 -53v-84
l-2 -15l-8 -12l-8 -6h12l-10 -22l-11 -89v-247q0 -141 205 -279q64 -43 76 -43q68 43 100 68q98 69 101 90l-2 241l-13 -6v492q0 105 -20 139l-45 82q0 23 18 23h15l67 -19l76 -18l70 22l75 21q14 0 28 -8t15 -21q-67 -52 -67 -203v-739q0 -101 106 -137q35 -10 64 -10v-23z
M627 1434h-129l-209 252h219z" />
    <glyph glyph-name="Uacute" unicode="&#xda;" horiz-adv-x="1228" 
d="M877 1704l-222 -279h-147l133 279h236zM1225 170q0 -28 -117 -98l-121 -72q-27 0 -90 84q-59 83 -59 129h-19q-19 -8 -211 -152q-82 -61 -104 -61q-15 0 -98 51q-279 166 -279 391v353l12 6l6 24v170q0 52 -24.5 71t-83.5 19q-37 0 -37 37q0 21 92 99q94 77 115 77
q54 -25 86 -57q85 -85 88 -215l2 -53v-84l-2 -15l-8 -12l-8 -6h12l-10 -22l-11 -89v-247q0 -141 205 -279q64 -43 76 -43q68 43 100 68q98 69 101 90l-2 241l-13 -6v492q0 105 -20 139l-45 82q0 23 18 23h15l67 -19l76 -18l70 22l75 21q14 0 28 -8t15 -21q-67 -52 -67 -203
v-739q0 -101 106 -137q35 -10 64 -10v-23z" />
    <glyph glyph-name="Ucircumflex" unicode="&#xdb;" horiz-adv-x="1228" 
d="M1225 170q0 -28 -117 -98l-121 -72q-27 0 -90 84q-59 83 -59 129h-19q-19 -8 -211 -152q-82 -61 -104 -61q-15 0 -98 51q-279 166 -279 391v353l12 6l6 24v170q0 52 -24.5 71t-83.5 19q-37 0 -37 37q0 21 92 99q94 77 115 77q54 -25 86 -57q85 -85 88 -215l2 -53v-84
l-2 -15l-8 -12l-8 -6h12l-10 -22l-11 -89v-247q0 -141 205 -279q64 -43 76 -43q68 43 100 68q98 69 101 90l-2 241l-13 -6v492q0 105 -20 139l-45 82q0 23 18 23h15l67 -19l76 -18l70 22l75 21q14 0 28 -8t15 -21q-67 -52 -67 -203v-739q0 -101 106 -137q35 -10 64 -10v-23z
M883 1434h-185l-100 153l-100 -153h-185l193 252h174z" />
    <glyph glyph-name="Udieresis" unicode="&#xdc;" horiz-adv-x="1228" 
d="M1225 170q0 -28 -117 -98l-121 -72q-27 0 -90 84q-59 83 -59 129h-19q-19 -8 -211 -152q-82 -61 -104 -61q-15 0 -98 51q-279 166 -279 391v353l12 6l6 24v170q0 52 -24.5 71t-83.5 19q-37 0 -37 37q0 21 92 99q94 77 115 77q54 -25 86 -57q85 -85 88 -215l2 -53v-84
l-2 -15l-8 -12l-8 -6h12l-10 -22l-11 -89v-247q0 -141 205 -279q64 -43 76 -43q68 43 100 68q98 69 101 90l-2 241l-13 -6v492q0 105 -20 139l-45 82q0 23 18 23h15l67 -19l76 -18l70 22l75 21q14 0 28 -8t15 -21q-67 -52 -67 -203v-739q0 -101 106 -137q35 -10 64 -10v-23z
M934 1417h-211v230h211v-230zM516 1417h-211v230h211v-230z" />
    <glyph glyph-name="Yacute" unicode="&#xdd;" horiz-adv-x="1271" 
d="M950 1737l-221 -279h-147l133 279h235zM1266 940q0 -100 -142 -348l-186 -326l-182 -323l-56 -80q-11 -13 -90 -92q-100 -93 -168 -93h-110q-21 0 -86 19q-74 21 -74 49l68 107l71 108l33 -61q34 -64 143 -64q84 0 156 84q12 16 49 80q-163 59 -260 236l-94 305l-53 196
q-36 130 -74 240l-55 98q-22 22 -56 25q-18 0 -43 -11.5t-26 -11.5q-22 9 -31 35q0 17 111 107q113 89 137 92q91 0 155 -154q31 -68 105 -354q68 -252 125 -395q18 -47 43 -105q58 -104 127 -104l20 30q9 14 58 95q93 152 104 176q2 8 59 118q60 117 60 205q0 52 -53 113
q-123 132 -123 158v88q0 38 49 84q53 45 92 45h49q36 0 80 -33q43 -31 43 -66q0 -28 -6 -36t-29 -13l-8 37q-6 28 -29 31q-20 0 -34 -14q-17 -23 -17 -35q0 -7 74 -78q74 -68 74 -113v-51z" />
    <glyph glyph-name="Thorn" unicode="&#xde;" horiz-adv-x="1366" 
d="M1278 743q0 -444 -551 -444h-375v-299h-194v1466h194v-299h359q142 0 225 -14q163 -26 252.5 -134t89.5 -276zM1077 737q0 89 -45 155t-123 89q-45 14 -182 14h-375v-524h379q346 0 346 266z" />
    <glyph glyph-name="germandbls" unicode="&#xdf;" horiz-adv-x="917" 
d="M537 1073l-50 6q-70 63 -104 76h-4q-62 0 -98 -12q0 -298 -7 -963q0 -64 58 -149q0 -13 -8 -21l-19 -10q-123 28 -149 25q-66 -25 -86 -25q-27 0 -27 25q0 10 33 63q-6 22 12 78v465q-21 0 -41.5 -18.5t-21.5 -18.5q-25 9 -25 31q0 31 33 96q34 69 55 84v162
q0 104 113 223q113 121 217 121h51q22 0 76 -17q9 -1 49 -14q6 -1 41 -20q151 -112 151 -203q0 -47 -18 -123q-20 -90 -53 -115q-21 -16 -142 -84q173 -18 265 -120t80 -263q-2 -27 -15 -52.5t-26 -45.5q-15 -30 -76 -125q-110 -137 -234 -137q-72 0 -121 31q-57 36 -57 104
q0 35 39 68v4q-1 -3 -4 -8.5t-4 -8.5l8 17q53 -62 82 -62q36 0 63 31q65 73 97 123q32 51 32 106q0 130 -67 197q-59 59 -197 98q-28 9 -28 23q0 25 10 37l110 61q33 17 56 88q20 56 20 109q0 16 -4 28q-9 23 -20 27q-8 1 -23 4t-22 4z" />
    <glyph glyph-name="agrave" unicode="&#xe0;" 
d="M555 946h-129l-209 252h219zM883 131l-90 -61l-86 -54q-1 -1 -7 -4t-10 -6q-38 0 -72 43l-73 94l-111 -71q-106 -69 -121 -72q-95 0 -194 96q-119 116 -119 281q0 149 156 315q167 180 340 180q25 0 104 -49q79 -48 109 -51q44 0 118 62h25v-25l-82 -113
q-37 -50 -37 -133v-280q0 -82 74 -115q73 -24 76 -37zM633 608q-8 8 -31 8q-10 0 -22 -4l-17 -4q-44 0 -123 62q-72 63 -102 63q-73 0 -113 -69q-37 -60 -37 -136l-6 -22l-6 -29q0 -86 90 -205q72 -90 160 -90q38 0 72 15l41 16v250l26 39l68 125v-19z" />
    <glyph glyph-name="aacute" unicode="&#xe1;" 
d="M750 1198l-197 -252h-135l121 252h211zM883 131l-90 -61l-86 -54q-1 -1 -7 -4t-10 -6q-38 0 -72 43l-73 94l-111 -71q-106 -69 -121 -72q-95 0 -194 96q-119 116 -119 281q0 149 156 315q167 180 340 180q25 0 104 -49q79 -48 109 -51q44 0 118 62h25v-25l-82 -113
q-37 -50 -37 -133v-280q0 -82 74 -115q73 -24 76 -37zM633 608q-8 8 -31 8q-10 0 -22 -4l-17 -4q-44 0 -123 62q-72 63 -102 63q-73 0 -113 -69q-37 -60 -37 -136l-6 -22l-6 -29q0 -86 90 -205q72 -90 160 -90q41 0 72 15l41 16v250l26 39l68 125v-19z" />
    <glyph glyph-name="acircumflex" unicode="&#xe2;" 
d="M766 946h-184l-101 154l-100 -154h-184l192 252h174zM883 131l-90 -61l-86 -54q-1 -1 -7 -4t-10 -6q-38 0 -72 43l-73 94l-111 -71q-106 -69 -121 -72q-95 0 -194 96q-119 116 -119 281q0 149 156 315q167 180 340 180q25 0 104 -49q79 -48 109 -51q44 0 118 62h25v-25
l-82 -113q-37 -50 -37 -133v-280q0 -82 74 -115q73 -24 76 -37zM633 608q-8 8 -31 8q-10 0 -22 -4l-17 -4q-44 0 -123 62q-72 63 -102 63q-73 0 -113 -69q-37 -60 -37 -136l-6 -22l-6 -29q0 -86 90 -205q72 -90 160 -90q41 0 72 15l41 16v250l26 39l68 125v-19z" />
    <glyph glyph-name="atilde" unicode="&#xe3;" 
d="M772 1151q0 -96 -47.5 -150.5t-126.5 -54.5q-59 0 -149 49q-56 33 -89 33q-67 0 -67 -86h-121q0 93 49.5 150t132.5 57q51 0 152 -49q50 -27 84 -27q58 0 67 78h115zM883 131l-90 -61l-86 -54q-1 -1 -7 -4t-10 -6q-38 0 -72 43l-73 94l-111 -71q-106 -69 -121 -72
q-95 0 -194 96q-119 116 -119 281q0 149 156 315q167 180 340 180q25 0 104 -49q79 -48 109 -51q44 0 118 62h25v-25l-82 -113q-37 -50 -37 -133v-280q0 -82 74 -115q73 -24 76 -37zM633 608q-8 8 -31 8q-10 0 -22 -4l-17 -4q-44 0 -123 62q-72 63 -102 63q-73 0 -113 -69
q-37 -60 -37 -136l-6 -22l-6 -29q0 -86 90 -205q72 -90 160 -90q41 0 72 15l41 16v250l26 39l68 125v-19z" />
    <glyph glyph-name="adieresis" unicode="&#xe4;" 
d="M883 131l-90 -61l-86 -54q-1 -1 -7 -4t-10 -6q-38 0 -72 43l-73 94l-111 -71q-106 -69 -121 -72q-95 0 -194 96q-119 116 -119 281q0 149 156 315q167 180 340 180q25 0 104 -49q79 -48 109 -51q44 0 118 62h25v-25l-82 -113q-37 -50 -37 -133v-280q0 -82 74 -115
q73 -24 76 -37zM633 608q-8 8 -31 8q-10 0 -22 -4l-17 -4q-44 0 -123 62q-72 63 -102 63q-73 0 -113 -69q-37 -60 -37 -136l-6 -22l-6 -29q0 -86 90 -205q72 -90 160 -90q38 0 72 15l41 16v250l26 39l68 125v-19zM633 946q-33 0 -58 88q-20 67 -20 119q0 57 33 95t86 38
q51 0 90 -35.5t39 -85.5q0 -29 -60 -127q-57 -92 -110 -92zM315 946q-33 0 -57 88q-20 67 -20 119q0 57 33 95t85 38t90.5 -35.5t38.5 -85.5q0 -30 -59 -127q-59 -92 -111 -92z" />
    <glyph glyph-name="aring" unicode="&#xe5;" 
d="M668 1128q0 -75 -53 -128.5t-128 -53.5q-79 0 -129.5 53t-50.5 134q0 75 52.5 127.5t127.5 52.5t128 -54.5t53 -130.5zM883 131l-90 -61l-86 -54q-1 -1 -7 -4t-10 -6q-38 0 -72 43l-73 94l-111 -71q-106 -69 -121 -72q-95 0 -194 96q-119 116 -119 281q0 149 156 315
q167 180 340 180q25 0 104 -49q79 -48 109 -51q44 0 118 62h25v-25l-82 -113q-37 -50 -37 -133v-280q0 -82 74 -115q73 -24 76 -37zM596 1130q0 48 -29.5 78.5t-77.5 30.5q-44 0 -75 -31t-31 -75q0 -45 31 -78t75 -33q45 0 76 31.5t31 76.5zM633 608q-8 8 -31 8
q-10 0 -22 -4l-17 -4q-44 0 -123 62q-72 63 -102 63q-73 0 -113 -69q-37 -60 -37 -136l-6 -22l-6 -29q0 -86 90 -205q72 -90 160 -90q41 0 72 15l41 16v250l26 39l68 125v-19z" />
    <glyph glyph-name="ae" unicode="&#xe6;" horiz-adv-x="1368" 
d="M1290 690q0 -23 -100 -84l-195 -119l-127 -73q-118 -69 -118 -76q33 -44 63 -68q81 -69 186 -69q79 0 144 47l102 102q14 0 21 -10l6 -33q0 -92 -109 -201q-106 -106 -200 -106h-89q-49 0 -114 47l-70 -41q-38 0 -72 43l-73 94l-111 -71q-106 -69 -121 -72q-95 0 -194 96
q-119 116 -119 281q0 149 156 315q167 180 340 180q31 0 104 -49q83 -49 107 -51q99 100 198 100h66q36 0 174 -81q142 -82 145 -101zM1051 608q-59 29 -146 135q-26 33 -67 33h-11l-57 -80q-37 -50 -37 -133v-147q5 5 107 67zM633 608v19l-8 -15zM625 612l-23 4
q-10 0 -22 -4l-17 -4q-44 0 -123 62q-72 63 -102 63q-73 0 -113 -69q-37 -60 -37 -136l-6 -22l-6 -29q0 -86 90 -205q72 -90 160 -90q41 0 72 15l41 16v250l26 39z" />
    <glyph glyph-name="ccedilla" unicode="&#xe7;" horiz-adv-x="761" 
d="M692 242q0 -81 -104 -158q-93 -70 -180 -82l-11 -29q172 -15 172 -147q0 -99 -100 -150q-84 -41 -188 -41q-76 0 -146 13l12 116l95 -4q159 -6 159 76q0 68 -157 68l35 108q-108 28 -195 131q-84 104 -84 213v146q0 122 121 246q120 124 244 124q41 0 114 -28l70 -29h51
q13 3 21 8q19 15 38 19q33 0 33 -27q0 -25 -61 -92q-62 -68 -125 -68q-59 0 -174 50q-59 26 -92 26q-60 0 -107 -59q-32 -44 -35 -72v-68q0 -88 109 -200q112 -109 201 -109h79q49 0 84 31l82 68h39v-80z" />
    <glyph glyph-name="egrave" unicode="&#xe8;" horiz-adv-x="786" 
d="M717 690q0 -23 -101 -84l-194 -119l-127 -73q-119 -70 -119 -76q37 -49 64 -68q81 -69 186 -69q78 0 143 47l103 102q13 0 20 -10l6 -33q0 -93 -108 -201q-107 -106 -201 -106h-88q-98 0 -199 125q-102 128 -102 225v170q0 110 111 230q113 122 221 122h65q36 0 174 -81
q143 -82 146 -101zM477 608q-60 29 -145 135q-27 33 -68 33q-51 0 -90 -45l-61 -113v-122q1 0 14 -32t31 -50q3 5 108 69zM426 946h-129l-209 252h219z" />
    <glyph glyph-name="eacute" unicode="&#xe9;" horiz-adv-x="786" 
d="M717 690q0 -23 -101 -84l-194 -119l-127 -73q-119 -70 -119 -76q37 -49 64 -68q81 -69 186 -69q78 0 143 47l103 102q13 0 20 -10l6 -33q0 -93 -108 -201q-107 -106 -201 -106h-88q-98 0 -199 125q-102 128 -102 225v170q0 110 111 230q113 122 221 122h65q36 0 174 -81
q143 -82 146 -101zM477 608q-60 29 -145 135q-27 33 -68 33q-51 0 -90 -45l-61 -113v-122q1 0 14 -32t31 -50q3 5 108 69zM645 1198l-196 -252h-136l121 252h211z" />
    <glyph glyph-name="ecircumflex" unicode="&#xea;" horiz-adv-x="786" 
d="M717 690q0 -23 -101 -84l-194 -119l-127 -73q-119 -70 -119 -76q37 -49 64 -68q81 -69 186 -69q78 0 143 47l103 102q13 0 20 -10l6 -33q0 -93 -108 -201q-107 -106 -201 -106h-88q-98 0 -199 125q-102 128 -102 225v170q0 110 111 230q113 122 221 122h65q36 0 174 -81
q143 -82 146 -101zM477 608q-60 29 -145 135q-27 33 -68 33q-51 0 -90 -45l-61 -113v-122q1 0 14 -32t31 -50q3 5 108 69zM666 946h-185l-100 154l-100 -154h-185l193 252h174z" />
    <glyph glyph-name="edieresis" unicode="&#xeb;" horiz-adv-x="786" 
d="M717 690q0 -23 -101 -84l-194 -119l-127 -73q-119 -70 -119 -76q37 -49 64 -68q81 -69 186 -69q78 0 143 47l103 102q13 0 20 -10l6 -33q0 -93 -108 -201q-107 -106 -201 -106h-88q-98 0 -199 125q-102 128 -102 225v170q0 110 111 230q113 122 221 122h65q36 0 174 -81
q143 -82 146 -101zM477 608q-60 29 -145 135q-27 33 -68 33q-51 0 -90 -45l-61 -113v-122q1 0 14 -32t31 -50q3 5 108 69zM508 946q-33 0 -57 88q-21 66 -21 119q0 57 33 95t86 38q51 0 90 -35.5t39 -85.5q0 -29 -60 -127q-57 -92 -110 -92zM190 946q-32 0 -57 88
q-20 67 -20 119q0 57 33 95t85 38t90.5 -35.5t38.5 -85.5q0 -30 -59 -127q-59 -92 -111 -92z" />
    <glyph glyph-name="igrave" unicode="&#xec;" horiz-adv-x="438" 
d="M397 0h-319v27l33 65q18 38 18 78v467q0 68 -84 68q-19 0 -45 32q31 31 119 78l108 57q44 0 76 -81l35 -80v-568q0 -42 20 -73l39 -50v-20zM131 946h-129l-207 252h217z" />
    <glyph glyph-name="iacute" unicode="&#xed;" horiz-adv-x="438" 
d="M397 0h-319v27l33 65q18 38 18 78v467q0 68 -84 68q-19 0 -45 32q31 31 119 78l108 57q44 0 76 -81l35 -80v-568q0 -42 20 -73l39 -50v-20zM489 1198l-196 -252h-135l121 252h210z" />
    <glyph glyph-name="icircumflex" unicode="&#xee;" horiz-adv-x="438" 
d="M397 0h-319v27l33 65q18 38 18 78v467q0 68 -84 68q-19 0 -45 32q31 31 119 78l108 57q44 0 76 -81l35 -80v-568q0 -42 20 -73l39 -50v-20zM508 946h-184l-101 154l-100 -154h-182l190 252h174z" />
    <glyph glyph-name="idieresis" unicode="&#xef;" horiz-adv-x="438" 
d="M397 0h-319v27l33 65q18 38 18 78v467q0 68 -84 68q-19 0 -45 32q31 31 119 78l108 57q44 0 76 -81l35 -80v-568q0 -42 20 -73l39 -50v-20zM342 946q-33 0 -57 88q-21 66 -21 119q0 57 33 95t86 38q52 0 90.5 -35.5t38.5 -85.5q0 -30 -59 -127q-59 -92 -111 -92zM25 946
q-31 0 -56 88q-20 67 -20 119q0 57 32 95t85 38q51 0 90 -35.5t39 -85.5q0 -29 -60 -127q-59 -92 -110 -92z" />
    <glyph glyph-name="eth" unicode="&#xf0;" horiz-adv-x="1138" 
d="M1057 520q0 -237 -127 -385q-131 -155 -367 -155q-253 0 -397 190q-92 125 -92 346q0 227 108 379q119 168 342 168q97 0 213 -59l-63 112l-78 101l-277 -127l-43 102l238 108q-80 79 -207 166h217q57 -40 125 -102l215 102l45 -102l-172 -84q320 -367 320 -760zM870 528
q0 164 -73 271q-83 125 -240 125q-159 0 -238 -133q-63 -105 -63 -279q0 -157 72 -266q82 -123 235 -123q155 0 238 131q69 109 69 274z" />
    <glyph glyph-name="ntilde" unicode="&#xf1;" horiz-adv-x="1046" 
d="M952 102q0 -15 -82 -63l-82 -47q-18 0 -79 49q-74 61 -74 100v406q0 64 -33 96q-13 20 -82 68l-190 -111v-473q0 -62 20 -76q12 -12 12 -31v-20h-47l-16 10q-41 21 -90 21q-34 0 -94 -31h-27l-2 20l2 11q0 1 3 11t8 26t12 34l22 70v453q0 51 -61 82l-72 36q0 7 86 72
q3 3 33 25l51 32q57 0 102 -79l64 -113l307 184q71 -27 133 -104q68 -83 68 -154v-358q0 -79 28 -109q14 -13 52 -16q28 -3 28 -21zM731 1151q0 -96 -47 -150.5t-127 -54.5q-59 0 -149 49q-56 33 -89 33q-67 0 -67 -86h-121q0 93 49.5 150t132.5 57q51 0 152 -49
q50 -27 84 -27q58 0 67 78h115z" />
    <glyph glyph-name="ograve" unicode="&#xf2;" horiz-adv-x="864" 
d="M786 438q0 -176 -153 -317q-133 -121 -244 -121q-168 0 -291 147q-98 118 -98 207v84q0 124 117 275q126 159 243 159h72q106 0 223 -120q131 -134 131 -314zM666 287v86l-54 90q-148 250 -338 250q-94 0 -141 -105q-12 -27 -12 -65q0 -122 137 -250q139 -127 260 -127
q51 0 84 35zM455 946h-129l-209 252h219z" />
    <glyph glyph-name="oacute" unicode="&#xf3;" horiz-adv-x="864" 
d="M786 438q0 -176 -153 -317q-133 -121 -244 -121q-168 0 -291 147q-98 118 -98 207v84q0 124 117 275q126 159 243 159h72q106 0 223 -120q131 -134 131 -314zM666 287v86l-54 90q-148 250 -338 250q-94 0 -141 -105q-12 -27 -12 -65q0 -122 137 -250q139 -127 260 -127
q51 0 84 35zM692 1198l-196 -252h-136l121 252h211z" />
    <glyph glyph-name="ocircumflex" unicode="&#xf4;" horiz-adv-x="864" 
d="M786 438q0 -176 -153 -317q-133 -121 -244 -121q-168 0 -291 147q-98 118 -98 207v84q0 124 117 275q126 159 243 159h72q106 0 223 -120q131 -134 131 -314zM666 287v86l-54 90q-148 250 -338 250q-94 0 -141 -105q-12 -27 -12 -65q0 -122 137 -250q139 -127 260 -127
q51 0 84 35zM666 946h-185l-100 154l-100 -154h-185l193 252h174z" />
    <glyph glyph-name="otilde" unicode="&#xf5;" horiz-adv-x="864" 
d="M786 438q0 -176 -153 -317q-133 -121 -244 -121q-168 0 -291 147q-98 118 -98 207v84q0 124 117 275q126 159 243 159h72q106 0 223 -120q131 -134 131 -314zM666 287v86l-54 90q-148 250 -338 250q-94 0 -141 -105q-12 -27 -12 -65q0 -122 137 -250q139 -127 260 -127
q51 0 84 35zM715 1151q0 -96 -47.5 -150.5t-126.5 -54.5q-58 0 -150 49q-56 33 -88 33q-67 0 -67 -86h-121q0 93 49 150t133 57q51 0 152 -49q48 -27 83 -27q59 0 68 78h115z" />
    <glyph glyph-name="odieresis" unicode="&#xf6;" horiz-adv-x="864" 
d="M786 438q0 -176 -153 -317q-133 -121 -244 -121q-168 0 -291 147q-98 118 -98 207v84q0 124 117 275q126 159 243 159h72q106 0 223 -120q131 -134 131 -314zM666 287v86l-54 90q-148 250 -338 250q-94 0 -141 -105q-12 -27 -12 -65q0 -122 137 -250q139 -127 260 -127
q51 0 84 35zM551 946q-33 0 -57 88q-21 66 -21 119q0 57 33 95t86 38q51 0 90 -35.5t39 -85.5q0 -28 -59 -127q-59 -92 -111 -92zM233 946q-32 0 -57 88q-20 67 -20 119q0 57 33 95t85 38t90.5 -35.5t38.5 -85.5q0 -30 -59 -127q-59 -92 -111 -92z" />
    <glyph glyph-name="divide" unicode="&#xf7;" horiz-adv-x="1124" 
d="M664 922h-205v204h205v-204zM1047 639h-969v168h969v-168zM664 319h-205v205h205v-205z" />
    <glyph glyph-name="oslash" unicode="&#xf8;" horiz-adv-x="864" 
d="M786 438q0 -176 -153 -317q-133 -121 -244 -121l-70 6l-47 -170h-116l59 211q-62 37 -117 100q-98 115 -98 207v84q0 124 117 275q126 159 243 159h89l47 172h114l-57 -208q56 -35 102 -84q131 -138 131 -314zM666 287v86l-54 90q-57 99 -120 155l-115 -407
q74 -45 141 -45q51 0 84 35zM395 684q-69 29 -121 29q-94 0 -141 -105q-12 -27 -12 -65q0 -103 143 -246l17 -16z" />
    <glyph glyph-name="ugrave" unicode="&#xf9;" horiz-adv-x="1030" 
d="M938 125l-137 -96l-51 -29q-38 0 -134 158l-260 -158q-55 15 -147 86q-109 83 -109 139v426q0 26 -12 47q-16 11 -33 11h-18l-14 -2q-23 0 -23 22q0 19 104 78l115 65q14 0 47 -43q41 -65 41 -124v-152l-8 -12q-6 -3 -10 -21v-139q0 -88 43 -152q50 -71 133 -71
q32 0 84 37q67 45 67 86v473l-8 26q-18 35 -37 54v26h31q30 0 45 -6l33 -14h76l35 12q24 12 38 12q16 0 19 -8l6 -22q-27 -39 -41 -86q-6 -23 -16 -70v-420l34 -82l107 -24v-27zM502 946h-129l-209 252h219z" />
    <glyph glyph-name="uacute" unicode="&#xfa;" horiz-adv-x="1030" 
d="M938 125l-137 -96l-51 -29q-38 0 -134 158l-260 -158q-55 15 -147 86q-109 83 -109 139v426q0 26 -12 47q-16 11 -33 11h-18l-14 -2q-23 0 -23 22q0 19 104 78l115 65q14 0 47 -43q41 -65 41 -124v-152l-8 -12q-6 -3 -10 -21v-139q0 -88 43 -152q50 -71 133 -71
q32 0 84 37q67 45 67 86v473l-8 26q-18 35 -37 54v26h31q30 0 45 -6l33 -14h76l35 12q24 12 38 12q16 0 19 -8l6 -22q-27 -39 -41 -86q-6 -23 -16 -70v-420l34 -82l107 -24v-27zM705 1198l-197 -252h-135l121 252h211z" />
    <glyph glyph-name="ucircumflex" unicode="&#xfb;" horiz-adv-x="1030" 
d="M938 125l-137 -96l-51 -29q-38 0 -134 158l-260 -158q-55 15 -147 86q-109 83 -109 139v426q0 26 -12 47q-16 11 -33 11h-18l-14 -2q-23 0 -23 22q0 19 104 78l115 65q14 0 47 -43q41 -65 41 -124v-152l-8 -12q-6 -3 -10 -21v-139q0 -88 43 -152q50 -71 133 -71
q32 0 84 37q67 45 67 86v473l-8 26q-18 35 -37 54v26h31q30 0 45 -6l33 -14h76l35 12q24 12 38 12q16 0 19 -8l6 -22q-27 -39 -41 -86q-6 -23 -16 -70v-420l34 -82l107 -24v-27zM731 946h-184l-101 154l-100 -154h-184l192 252h174z" />
    <glyph glyph-name="udieresis" unicode="&#xfc;" horiz-adv-x="1030" 
d="M938 125l-137 -96l-51 -29q-38 0 -134 158l-260 -158q-55 15 -147 86q-109 83 -109 139v426q0 26 -12 47q-16 11 -33 11h-18l-14 -2q-23 0 -23 22q0 19 104 78l115 65q14 0 47 -43q41 -65 41 -124v-152l-8 -12q-6 -3 -10 -21v-139q0 -88 43 -152q50 -71 133 -71
q32 0 84 37q67 45 67 86v473l-8 26q-18 35 -37 54v26h31q30 0 45 -6l33 -14h76l35 12q24 12 38 12q16 0 19 -8l6 -22q-27 -39 -41 -86q-6 -23 -16 -70v-420l34 -82l107 -24v-27zM623 946q-33 0 -58 88q-20 67 -20 119q0 57 33 95t86 38q51 0 90 -35.5t39 -85.5
q0 -29 -60 -127q-59 -92 -110 -92zM305 946q-33 0 -57 88q-21 66 -21 119q0 57 33 95t86 38q52 0 90.5 -35.5t38.5 -85.5q0 -30 -59 -127q-59 -92 -111 -92z" />
    <glyph glyph-name="yacute" unicode="&#xfd;" horiz-adv-x="892" 
d="M809 674q0 -90 -107 -256l-200 -322q-109 -173 -109 -223q0 -42 56 -63q55 -23 55 -29q0 -16 -82 -62l-84 -47l-4 4q-23 25 -29 37q-29 37 -29 64v49q0 31 35 90l54 84l-132 78q-92 71 -92 143v397q0 99 -116 99q-25 9 -25 24l7.5 7.5t8.5 7.5l4 4q10 7 68 49l90 63
q29 0 88 -77q60 -80 60 -109v-342q0 -51 34 -111q37 -63 89 -63q30 0 118 162l90 166v120q0 54 -73 78q-72 26 -72 35q0 17 96 76l97 57q37 0 69 -45q35 -47 35 -84v-61zM711 1198l-197 -252h-135l121 252h211z" />
    <glyph glyph-name="thorn" unicode="&#xfe;" horiz-adv-x="1138" 
d="M1057 539q0 -220 -119 -381q-132 -178 -342 -178q-85 0 -135 20q-67 26 -146 111v-514h-180v1869h180v-516q70 76 132.5 105.5t158.5 29.5q212 0 338 -172q113 -152 113 -374zM872 541q0 159 -59 268q-74 135 -223 135q-148 0 -228 -143q-63 -111 -63 -277
q0 -159 61 -266q79 -133 222 -133q152 0 229 139q61 110 61 277z" />
    <glyph glyph-name="ydieresis" unicode="&#xff;" horiz-adv-x="892" 
d="M809 674q0 -90 -107 -256l-200 -322q-109 -173 -109 -223q0 -42 56 -63q55 -23 55 -29q0 -16 -82 -62l-84 -47l-4 4q-23 25 -29 37q-29 37 -29 64v49q0 31 35 90l54 84l-132 78q-92 71 -92 143v397q0 99 -116 99q-25 9 -25 24l7.5 7.5t8.5 7.5l4 4q10 7 68 49l90 63
q29 0 88 -77q60 -80 60 -109v-342q0 -51 34 -111q37 -63 89 -63q30 0 118 162l90 166v120q0 54 -73 78q-72 26 -72 35q0 17 96 76l97 57q37 0 69 -45q35 -47 35 -84v-61zM588 946q-33 0 -58 88q-20 67 -20 119q0 57 33 95t86 38q51 0 90 -35.5t39 -85.5q0 -29 -60 -127
q-59 -92 -110 -92zM270 946q-33 0 -57 88q-20 67 -20 119q0 57 33 95t85 38t90.5 -35.5t38.5 -85.5q0 -30 -59 -127q-59 -92 -111 -92z" />
    <glyph glyph-name="Lslash" unicode="&#x141;" horiz-adv-x="1198" 
d="M1192 43q0 -43 -49 -43l-221 31h-469q-89 0 -136 -6l-92 -13h-131l-6 -4l-14 -6q-11 4 -13 8l-4 27q0 33 39 39q39 9 56 18v275l-52 -35q-31 -30 -59 -96q-3 -6 -12 -19q-8 -4 -13 -4q-11 0 -20 47l-27 115q-21 90 -8 100q65 8 76 10l115 64v440q0 59 -39 92
q-22 22 -74 43q-39 16 -39 27q0 25 82 43l176 39l164 47q27 7 54.5 15t38.5 11t13 3h164q24 -6 82 -25q86 -30 86 -69q0 -37 -45 -37l-94 41q-44 20 -100 20q-238 0 -238 -250v-307q104 62 133 104l21 21q23 13 32 -8q9 -15 0 -45q-21 -77 -6 -142q15 -54 -20 -57
q-9 -2 -39 2q-27 3 -121 -49v-391h25q42 16 170 98q103 66 200 66q62 0 119 -37l94 -64l8 60l5 96q3 50 20 127q4 24 4 31v63q0 54 -41 113v37h35q112 -112 108 -232l-2 -231q0 -48 43 -140q21 -36 21 -63z" />
    <glyph glyph-name="lslash" unicode="&#x142;" horiz-adv-x="614" 
d="M616 801q10 -15 0 -45q-21 -77 -6 -142q16 -54 -20 -57q-9 -2 -39 2q-29 3 -135 -55v-301q0 -101 33 -140q16 -22 16 -38t-8 -21l-23 -4l-20 4q-62 33 -95 33q-27 0 -65 -12l-74 -25h-24v45q18 17 32 61q17 48 17 70v197l-58 -39q-31 -30 -59 -96q-3 -6 -12 -19
q-8 -4 -13 -4q-13 0 -22 47l-27 115q-18 90 -8 100q63 7 78 10l121 68v498q0 38 -37 65q-15 12 -18 27q48 35 131 84q137 82 174 82l18 -8l12 -17l-34 -41q-35 -40 -35 -80v-489q117 69 147 112l21 21q23 13 32 -8z" />
    <glyph glyph-name="OE" unicode="&#x152;" horiz-adv-x="1990" 
d="M1929 1243q0 -76 -92 -153q-91 -78 -170 -78q-54 0 -151 39q-107 41 -142 41h-119q-84 0 -168 -93l-30 -34q55 -101 55 -193q47 41 94 41h90l76 -16q28 -6 58 -6q75 0 108 83h39v-43q0 -65 -55 -153q-58 -96 -121 -96h-62q-22 0 -65 14q-50 16 -74 16q-45 0 -90 -28
l-6 -4l-29 -93l43 -57q168 -180 348 -180h185q71 0 123 55l112 119q19 0 27 -14l2 -39q6 -108 -152 -240q-155 -131 -266 -131h-123q-59 0 -129 33q-134 58 -239 198l-37 50q-45 -72 -119 -146q-138 -135 -279 -135q-225 0 -399 193q-172 193 -172 419q0 56 12 111
q1 5 31 96q4 15 21 65.5t26 78.5q73 120 182 225q135 123 252 123h103q90 0 209 -88q48 -38 92 -86l76 -88l38 49q40 48 162 125q143 88 238 88h78q25 0 129 -41q102 -42 133 -45q40 0 84 47q14 17 30 20q19 0 25 -12zM926 354l-33 76q-33 73 -33 158v86q0 54 25 129
q-47 78 -90 119l-101 94q-102 96 -207 96h-102q-67 0 -143 -88q-74 -89 -74 -158v-157q0 -71 78 -199q121 -195 262 -277q86 -47 135 -47h68q100 0 194 131z" />
    <glyph glyph-name="oe" unicode="&#x153;" horiz-adv-x="1425" 
d="M1372 690q0 -23 -100 -84l-195 -119l-127 -73q-119 -70 -119 -76q35 -45 64 -68q81 -69 186 -69q79 0 144 47l102 102q13 0 21 -10l6 -33q0 -92 -109 -201q-106 -106 -201 -106h-88q-83 0 -192 121q-38 40 -59 80q-38 -51 -72 -80q-136 -121 -244 -121q-168 0 -291 147
q-98 118 -98 207v84q0 124 117 275q126 159 243 159h72q144 0 281 -192l49 63q101 129 225 129h66q36 0 174 -81q142 -82 145 -101zM1133 608q-62 30 -146 135q-26 33 -67 33q-52 0 -91 -45l-61 -113v-57q18 -68 18 -112q7 -15 27 -35q3 6 109 69zM666 287q-11 38 -11 63v39
l-43 74q-145 250 -338 250q-94 0 -141 -105q-12 -27 -12 -65q0 -122 137 -250q139 -127 260 -127q51 0 84 35z" />
    <glyph glyph-name="Scaron" unicode="&#x160;" horiz-adv-x="1183" 
d="M944 1630l-225 -280h-193l-215 280h205l115 -170l108 170h205zM1176 475q0 -82 -56 -186q-69 -134 -192 -211.5t-269 -77.5h-129q-330 0 -501 287l-13 20q-16 30 -16 41v62q0 66 51 114.5t119 48.5q42 0 88 -24q53 -29 53 -68v-18q-123 0 -123 -105q0 -126 131 -208
q114 -72 248 -72q139 0 252 94q115 97 115 231q0 108 -80 197q-78 90 -182 90q-75 0 -131 -35q-66 -40 -66 -112h-18q-170 0 -295 106q-133 115 -133 279q0 148 125 264q125 119 272 119q114 0 236 -49l272 -111q44 0 80 39q39 40 47 43l16 -10q15 -9 15 -27q0 -89 -97 -184
q-74 -74 -166 -74q-80 0 -178 55l-188 111q-103 59 -164 59q-62 0 -110 -41.5t-48 -97.5q0 -94 111 -170q101 -74 199 -74h170q36 55 149 88q42 11 66 11q194 0 307 -224q33 -65 33 -106v-74z" />
    <glyph glyph-name="scaron" unicode="&#x161;" horiz-adv-x="829" 
d="M670 1233l-226 -281h-192l-215 281h205l114 -170l109 170h205zM754 322q0 -140 -148 -236q-133 -86 -278 -86q-119 0 -213 49q-115 59 -115 168q0 45 31 81t73 36q17 0 48.5 -13t31.5 -24q-3 -12 -16 -21q-33 -20 -33 -77q0 -59 54.5 -94t142.5 -35q100 0 170 67
q71 68 71 166q0 58 -38 103t-91 45q-31 0 -61.5 -32t-30.5 -63l6 -22l13 -12v-25q-244 0 -324 209l-22 80q3 17 12 26q0 112 73.5 186t186.5 74q65 0 129 -24l131 -51q9 0 29 18q9 15 32 19h31v-19l-55 -98q-35 -62 -98 -62h-58q-20 0 -123 56q-100 55 -141 55
q-14 -5 -31 -16q-32 -31 -32 -82q0 -68 84 -115q68 -39 145 -39q23 0 102 59q33 27 70 27h49q76 0 133 -70q60 -69 60 -141v-67z" />
    <glyph glyph-name="Ydieresis" unicode="&#x178;" horiz-adv-x="1271" 
d="M1266 940q0 -100 -142 -348l-186 -326l-182 -323l-56 -80q-11 -13 -90 -92q-100 -93 -168 -93h-110q-21 0 -86 19q-74 21 -74 49l68 107l71 108l33 -61q34 -64 143 -64q84 0 156 84q12 16 49 80q-163 59 -260 236l-94 305l-53 196q-36 130 -74 240l-55 98q-22 22 -56 25
q-18 0 -43 -11.5t-26 -11.5q-22 9 -31 35q0 17 111 107q113 89 137 92q91 0 155 -154q31 -68 105 -354q68 -252 125 -395q18 -47 43 -105q58 -104 127 -104l20 30l58 95q93 152 104 176q2 8 59 118q60 117 60 205q0 52 -53 113q-123 132 -123 158v88q0 38 49 84q53 45 92 45
h49q36 0 80 -33q43 -31 43 -66q0 -28 -6 -36t-29 -13l-8 37q-6 28 -29 31q-20 0 -34 -14q-17 -23 -17 -35q0 -7 74 -78q74 -68 74 -113v-51zM995 1417h-211v230h211v-230zM578 1417h-211v230h211v-230z" />
    <glyph glyph-name="Zcaron" unicode="&#x17d;" horiz-adv-x="1243" 
d="M995 1630l-225 -280h-192l-216 280h205l115 -170l109 170h204zM1237 295q0 -53 -72 -131q-56 -62 -118 -101q-100 -63 -224 -63h-65q-51 0 -158 37l-211 74h-76q-77 0 -168 -50q-87 -49 -90 -49q-18 0 -35 11l-20 32l547 572l-6 12q-42 9 -105 -33q-49 -31 -80 -78h-37
v25q0 37 93 131q110 115 215 115h57q4 3 9 7t5 5q25 21 41 37l142 158l59 57q33 26 33 51l-254 -78q-105 -32 -184 -32h-164q-156 0 -203 139h-21l-90 -99q-25 -28 -39 -28q-32 0 -32 37q0 56 94 149q112 109 221 109h123q33 0 244 -70q113 -35 180 -35h63q61 0 164 43
q101 43 113 43l18 -10l25 -33l-424 -454l129 -136l-76 -65q-44 -39 -117 -131h-18l-25 100q-3 27 -55 39l-373 -393l11 -6l139 55q137 55 229 55h107q126 0 203 -73q20 -21 49 -72q58 6 112 90q53 86 72 86q43 0 43 -49z" />
    <glyph glyph-name="zcaron" unicode="&#x17e;" horiz-adv-x="847" 
d="M737 1233l-225 -281h-193l-215 281h205l115 -170l108 170h205zM772 252q0 -63 -108 -160q-109 -92 -177 -92q-15 0 -84 16l-133 35h-102q-14 0 -57 -20q-45 -19 -60 -19q-24 0 -24 25q0 13 79 110l183 224l67 92l74 92l123 147h-25l-106 -34q-96 -30 -127 -35h-70
q-38 0 -71 35l-39 53q-35 -26 -52 -78q-12 -49 -36 -49l-15 12q-9 9 -12 27q0 42 59 131q71 108 154 108h88l139 -30q60 -13 101 -13l65 7q58 11 96 28h52v-35l-348 -419q-128 -154 -136 -185l209 -41l62 -8h73q29 0 74 45q50 47 53 47l21 -6z" />
    <glyph glyph-name="longs" unicode="&#x17f;" horiz-adv-x="665" 
d="M606 1249q-33 -61 -119 -170q-86 82 -131 82h-75q0 -316 -7 -981q0 -64 58 -149q0 -13 -8 -21l-19 -10q-123 28 -149 25q-66 -25 -86 -25q-27 0 -27 25q0 12 23 47q22 38 22 47v512q-21 0 -41.5 -18.5t-21.5 -18.5q-25 9 -25 31q0 31 33 96q34 69 55 84v162
q0 104 113 223q113 121 217 121h51q22 0 76 -17q58 -18 61 -45z" />
    <glyph glyph-name="florin" unicode="&#x192;" horiz-adv-x="1212" 
d="M1004 1309q0 -45 -44.5 -79t-101.5 -34q-36 0 -108 25q-75 24 -113 24q-88 0 -88 -76q0 -19 90 -129q70 -82 70 -153q0 -82 -9 -166q163 29 193 29q57 0 57 -39q0 -7 -20 -47q-19 -43 -19 -62t9 -33h-23q-47 0 -47 17q0 4 2 6l2 10q2 2 2 14q0 66 -82 66q-77 0 -86 -86
l-53 -430q0 -46 24 -129q27 -78 27 -121q0 -120 -113 -184q-97 -54 -241 -54q-124 0 -217 46q-119 57 -119 167q0 162 135 162q35 0 94 -24q75 -29 82 -29h15q-4 -18 -21 -23q-10 -3 -104 -20q-84 -27 -84 -119q0 -80 75 -123q63 -37 148 -37q239 0 239 197q0 62 -63 143
q-45 60 -45 103q0 80 25 227q26 146 26 227q0 77 -76 115l2 -2q-26 16 -102 37q-35 15 -35 23q0 9 12 6q5 -1 15.5 -2t15.5 -2q60 0 185 -9q18 111 18 224q0 71 -49 178q-49 105 -49 139q0 143 163 143q48 0 144 -36q93 -37 145 -37q49 0 84 22q13 -54 13 -65z" />
    <glyph glyph-name="circumflex" unicode="&#x2c6;" 
d="M766 946h-184l-101 154l-100 -154h-184l192 252h174z" />
    <glyph glyph-name="tilde" unicode="&#x2dc;" 
d="M772 1151q0 -96 -47.5 -150.5t-126.5 -54.5q-59 0 -149 49q-56 33 -89 33q-67 0 -67 -86h-121q0 93 49.5 150t132.5 57q51 0 152 -49q50 -27 84 -27q58 0 67 78h115z" />
    <glyph glyph-name="mu" unicode="&#x3bc;" horiz-adv-x="2977" 
d="M2898 -78h-2875v1716h2875v-1716zM2847 1151q0 61 -39 104t-94 43h-304q-75 0 -75 72v268h-117v-268q0 -180 238 -180q10 0 96 4t98 4q84 0 84 -39q0 -43 -82 -43q-10 0 -100 4q-64 6 -98 6q-236 0 -236 -196v-660q0 -142 147 -176v115q-38 23 -38 86v618q0 93 71 93h299
q60 0 105 42.5t45 102.5zM2054 279v192q0 84 -52.5 132t-143.5 48h-504q-84 0 -84 76v195q0 88 84 88h499q48 0 89 -43h102q-28 155 -182 155h-504q-91 0 -146 -58t-55 -151v-182q0 -85 52 -136.5t137 -51.5h512q92 0 92 -92v-156q0 -92 -125 -92h-512q-45 0 -45 43
q0 37 41 37h553v108h-572q-59 0 -96 -42.5t-37 -106.5q0 -61 41 -102.5t102 -41.5h578q80 0 128 50t48 131zM1016 1638h-115l4 -1396q0 -13 -12.5 -28t-24.5 -15q-39 0 -39 43v309q0 91 -63 154l-367 362q-38 39 -106 39t-115 -35q-53 -41 -53 -104v-676q0 -197 180 -197
h168q130 0 158 148h-109q-23 -31 -51 -43h-166q-72 0 -72 88v635q0 9 17 65q15 12 35 12q27 0 55 -28l195 -191q175 -172 178 -190q4 -94 4 -346q0 -68 41 -113t106 -45q61 0 105.5 45t44.5 107z" />
    <glyph glyph-name="endash" unicode="&#x2013;" horiz-adv-x="860" 
d="M731 571q-14 -25 -14 -65q0 -3 2 -31t2 -33q0 -45 -41 -45q-49 0 -162 11q-120 10 -162 10q-45 0 -141 -6q-126 -4 -141 -4t-15 12q0 10 7 10v62q0 4 -2.5 29t-2.5 28q0 45 41 45q59 0 160 -14q104 -13 164 -13q49 0 143 6q90 7 146 7q9 0 13 -2t3 -7z" />
    <glyph glyph-name="emdash" unicode="&#x2014;" horiz-adv-x="1228" 
d="M1047 590l-13 -29q-12 -27 -12 -47q0 -3 5 -33t5 -35q0 -51 -59 -51q-70 0 -232 11q-150 12 -229 12q-68 0 -203 -6q-180 -4 -203 -4q-20 0 -20 12q-3 10 8 10q2 2 2 72q0 4 -5 31t-5 30q0 51 57 51q88 0 232 -14q143 -14 231 -14q69 0 207 6t207 6q27 0 27 -8z" />
    <glyph glyph-name="quoteleft" unicode="&#x2018;" horiz-adv-x="299" 
d="M289 905h-33q-50 53 -123 146q-98 127 -98 166q0 30 28.5 56.5t59.5 26.5q47 0 102 -161q5 -16 64 -209v-25z" />
    <glyph glyph-name="quoteright" unicode="&#x2019;" horiz-adv-x="299" 
d="M285 1217q0 -37 -97 -164q-29 -40 -125 -146h-32v23q29 64 78 241q36 129 88 129q36 0 62 -24t26 -59z" />
    <glyph glyph-name="quotesinglbase" unicode="&#x201a;" horiz-adv-x="299" 
d="M285 150q0 -36 -97 -160q-41 -56 -125 -146h-32v23q22 46 78 237q36 129 88 129q36 0 62 -24t26 -59z" />
    <glyph glyph-name="quotedblleft" unicode="&#x201c;" horiz-adv-x="534" 
d="M516 913h-33q-48 52 -123 146q-98 127 -98 166q0 32 27.5 57t60.5 25q54 0 90 -127q63 -212 76 -242v-25zM307 909h-33q-56 58 -122 144q-99 126 -99 168q0 32 27.5 58t60.5 26q51 0 90 -129q10 -34 76 -242v-25z" />
    <glyph glyph-name="quotedblright" unicode="&#x201d;" horiz-adv-x="534" 
d="M477 1229q0 -36 -96 -164q-83 -104 -125 -145h-33v22l76 242q40 131 90 131q30 0 56.5 -26.5t31.5 -59.5zM266 1233q0 -36 -96 -164q-71 -95 -125 -147h-33v24q13 27 76 242q38 129 90 129q33 0 60.5 -26t27.5 -58z" />
    <glyph glyph-name="quotedblbase" unicode="&#x201e;" horiz-adv-x="534" 
d="M477 162q0 -37 -96 -162q-79 -98 -125 -143h-33v22l76 238q40 131 90 131q30 0 56.5 -26.5t31.5 -59.5zM266 166q0 -39 -96 -164q-73 -91 -125 -143h-33v24q19 39 76 238q38 129 90 129q33 0 60.5 -26t27.5 -58z" />
    <glyph glyph-name="dagger" unicode="&#x2020;" horiz-adv-x="763" 
d="M723 983q2 -30 -14 -44.5t-52 -14.5q-39 0 -133 22q-90 23 -133 23t-133 -23q-90 -22 -131 -22q-66 0 -66 59t70 59q37 0 127 -22q88 -21 133 -21t131 21q94 22 131 22q67 0 70 -59zM459 594q0 -133 -19 -354q-21 -258 -43 -258h-8q-20 0 -41 258q-18 226 -18 354
q0 65 24 194q25 126 25 195q0 53 -27 137q-24 90 -24 137q0 82 65 82q66 0 66 -84q0 -52 -27 -137q-24 -88 -24 -135q0 -66 24 -195q27 -122 27 -194z" />
    <glyph glyph-name="daggerdbl" unicode="&#x2021;" horiz-adv-x="763" 
d="M457 696q0 -67 -66 -67q-63 0 -63 67q0 48 24 144q27 90 27 143q0 50 -27 137q-24 93 -24 140q0 79 63 79q66 0 66 -84q0 -49 -25 -137q-24 -88 -24 -135q0 -49 24 -143q25 -94 25 -144zM723 983q2 -30 -14 -44.5t-52 -14.5q-39 0 -133 22q-90 23 -133 23t-133 -23
q-90 -22 -131 -22q-66 0 -66 59t68 59q36 0 129 -22q88 -21 133 -21t131 21q94 22 131 22q67 0 70 -59zM457 -72q0 -67 -66 -67q-63 0 -63 67q0 49 24 142q27 87 27 139q0 50 -27 137q-24 93 -24 139q0 80 63 80q66 0 66 -84q0 -50 -25 -137q-24 -88 -24 -135t24 -141
q25 -91 25 -140zM723 209q2 -30 -14 -44.5t-52 -14.5q-39 0 -133 22q-97 23 -133 23t-133 -23q-90 -22 -131 -22q-66 0 -66 59t68 59q36 0 129 -22q83 -21 133 -21q51 0 131 21q94 22 131 22q67 0 70 -59z" />
    <glyph glyph-name="bullet" unicode="&#x2022;" horiz-adv-x="819" 
d="M580 676q0 -114 -62 -193q-69 -84 -180 -84q-112 0 -178 84q-60 80 -60 193q0 117 66.5 192.5t171.5 75.5q108 0 175 -75.5t67 -192.5z" />
    <glyph glyph-name="ellipsis" unicode="&#x2026;" horiz-adv-x="884" 
d="M848 147q0 -37 -57 -92q-55 -55 -93 -55q-29 0 -45 57q-12 41 -12 78q0 113 98 113q44 0 76.5 -29t32.5 -72zM541 147q0 -37 -58 -92q-55 -55 -92 -55q-30 0 -45 57q-12 40 -12 78q0 113 98 113q44 0 76.5 -29t32.5 -72zM233 147q0 -38 -57 -92q-55 -55 -92 -55
q-30 0 -45 57q-12 41 -12 78q0 113 98 113q44 0 76 -29t32 -72z" />
    <glyph glyph-name="perthousand" unicode="&#x2030;" horiz-adv-x="2076" 
d="M1929 551q0 -88 -16 -154q-33 -122 -131 -252q-115 -145 -205 -145q-77 0 -117 100q-30 78 -30 170q0 99 79 248q19 36 84 154q35 96 56 96q5 0 67 -12q30 -4 31 -4q11 0 49 8t47 8q86 0 86 -217zM1430 1454l-1065 -1444l-134 -10l912 1235q-112 -37 -217 -37
q-118 0 -246 51q10 -58 10 -100q0 -220 -149 -418q-115 -151 -209 -151q-74 0 -117 106q-33 82 -33 172q0 101 82 250l84 154q31 100 55 100q9 0 51 -10.5t50 -10.5q12 0 50 14.5t46 14.5q198 -72 369 -72q163 0 338 156h123zM1335 547q0 -84 -16 -150q-33 -122 -131 -252
q-115 -145 -207 -145q-76 0 -117 102q-30 78 -30 170q0 103 79 246l86 154q35 96 54 96q11 0 49.5 -8t50.5 -8t50 8t46 8q86 0 86 -221zM1800 446q0 56 -20 109q-29 74 -64 74q-74 0 -127 -203q-8 -27 -8 -86q0 -162 68 -162q82 0 147 238q4 20 4 30zM1206 444q0 53 -20 109
q-28 76 -66 76q-72 0 -125 -203q-8 -27 -8 -90q0 -160 68 -160q83 0 147 240q4 20 4 28zM555 1032q0 52 -18 111q-25 76 -66 76q-75 0 -127 -205q-8 -28 -8 -88q0 -162 70 -162q88 0 147 240q2 6 2 28z" />
    <glyph glyph-name="guilsinglleft" unicode="&#x2039;" horiz-adv-x="507" 
d="M432 756q0 -13 -33 -39q-149 -125 -149 -211q0 -57 162 -223q15 -17 18 -31q2 -11 -4.5 -16t-22.5 -5q-4 0 -29 4.5t-30 4.5l-76 -4l-26 6q-10 7 -19 24l-22 41q-27 50 -47 78l-68 90q-10 23 -10 27q0 11 45 73l55 82q65 118 86 121q3 0 32.5 -4t37.5 -4q5 0 35.5 4
t35.5 4q26 0 29 -22z" />
    <glyph glyph-name="guilsinglright" unicode="&#x203a;" horiz-adv-x="507" 
d="M432 502q0 -4 -10 -27l-68 -90q-20 -28 -47 -78l-22 -41q-20 -34 -45 -30l-80 4l-51 -9q-28 0 -31 25q0 9 22 33q158 150 158 217q0 86 -149 211q-33 26 -33 41q3 20 35 20q5 0 33 -4t32 -4q8 0 37.5 4t32.5 4q15 -3 86 -121q3 -3 53 -79q47 -73 47 -76z" />
    <glyph glyph-name="trademark" unicode="&#x2122;" horiz-adv-x="1662" 
d="M1610 1198q0 -67 -64 -162q-68 -104 -129 -104h-35q-10 0 -32 16l-25 15q-11 -2 -16 -7l-9 -2q-4 4 -10 9l-6 10l55 55l52 51l8 8q6 0 12 -43q9 -40 43 -40q24 0 57 30q35 41 35 86q0 58 -119 201q-3 3 -102 117q-3 3 -14 14.5t-17 17.5l-92 -86v-350q0 -16 10 -51
l25 -33v-18h-10l-41 4l-15 6h-36l-29 -10l-23 -2h-10q-7 2 -10 12l24 33q9 13 9 37v415l-23 31q-14 14 -33 25q-6 -6 -16 -13q-86 -58 -145 -180q-35 -72 -35 -110v-93l18 -88v-36l-6 -27q-10 -10 -18 -10q-20 0 -29 24l6 25l2 16q-18 19 -59 43q-64 34 -64 105v26l6 33
q35 97 158 197l41 32l76 64l51 47l57 59l60 -43q59 -42 59 -100h10q42 32 50 39l12 12q10 14 29 31q20 33 53 55l20 -26l58 -64l98 -112q30 -27 54 -74.5t24 -83.5v-33zM1004 1552l-13 -12l-45 -41l-35 -33q-2 -2 -7.5 -6.5t-8.5 -7.5q-35 47 -102 47q-27 0 -50.5 -17
t-23.5 -40v-53h-19q-12 9 -12 12l-2 20q0 55 43 113q45 57 98 57h45l37 -12l52 -27l10 9q8 8 18 8l10 -4q1 -1 2.5 -5.5zM711 1559l-60 -62l-45 -49l-55 -98q-8 -21 -23 -21l-14 6q-5 5 -8 15l20 43l21 45l-64 4q-20 3 -67 6l-41 10q-3 1 -15 3.5t-20 4.5q-41 0 -88 -65
q-43 -64 -43 -111v-51q0 -101 108 -172q56 -39 152 -39q32 0 82 29q18 9 35 18.5t18 9.5l14 -6l3 -14q0 -46 -76 -92q-74 -47 -123 -47h-62q-83 0 -167 75q-87 78 -87 160v72l7 33q21 109 163 215l-55 12l-57 8q-58 0 -78 -51q-15 -33 -31 -53q-12 0 -16 4l-4 22
q0 68 63 119q64 55 129 55h84l254 -53l80 21l39 14l16 -6q7 -3 11 -14z" />
    <glyph glyph-name="null" unicode="&#x2400;" horiz-adv-x="0" 
 />
    <glyph glyph-name="fi" unicode="&#xfb01;" horiz-adv-x="745" 
d="M725 0h-319v27l32 65q19 37 19 78v467q0 7 -4 25q-28 -25 -54 -25h-125v-457q0 -61 29 -106l29 -43q0 -13 -8 -21l-19 -10l-65 16l-27 9h-57l-33 -13q-21 -12 -53 -12q-24 0 -27 25q0 19 31 59q11 19 14 35v512q-38 0 -41 -19q-3 -18 -22 -18q-22 9 -25 31q0 34 31 92
q28 52 57 88v162q0 104 113 223q113 121 217 121h51l68 -15q66 -15 69 -47l-2 -4q42 -2 71.5 -30.5t29.5 -69.5q0 -37 -58 -119q-56 -80 -92 -80q-16 0 -37 64q-15 45 -18 84q-3 -7 -13 -15l-59 51q-46 31 -72 31h-75v-332q9 -9 36 -6l48 2l53 4q55 3 82 21l55 49l25 -25
l6 -12l-2 -2q25 -22 47 -69l35 -80v-568q0 -42 20 -73l39 -50v-20z" />
    <glyph glyph-name="fl" unicode="&#xfb02;" horiz-adv-x="851" 
d="M827 1286l-34 -41q-35 -40 -35 -80v-962q0 -101 33 -140q16 -22 16 -38t-8 -21l-23 -4l-20 4q-62 33 -94 33q-28 0 -66 -12l-74 -25h-24v45q18 17 32 61q17 48 17 70v608q-79 -147 -148 -147h-125v-457q0 -61 29 -106l29 -43q0 -13 -8 -21l-19 -10l-65 16l-27 9h-57
l-33 -13q-21 -12 -53 -12q-24 0 -27 25q0 19 31 59q11 19 14 35v512q-38 0 -41 -19q-3 -18 -22 -18q-22 9 -25 31q0 34 31 92q28 52 57 88v162q0 104 113 223q113 121 217 121h51l68 -15q66 -15 69 -47l-31 -49q181 111 222 111l18 -8zM547 891v162q0 32 -31 59
q-2 -2 -11 -13t-18 -20l-59 51q-46 31 -72 31h-75v-332q9 -9 36 -6l48 2l53 4q55 3 82 21z" />
    <glyph glyph-name="CR" horiz-adv-x="655" 
 />
  </font>
</defs>
</svg>
