<?xml version="1.0" encoding="utf-8"?><svg xml:space="preserve" viewBox="0 0 100 100" y="0" x="0" xmlns="http://www.w3.org/2000/svg" id="圖層_1" version="1.1" width="200px" height="200px" xmlns:xlink="http://www.w3.org/1999/xlink" style="width:100%;height:100%;background-size:initial;background-repeat-y:initial;background-repeat-x:initial;background-position-y:initial;background-position-x:initial;background-origin:initial;background-image:initial;background-color:rgb(255, 255, 255);background-clip:initial;background-attachment:initial;animation-play-state:paused" ><g class="ldl-scale" style="transform-origin:50% 50%;transform:rotate(0deg) scale(0.8, 0.8);animation-play-state:paused" ><path fill="#d1d1d1" d="M91.514 32.012c-.954-1.307-2.492-2.056-4.218-2.056a6.89 6.89 0 0 0-1.946.293l-13.545 3.98c-3.537 1.04-6.043 4.599-5.829 8.279l.395 6.783h-3.933l2.032-7.196c.819-2.901.252-6.86-1.349-9.414l-8.223-13.117c-1.174-1.873-2.984-2.948-4.964-2.948-1.984 0-3.794 1.077-4.968 2.956l-8.191 13.111c-1.595 2.554-2.161 6.511-1.345 9.41l2.025 7.199h-3.893l.393-6.783c.213-3.679-2.291-7.239-5.825-8.281l-13.474-3.974a6.935 6.935 0 0 0-1.952-.295c-1.725 0-3.262.749-4.217 2.055-1.036 1.416-1.266 3.264-.649 5.203l10.29 32.355c.396 1.245 1.12 2.376 2.052 3.311-1.446 1.102-2.338 2.657-2.338 4.411 0 3.416 3.368 6.092 7.667 6.092h47.544c4.299 0 7.666-2.676 7.666-6.092 0-1.446-.608-2.755-1.629-3.789 1.263-1.033 2.252-2.394 2.741-3.928L92.158 37.22c.62-1.942.391-3.791-.644-5.208z" style="fill:rgb(41, 41, 41);animation-play-state:paused" ></path>
<g style="animation-play-state:paused" ><path fill="#464646" d="M73.053 74.804H25.509c-2.235 0-4.063 1.12-4.063 2.489s1.828 2.489 4.063 2.489h47.544c2.235 0 4.063-1.12 4.063-2.489s-1.829-2.489-4.063-2.489z" style="fill:rgb(255, 215, 0);animation-play-state:paused" ></path>
<path fill="#464646" d="M86.365 33.705l-13.545 3.98c-1.901.559-3.363 2.635-3.248 4.613l.407 6.998a3.368 3.368 0 0 1-3.394 3.597h-5.307c-1.982 0-3.162-1.56-2.624-3.467L61 41.115c.539-1.907.118-4.842-.935-6.52l-8.223-13.117c-1.053-1.679-2.773-1.678-3.823.003l-8.19 13.11c-1.05 1.681-1.47 4.617-.933 6.525l2.338 8.309c.537 1.908-.646 3.469-2.628 3.469h-5.261a3.37 3.37 0 0 1-3.395-3.597l.406-6.998c.115-1.979-1.347-4.056-3.248-4.617l-13.473-3.974c-1.901-.561-2.965.526-2.364 2.415l10.29 32.355c.601 1.888 2.713 3.434 4.695 3.434H73.7c1.982 0 4.096-1.545 4.698-3.432l10.328-32.357c.603-1.889-.46-2.976-2.361-2.418zM34.207 67.689a3.663 3.663 0 1 1 0-7.326 3.663 3.663 0 0 1 0 7.326zm15.794-.955l-5.765-5.766 5.765-5.765 5.766 5.766-5.766 5.765zm15.795.835a3.543 3.543 0 1 1 0-7.085 3.543 3.543 0 0 1 0 7.085z" style="fill:rgb(255, 215, 0);animation-play-state:paused" ></path></g>
<metadata xmlns:d="https://loading.io/stock/" style="animation-play-state:paused" ><d:name style="animation-play-state:paused" >crown</d:name>


<d:tags style="animation-play-state:paused" >king,queen,treasure,prize,winner,kingdom,empire,throne,rule,hail,crown,map</d:tags>


<d:license style="animation-play-state:paused" >by</d:license>


<d:slug style="animation-play-state:paused" >gx7ihe</d:slug></metadata></g><!-- generated by https://loading.io/ --></svg>