<?xml version="1.0" encoding="utf-8"?><svg xmlns="http://www.w3.org/2000/svg" xmlns:xlink="http://www.w3.org/1999/xlink" width="1536" height="739" preserveAspectRatio="xMidYMid" viewBox="0 0 1536 739" style="z-index:1;margin-right:-1.6px;display:block;animation-play-state:paused" ><g transform="translate(768,369.5) scale(1,1) translate(-768,-369.5)" style="transform:matrix(1, 0, 0, 1, 0, 0);animation-play-state:paused" ><path id="path0" d="M 195.1708015647972 19.519685436474653
c 0 30.255153110466065 -7.402856612135312 8.690309935984933 -16.093166548120244 8.690309935984933
S 162.98446846855668 49.774838546940714 162.98446846855668 19.519685436474653
s 7.402856612135312 -8.690309935984933 16.093166548120244 -8.690309935984933
S 195.1708015647972 -10.735467673991412 195.1708015647972 19.519685436474653
z" fill="none" stroke="none" style="animation-play-state:paused" ></path>


<circle cx="0" cy="0" r="7.765904088311359" fill="#ffd700" opacity="0.9" transform="translate(162.9856719970703 20.16512107849121)" style="opacity:0.9;animation-play-state:paused" ></circle>
<path id="path1" d="M 122.47758472308382 313.20138698840054
c 0 23.816467886447494 -5.827433631790344 6.8409003503625785 -12.668333982152921 6.8409003503625785
S 97.14091675877799 337.017854874848 97.14091675877799 313.20138698840054
s 5.827433631790344 -6.8409003503625785 12.668333982152921 -6.8409003503625785
S 122.47758472308382 289.3849191019531 122.47758472308382 313.20138698840054
z" fill="none" stroke="none" style="animation-play-state:paused" ></path>


<circle cx="0" cy="0" r="7.85425667602016" fill="#32cd32" opacity="0.9" transform="translate(116.37109375 323.7672424316406)" style="opacity:0.9;animation-play-state:paused" ></circle>
<path id="path2" d="M 926.0038211132807 468.6577723254898
c 0 36.259556153141205 -8.872019058747314 10.414978895051197 -19.28699795379851 10.414978895051197
S 887.4298252056836 504.917328478631 887.4298252056836 468.6577723254898
s 8.872019058747314 -10.414978895051197 19.28699795379851 -10.414978895051197
S 926.0038211132807 432.3982161723486 926.0038211132807 468.6577723254898
z" fill="none" stroke="none" style="animation-play-state:paused" ></path>


<circle cx="0" cy="0" r="5.979721347793956" fill="#9370db" opacity="0.9" transform="translate(904.0419311523438 457.715087890625)" style="opacity:0.9;animation-play-state:paused" ></circle>
<path id="path3" d="M 1413.8398764254077 633.2008302910257
c 0 31.662596767770832 -7.747231124029033 9.09457566733843 -16.841806791367464 9.09457566733843
S 1380.156262842673 664.8634270587966 1380.156262842673 633.2008302910257
s 7.747231124029033 -9.09457566733843 16.841806791367464 -9.09457566733843
S 1413.8398764254077 601.5382335232548 1413.8398764254077 633.2008302910257
z" fill="none" stroke="none" style="animation-play-state:paused" ></path>


<circle cx="0" cy="0" r="6.40759261154342" fill="#32cd32" opacity="0.9" transform="translate(1380.837646484375 621.1285400390625)" style="opacity:0.9;animation-play-state:paused" ></circle>
<path id="path4" d="M 1387.8681024353546 645.0271883604529
c 0 22.39726657256965 -5.4801822464798065 6.433257419780643 -11.91343966626045 6.433257419780643
S 1364.0412231028336 667.4244549330225 1364.0412231028336 645.0271883604529
s 5.4801822464798065 -6.433257419780643 11.91343966626045 -6.433257419780643
S 1387.8681024353546 622.6299217878833 1387.8681024353546 645.0271883604529
z" fill="none" stroke="none" style="animation-play-state:paused" ></path>


<circle cx="0" cy="0" r="4.50323257283718" fill="#292929" opacity="0.9" transform="translate(1364.467041015625 636.8389892578125)" style="opacity:0.9;animation-play-state:paused" ></circle>
<path id="path5" d="M 966.9425658376568 733.1070922129375
c 0 22.879006269329295 -5.598054725474189 6.571629460339266 -12.169684185813454 6.571629460339266
S 942.6031974660299 755.9860984822667 942.6031974660299 733.1070922129375
s 5.598054725474189 -6.571629460339266 12.169684185813454 -6.571629460339266
S 966.9425658376568 710.2280859436082 966.9425658376568 733.1070922129375
z" fill="none" stroke="none" style="animation-play-state:paused" ></path>


<circle cx="0" cy="0" r="5.538779469039866" fill="#32cd32" opacity="0.9" transform="translate(943.3551025390625 723.1500244140625)" style="opacity:0.9;animation-play-state:paused" ></circle>
<path id="path6" d="M 1369.6445912381662 397.9389508999622
c 0 20.07428197112961 -4.911792397191287 5.766017161920208 -10.677809559111495 5.766017161920208
S 1348.2889721199433 418.0132328710918 1348.2889721199433 397.9389508999622
s 4.911792397191287 -5.766017161920208 10.677809559111495 -5.766017161920208
S 1369.6445912381662 377.8646689288326 1369.6445912381662 397.9389508999622
z" fill="none" stroke="none" style="animation-play-state:paused" ></path>


<circle cx="0" cy="0" r="4.775038079780084" fill="#9370db" opacity="0.9" transform="translate(1369.2789306640625 405.16607666015625)" style="opacity:0.9;animation-play-state:paused" ></circle>
<path id="path7" d="M 1224.484095102008 195.11383647412708
c 0 25.200294163049282 -6.16602942287376 7.238382365982241 -13.404411788856 7.238382365982241
S 1197.6752715242962 220.31413063717636 1197.6752715242962 195.11383647412708
s 6.16602942287376 -7.238382365982241 13.404411788856 -7.238382365982241
S 1224.484095102008 169.9135423110778 1224.484095102008 195.11383647412708
z" fill="none" stroke="none" style="animation-play-state:paused" ></path>


<circle cx="0" cy="0" r="4.0301097818776075" fill="#32cd32" opacity="0.9" transform="translate(1205.02001953125 205.52783203125)" style="opacity:0.9;animation-play-state:paused" ></circle>
<path id="path8" d="M 525.3166181649079 222.31302124876083
c 0 22.390000496481854 -5.478404376798751 6.431170355372447 -11.909574732171198 6.431170355372447
S 501.4974687005655 244.7030217452427 501.4974687005655 222.31302124876083
s 5.478404376798751 -6.431170355372447 11.909574732171198 -6.431170355372447
S 525.3166181649079 199.92302075227897 525.3166181649079 222.31302124876083
z" fill="none" stroke="none" style="animation-play-state:paused" ></path>


<circle cx="0" cy="0" r="5.566617332547289" fill="#ffd700" opacity="0.9" transform="translate(514.0440063476562 228.7950897216797)" style="opacity:0.9;animation-play-state:paused" ></circle>
<path id="path9" d="M 629.461612777779 268.027239045842
c 0 34.73468292919861 -8.498911780548596 9.976983394557047 -18.47589517510564 9.976983394557047
S 592.5098224275678 302.76192197504065 592.5098224275678 268.027239045842
s 8.498911780548596 -9.976983394557047 18.47589517510564 -9.976983394557047
S 629.461612777779 233.2925561166434 629.461612777779 268.027239045842
z" fill="none" stroke="none" style="animation-play-state:paused" ></path>


<circle cx="0" cy="0" r="5.381959924547239" fill="#32cd32" opacity="0.9" transform="translate(610.2169189453125 278.0524597167969)" style="opacity:0.9;animation-play-state:paused" ></circle>
<path id="path10" d="M 1473.824159439485 621.3127302452156
c 0 19.784382694769374 -4.840859595528675 5.682748220838011 -10.523607816366686 5.682748220838011
S 1452.7769438067517 641.097112939985 1452.7769438067517 621.3127302452156
s 4.840859595528675 -5.682748220838011 10.523607816366686 -5.682748220838011
S 1473.824159439485 601.5283475504461 1473.824159439485 621.3127302452156
z" fill="none" stroke="none" style="animation-play-state:paused" ></path>


<circle cx="0" cy="0" r="5.087731931118625" fill="#ffd700" opacity="0.9" transform="translate(1452.780029296875 622.1028442382812)" style="opacity:0.9;animation-play-state:paused" ></circle>
<path id="path11" d="M 76.09717583514905 244.64089000478714
c 0 31.055840480527568 -7.598769479278021 8.920294606108982 -16.519064085387004 8.920294606108982
S 43.05904766437503 275.69673048531473 43.05904766437503 244.64089000478714
s 7.598769479278021 -8.920294606108982 16.519064085387004 -8.920294606108982
S 76.09717583514905 213.58504952425957 76.09717583514905 244.64089000478714
z" fill="none" stroke="none" style="animation-play-state:paused" ></path>


<circle cx="0" cy="0" r="6.3433168383371425" fill="#ffd700" opacity="0.9" transform="translate(43.135677337646484 239.7257537841797)" style="opacity:0.9;animation-play-state:paused" ></circle>
<path id="path12" d="M 673.1607333403712 240.81882724401228
c 0 24.930010909382275 -6.099896286338216 7.160747814397037 -13.260644100735252 7.160747814397037
S 646.6394451389007 265.74883815339456 646.6394451389007 240.81882724401228
s 6.099896286338216 -7.160747814397037 13.260644100735252 -7.160747814397037
S 673.1607333403712 215.88881633463 673.1607333403712 240.81882724401228
z" fill="none" stroke="none" style="animation-play-state:paused" ></path>


<circle cx="0" cy="0" r="6.638991567785856" fill="#9370db" opacity="0.9" transform="translate(672.3846435546875 251.4991455078125)" style="opacity:0.9;animation-play-state:paused" ></circle>
<path id="path13" d="M 885.5346549438242 566.8597633130854
c 0 30.828904151883755 -7.543242505248152 8.85511076703044 -16.39835327227859 8.85511076703044
S 852.7379483992671 597.6886674649692 852.7379483992671 566.8597633130854
s 7.543242505248152 -8.85511076703044 16.39835327227859 -8.85511076703044
S 885.5346549438242 536.0308591612016 885.5346549438242 566.8597633130854
z" fill="none" stroke="none" style="animation-play-state:paused" ></path>


<circle cx="0" cy="0" r="6.446229461373509" fill="#ffd700" opacity="0.9" transform="translate(864.3175659179688 577.5513916015625)" style="opacity:0.9;animation-play-state:paused" ></circle>
<path id="path14" d="M 349.56910657515 300.3929373333245
c 0 22.913701708972336 -5.606544035174082 6.581595171726097 -12.188139206900178 6.581595171726097
S 325.1928281613496 323.3066390422968 325.1928281613496 300.3929373333245
s 5.606544035174082 -6.581595171726097 12.188139206900178 -6.581595171726097
S 349.56910657515 277.47923562435216 349.56910657515 300.3929373333245
z" fill="none" stroke="none" style="animation-play-state:paused" ></path>


<circle cx="0" cy="0" r="6.718781163070959" fill="#32cd32" opacity="0.9" transform="translate(335.10565185546875 293.2234191894531)" style="opacity:0.9;animation-play-state:paused" ></circle>
<path id="path15" d="M 644.6730656889061 522.2168474645397
c 0 32.11663353803089 -7.8583252273905355 9.224990484328021 -17.083315711718555 9.224990484328021
S 610.506434265469 554.3334810025706 610.506434265469 522.2168474645397
s 7.8583252273905355 -9.224990484328021 17.083315711718555 -9.224990484328021
S 644.6730656889061 490.1002139265088 644.6730656889061 522.2168474645397
z" fill="none" stroke="none" style="animation-play-state:paused" ></path>


<circle cx="0" cy="0" r="4.1740634558877625" fill="#ffd700" opacity="0.9" transform="translate(644.6707153320312 523.1151123046875)" style="opacity:0.9;animation-play-state:paused" ></circle>
<path id="path16" d="M 275.8030058873146 670.4707096375134
c 0 19.568618594996973 -4.788066251967344 5.620773426222534 -10.408839678189878 5.620773426222534
S 254.98532653093483 690.0393282325105 254.98532653093483 670.4707096375134
s 4.788066251967344 -5.620773426222534 10.408839678189878 -5.620773426222534
S 275.8030058873146 650.9020910425164 275.8030058873146 670.4707096375134
z" fill="none" stroke="none" style="animation-play-state:paused" ></path>


<circle cx="0" cy="0" r="6.494812720361813" fill="#292929" opacity="0.9" transform="translate(256.3523254394531 660.3977661132812)" style="opacity:0.9;animation-play-state:paused" ></circle>
<path id="path17" d="M 1229.134211630851 208.74916455693156
c 0 28.68299081742233 -7.018178604262909 8.238731405004286 -15.256910009267195 8.238731405004286
S 1198.6203916123168 237.4321553743539 1198.6203916123168 208.74916455693156
s 7.018178604262909 -8.238731405004286 15.256910009267195 -8.238731405004286
S 1229.134211630851 180.06617373950922 1229.134211630851 208.74916455693156
z" fill="none" stroke="none" style="animation-play-state:paused" ></path>


<circle cx="0" cy="0" r="5.237347729718262" fill="#32cd32" opacity="0.9" transform="translate(1198.8717041015625 200.9215850830078)" style="opacity:0.9;animation-play-state:paused" ></circle>
<path id="path18" d="M 1266.8325899974484 269.9704814785134
c 0 22.45038746354917 -5.493179911293946 6.448515548040719 -11.941695459334664 6.448515548040719
S 1242.9491990787792 292.4208689420626 1242.9491990787792 269.9704814785134
s 5.493179911293946 -6.448515548040719 11.941695459334664 -6.448515548040719
S 1266.8325899974484 247.52009401496426 1266.8325899974484 269.9704814785134
z" fill="none" stroke="none" style="animation-play-state:paused" ></path>


<circle cx="0" cy="0" r="5.6897221805325335" fill="#9370db" opacity="0.9" transform="translate(1266.6214599609375 263.6681823730469)" style="opacity:0.9;animation-play-state:paused" ></circle>
<path id="path19" d="M 1358.9832558461858 279.5007909563865
c 0 32.59420450844063 -7.975177698873772 9.362165124764864 -17.337342823638636 9.362165124764864
S 1324.3085701989085 312.0949954648271 1324.3085701989085 279.5007909563865
s 7.975177698873772 -9.362165124764864 17.337342823638636 -9.362165124764864
S 1358.9832558461858 246.90658644794584 1358.9832558461858 279.5007909563865
z" fill="none" stroke="none" style="animation-play-state:paused" ></path>


<circle cx="0" cy="0" r="4.83794542824998" fill="#32cd32" opacity="0.9" transform="translate(1324.56640625 288.02783203125)" style="opacity:0.9;animation-play-state:paused" ></circle>
<path id="path20" d="M 851.1056133470516 557.0594735884059
c 0 22.648497255951206 -5.541653583902954 6.50541942458173 -12.047073008484684 6.50541942458173
S 827.0114673300824 579.7079708443571 827.0114673300824 557.0594735884059
s 5.541653583902954 -6.50541942458173 12.047073008484684 -6.50541942458173
S 851.1056133470516 534.4109763324548 851.1056133470516 557.0594735884059
z" fill="none" stroke="none" style="animation-play-state:paused" ></path>


<circle cx="0" cy="0" r="4.669057905422935" fill="#ffd700" opacity="0.9" transform="translate(849.38525390625 568.8491821289062)" style="opacity:0.9;animation-play-state:paused" ></circle>
<path id="path21" d="M 736.1082475798946 290.95659583752365
c 0 21.01447123338161 -5.141838706040181 6.036071524481952 -11.177910230522132 6.036071524481952
S 713.7524271188504 311.97106707090524 713.7524271188504 290.95659583752365
s 5.141838706040181 -6.036071524481952 11.177910230522132 -6.036071524481952
S 736.1082475798946 269.94212460414207 736.1082475798946 290.95659583752365
z" fill="none" stroke="none" style="animation-play-state:paused" ></path>


<circle cx="0" cy="0" r="5.411395565733601" fill="#32cd32" opacity="0.9" transform="translate(715.1492919921875 301.69305419921875)" style="opacity:0.9;animation-play-state:paused" ></circle>
<path id="path22" d="M 407.96307170328384 459.58307172866483
c 0 21.905095867104805 -5.3597574993979835 6.29188923842372 -11.651646737821704 6.29188923842372
S 384.65977822764046 481.48816759576965 384.65977822764046 459.58307172866483
s 5.3597574993979835 -6.29188923842372 11.651646737821704 -6.29188923842372
S 407.96307170328384 437.67797586156 407.96307170328384 459.58307172866483
z" fill="none" stroke="none" style="animation-play-state:paused" ></path>


<circle cx="0" cy="0" r="6.095842850172194" fill="#32cd32" opacity="0.9" transform="translate(407.9623107910156 459.9778137207031)" style="opacity:0.9;animation-play-state:paused" ></circle>
<path id="path23" d="M 1037.6428262639454 397.91140467634347
c 0 20.89831915234691 -5.113418515999776 6.00270869269539 -11.116127208695165 6.00270869269539
S 1015.4105718465551 418.8097238286904 1015.4105718465551 397.91140467634347
s 5.113418515999776 -6.00270869269539 11.116127208695165 -6.00270869269539
S 1037.6428262639454 377.01308552399655 1037.6428262639454 397.91140467634347
z" fill="none" stroke="none" style="animation-play-state:paused" ></path>


<circle cx="0" cy="0" r="7.667908369565431" fill="#9370db" opacity="0.9" transform="translate(1024.9298095703125 391.5833435058594)" style="opacity:0.9;animation-play-state:paused" ></circle>
<path id="path24" d="M 188.61582910517575 674.4401584896375
c 0 19.6709128040269 -4.813095686091688 5.650155805411983 -10.463251491503671 5.650155805411983
S 167.68932612216838 694.1110712936644 167.68932612216838 674.4401584896375
s 4.813095686091688 -5.650155805411983 10.463251491503671 -5.650155805411983
S 188.61582910517575 654.7692456856106 188.61582910517575 674.4401584896375
z" fill="none" stroke="none" style="animation-play-state:paused" ></path>


<circle cx="0" cy="0" r="4.310552575327594" fill="#292929" opacity="0.9" transform="translate(170.93804931640625 664.3163452148438)" style="opacity:0.9;animation-play-state:paused" ></circle>
<path id="path25" d="M 146.53109671685618 391.96285698515504
c 0 24.92087786016938 -6.097661604083997 7.15812449175078 -13.255786095834775 7.15812449175078
S 120.01952452518664 416.8837348453244 120.01952452518664 391.96285698515504
s 6.097661604083997 -7.15812449175078 13.255786095834775 -7.15812449175078
S 146.53109671685618 367.0419791249857 146.53109671685618 391.96285698515504
z" fill="none" stroke="none" style="animation-play-state:paused" ></path>


<circle cx="0" cy="0" r="6.83647135733918" fill="#9370db" opacity="0.9" transform="translate(138.2577667236328 382.505859375)" style="opacity:0.9;animation-play-state:paused" ></circle>
<path id="path26" d="M 187.94431730325306 387.68507313093176
c 0 31.197331928285436 -7.63338972713367 8.96093576663518 -16.59432549376885 8.96093576663518
S 154.75566631571536 418.8824050592172 154.75566631571536 387.68507313093176
s 7.63338972713367 -8.96093576663518 16.59432549376885 -8.96093576663518
S 187.94431730325306 356.4877412026463 187.94431730325306 387.68507313093176
z" fill="none" stroke="none" style="animation-play-state:paused" ></path>


<circle cx="0" cy="0" r="4.046152404744252" fill="#9370db" opacity="0.9" transform="translate(154.76318359375 389.3007507324219)" style="opacity:0.9;animation-play-state:paused" ></circle>
<path id="path27" d="M 135.69909964411738 500.68484084272
c 0 26.153554433360846 -6.399273957098929 7.512191167029179 -13.911465124128108 7.512191167029179
S 107.87616939586115 526.8383952760809 107.87616939586115 500.68484084272
s 6.399273957098929 -7.512191167029179 13.911465124128108 -7.512191167029179
S 135.69909964411738 474.53128640935915 135.69909964411738 500.68484084272
z" fill="none" stroke="none" style="animation-play-state:paused" ></path>


<circle cx="0" cy="0" r="4.644634479845099" fill="#32cd32" opacity="0.9" transform="translate(130.6937255859375 513.6845092773438)" style="opacity:0.9;animation-play-state:paused" ></circle>
<path id="path28" d="M 340.01095497941117 566.545370737545
c 0 30.658044462949732 -7.5014364111472736 8.80603404786854 -16.307470459015814 8.80603404786854
S 307.39601406137956 597.2034152004948 307.39601406137956 566.545370737545
s 7.5014364111472736 -8.80603404786854 16.307470459015814 -8.80603404786854
S 340.01095497941117 535.8873262745952 340.01095497941117 566.545370737545
z" fill="none" stroke="none" style="animation-play-state:paused" ></path>


<circle cx="0" cy="0" r="5.254491665786833" fill="#32cd32" opacity="0.9" transform="translate(319.4839172363281 556.2916259765625)" style="opacity:0.9;animation-play-state:paused" ></circle>
<path id="path29" d="M 170.90717511162495 604.5803730115063
c 0 24.312616228181778 -5.948831630299797 6.9834110442649795 -12.932242674564776 6.9834110442649795
S 145.0426897624954 628.8929892396881 145.0426897624954 604.5803730115063
s 5.948831630299797 -6.9834110442649795 12.932242674564776 -6.9834110442649795
S 170.90717511162495 580.2677567833244 170.90717511162495 604.5803730115063
z" fill="none" stroke="none" style="animation-play-state:paused" ></path>


<circle cx="0" cy="0" r="4.30315831922277" fill="#32cd32" opacity="0.9" transform="translate(150.77352905273438 593.361572265625)" style="opacity:0.9;animation-play-state:paused" ></circle></g></svg>
