<?xml version="1.0" encoding="utf-8"?>
<svg xml:space="preserve" viewBox="0 0 100 100" y="0" x="0" xmlns="http://www.w3.org/2000/svg" id="圖層_1" version="1.1"
     width="200px" height="200px" xmlns:xlink="http://www.w3.org/1999/xlink"
     style="width:100%;height:100%;background-size:initial;background-repeat-y:initial;background-repeat-x:initial;background-position-y:initial;background-position-x:initial;background-origin:initial;background-image:initial;background-clip:initial;background-attachment:initial;animation-play-state:paused"><g class="ldl-scale" style="transform-origin:50% 50%;transform:rotate(0deg) scale(0.8, 0.8);animation-play-state:paused" ><path fill="#d1d1d1" d="M42.767 92.5c-.073 0-.146-.003-.219-.008A107.79 107.79 0 0 1 30.94 91.05a3.155 3.155 0 0 1-2.596-3.105V37.271l-5.242-6.841a3.155 3.155 0 0 1-.65-1.919V10.656a3.155 3.155 0 0 1 3.155-3.155h48.786a3.155 3.155 0 0 1 3.155 3.155V28.51c0 .694-.229 1.368-.651 1.919l-5.242 6.841v50.676a3.154 3.154 0 0 1-2.596 3.105 108.062 108.062 0 0 1-10.585 1.364 3.171 3.171 0 0 1-.734.086H42.767z" style="fill:rgb(41, 41, 41);animation-play-state:paused" ></path>
<path fill="#454545"
      d="M67.624 10.748v8.926c-2.29.412-4.632.412-6.922 0v-8.926h-7.228v9.095c-2.29.412-4.632.412-6.922 0v-9.095h-7.227v8.926c-2.29.412-4.632.412-6.922 0v-8.926h-6.796v17.855l5.892 7.691v51.745a104.56 104.56 0 0 0 11.268 1.399V75.593s.693-10.47 7.323-14.228c7.142 3.758 7.142 14.228 7.142 14.228v13.845c3.772-.262 7.533-.727 11.268-1.399V36.294l5.892-7.69V10.748h-6.768zM53.572 48.064a20.133 20.133 0 0 1-7.145 0v-7.028c-.001-.002.34-5.095 3.617-7.027 3.529 1.927 3.528 7.015 3.528 7.027v7.028z"
      style="fill:rgb(255, 255, 255);animation-play-state:paused"></path>
<metadata xmlns:d="https://loading.io/stock/" style="animation-play-state:paused"><d:name style="animation-play-state:paused" >tower</d:name>


    <d:tags style="animation-play-state:paused">sentry,watch,guard,surveillance,scout,defense,castle,tower,map</d:tags>


    <d:license style="animation-play-state:paused">by</d:license>


    <d:slug style="animation-play-state:paused">9e24br</d:slug></metadata></g><!-- generated by https://loading.io/ --></svg>
